{"glyphs":{"0":{"ha":785,"x_min":99,"x_max":686,"o":"m 390 -14 q 178 63 257 -14 q 99 267 99 139 l 99 706 q 178 909 99 833 q 390 985 257 985 q 606 908 525 985 q 686 706 686 832 l 686 267 q 606 63 686 139 q 390 -14 525 -14 m 390 72 q 533 124 479 72 q 588 261 588 175 l 588 710 q 534 846 588 794 q 390 897 481 897 q 250 846 303 897 q 197 710 197 794 l 197 261 q 250 124 197 175 q 390 72 303 72 z "},"1":{"ha":478,"x_min":75,"x_max":349,"o":"m 239 967 q 263 972 249 972 l 331 972 q 349 954 349 972 l 349 18 q 331 0 349 0 l 268 0 q 250 18 250 0 l 250 864 q 248 869 250 868 q 242 869 246 871 l 96 808 q 88 807 93 807 q 75 822 75 807 l 75 865 q 88 886 75 879 l 239 967 z "},"2":{"ha":744,"x_min":79,"x_max":664,"o":"m 100 0 q 82 18 82 0 l 82 69 q 90 92 82 82 q 404 478 194 215 q 535 735 535 643 q 485 853 535 808 q 354 897 435 897 q 226 852 275 897 q 179 733 178 807 l 179 694 q 161 676 179 676 l 97 676 q 79 694 79 676 l 79 746 q 159 918 82 853 q 354 983 236 983 q 501 951 438 983 q 600 863 565 919 q 635 736 635 807 q 504 451 635 618 q 274 164 442 369 l 217 94 q 215 89 214 92 q 221 86 217 86 l 646 86 q 664 68 664 86 l 664 18 q 646 0 664 0 l 100 0 z "},"3":{"ha":717,"x_min":69,"x_max":625,"o":"m 597 460 q 625 297 625 392 q 604 164 625 226 q 510 34 576 79 q 347 -11 444 -11 q 179 40 249 -11 q 85 176 110 92 q 69 278 72 219 q 88 296 69 296 l 151 296 q 169 278 169 296 q 178 207 172 231 q 238 111 193 147 q 347 75 282 75 q 448 103 407 75 q 507 185 489 132 q 526 300 526 236 q 501 436 526 382 q 346 536 463 536 q 301 528 324 536 q 292 525 293 525 q 278 533 283 525 l 247 569 q 242 582 242 578 q 247 594 242 586 l 489 878 q 485 886 496 886 l 96 886 q 78 904 78 886 l 78 954 q 96 972 78 972 l 601 972 q 619 954 619 972 l 619 899 q 611 876 619 888 l 388 608 q 386 603 385 606 q 393 600 388 600 q 597 460 544 590 z "},"4":{"ha":765,"x_min":68,"x_max":682,"o":"m 664 357 q 682 339 682 357 l 682 286 q 664 268 682 268 l 610 268 q 603 261 603 268 l 603 18 q 585 0 603 0 l 522 0 q 504 18 504 0 l 504 261 q 497 268 504 268 l 86 268 q 68 286 68 268 l 68 331 q 74 353 68 339 l 354 958 q 376 972 361 972 l 440 972 q 455 967 451 972 q 454 951 458 961 l 182 365 q 182 360 181 363 q 186 357 183 357 l 497 357 q 504 364 504 357 l 504 582 q 522 600 504 600 l 585 600 q 603 582 603 600 l 603 364 q 610 357 603 357 l 664 357 z "},"5":{"ha":714,"x_min":92,"x_max":644,"o":"m 632 425 q 644 300 644 364 q 632 183 644 232 q 538 42 608 94 q 367 -10 467 -10 q 199 40 268 -10 q 104 174 129 90 q 92 229 96 201 l 92 232 q 97 244 92 240 q 110 249 101 249 l 174 249 q 193 231 192 249 q 199 207 193 224 q 257 112 213 147 q 367 76 301 76 q 478 114 433 76 q 536 217 522 151 q 544 299 544 249 q 538 390 544 346 q 482 488 528 454 q 367 521 436 521 q 261 496 307 521 q 199 426 215 471 q 178 411 193 411 l 110 411 q 92 429 92 411 l 92 954 q 110 972 92 972 l 588 972 q 606 954 606 972 l 606 904 q 588 886 606 886 l 197 886 q 190 879 190 886 l 189 547 q 192 541 189 542 q 197 543 194 540 q 279 592 232 575 q 378 608 326 608 q 544 560 476 608 q 632 425 613 513 z "},"6":{"ha":715,"x_min":90,"x_max":646,"o":"m 617 457 q 646 299 646 394 q 624 160 646 213 q 531 35 594 79 q 371 -10 467 -10 q 203 38 271 -10 q 107 171 135 85 q 90 301 90 226 l 90 735 q 165 916 90 849 q 361 983 240 983 q 551 918 479 983 q 624 746 624 853 l 624 731 q 606 713 624 713 l 543 713 q 530 716 535 713 q 525 725 525 719 l 525 738 q 479 853 525 808 q 361 897 433 897 q 238 851 286 897 q 189 728 189 804 l 189 526 q 192 522 189 522 q 197 525 194 521 q 381 606 258 606 q 527 567 468 606 q 617 457 586 528 m 531 193 q 547 299 547 236 q 528 410 547 371 q 469 490 511 461 q 367 519 428 519 q 264 490 306 519 q 206 407 222 460 q 189 294 189 364 q 203 193 189 233 q 262 108 219 140 q 368 76 304 76 q 471 106 428 76 q 531 193 514 136 z "},"7":{"ha":657,"x_min":50,"x_max":626,"o":"m 215 0 q 202 6 206 0 q 201 21 199 11 l 519 878 q 514 886 522 886 l 142 886 q 135 879 135 886 l 135 821 q 117 803 135 803 l 68 803 q 50 821 50 803 l 51 954 q 69 972 51 972 l 608 972 q 626 954 626 972 l 626 897 q 622 875 626 886 l 306 14 q 285 0 301 0 l 215 0 z "},"8":{"ha":721,"x_min":81,"x_max":636,"o":"m 610 408 q 636 272 636 354 q 597 110 636 178 q 502 21 564 53 q 358 -11 440 -11 q 214 22 276 -11 q 118 117 151 56 q 81 274 81 183 q 108 413 81 350 q 201 517 142 482 q 201 525 208 521 q 124 597 153 556 q 82 733 82 657 q 121 869 82 811 q 217 956 156 925 q 358 986 279 986 q 508 953 446 986 q 604 857 571 921 q 635 733 635 803 q 594 601 635 657 q 515 525 563 554 q 515 515 507 519 q 610 408 579 479 m 179 725 q 210 624 179 667 q 268 572 232 590 q 351 551 304 553 l 360 551 q 448 572 410 551 q 511 629 486 593 q 538 726 538 669 q 517 815 538 778 q 453 878 494 856 q 357 901 413 901 q 264 878 304 901 q 201 815 224 856 q 179 725 179 774 m 504 144 q 538 281 538 200 q 521 376 538 329 q 460 453 501 426 q 358 481 418 481 q 200 381 243 481 q 181 278 181 340 q 210 150 181 204 q 358 74 257 74 q 504 144 457 74 z "},"9":{"ha":724,"x_min":78,"x_max":633,"o":"m 617 801 q 633 671 633 746 l 633 238 q 558 56 633 124 q 363 -11 483 -11 q 172 54 244 -11 q 100 226 100 119 l 100 242 q 118 260 100 260 l 181 260 q 194 256 189 260 q 199 247 199 253 l 199 235 q 244 119 199 164 q 363 75 290 75 q 486 122 438 75 q 535 244 535 168 l 535 446 q 532 451 535 450 q 526 447 529 451 q 343 367 467 367 q 197 406 256 367 q 107 515 138 444 q 78 674 78 578 q 100 813 78 760 q 193 938 129 893 q 353 982 257 982 q 521 935 453 982 q 617 801 589 888 m 357 453 q 460 483 418 453 q 518 565 501 513 q 535 678 535 610 q 521 779 535 739 q 462 864 504 832 q 356 896 419 896 q 253 866 296 896 q 193 779 210 836 q 176 674 176 736 q 196 563 176 601 q 254 482 213 511 q 357 453 296 453 z "},"\r":{"ha":278,"x_min":0,"x_max":0,"o":""}," ":{"ha":278,"x_min":0,"x_max":0,"o":""},"A":{"ha":843,"x_min":49,"x_max":793,"o":"m 710 0 q 690 15 694 0 l 635 185 q 628 190 632 190 l 214 190 q 207 185 210 190 l 153 15 q 133 0 149 0 l 67 0 q 53 6 57 0 q 51 21 49 11 l 357 957 q 376 972 361 972 l 465 972 q 485 957 481 972 l 792 21 q 793 14 793 18 q 788 4 793 8 q 776 0 783 0 l 710 0 m 238 279 q 243 271 236 271 l 600 271 q 606 279 608 271 l 425 847 q 421 853 424 853 q 417 847 418 853 l 238 279 z "},"Á":{"ha":843,"x_min":50,"x_max":793,"o":"m 710 0 q 690 15 694 0 l 635 185 q 628 190 632 190 l 214 190 q 207 185 210 190 l 153 15 q 133 0 149 0 l 67 0 q 53 6 57 0 q 51 21 49 11 l 357 957 q 376 972 361 972 l 465 972 q 485 957 481 972 l 792 21 q 793 14 793 18 q 788 4 793 8 q 776 0 783 0 l 710 0 m 238 279 q 243 271 236 271 l 600 271 q 606 279 608 271 l 425 847 q 421 853 424 853 q 417 847 418 853 l 238 279 m 379 1071 q 365 1077 368 1071 q 367 1093 361 1083 l 446 1236 q 467 1249 451 1249 l 526 1249 q 540 1238 540 1249 q 538 1226 540 1231 l 449 1083 q 428 1071 440 1071 l 379 1071 z "},"Ă":{"ha":843,"x_min":50,"x_max":793,"o":"m 710 0 q 690 15 694 0 l 635 185 q 628 190 632 190 l 214 190 q 207 185 210 190 l 153 15 q 133 0 149 0 l 67 0 q 53 6 57 0 q 51 21 49 11 l 357 957 q 376 972 361 972 l 465 972 q 485 957 481 972 l 792 21 q 793 14 793 18 q 788 4 793 8 q 776 0 783 0 l 710 0 m 238 279 q 243 271 236 271 l 600 271 q 606 279 608 271 l 425 847 q 421 853 424 853 q 417 847 418 853 l 238 279 m 419 1044 q 318 1081 361 1044 q 268 1174 275 1118 l 268 1176 q 285 1192 268 1192 l 310 1192 q 328 1175 326 1192 q 360 1119 335 1142 q 419 1097 385 1097 q 478 1119 453 1097 q 510 1175 503 1142 q 528 1192 513 1192 l 554 1192 q 567 1187 563 1192 q 571 1174 572 1182 q 522 1081 565 1118 q 419 1044 478 1044 z "},"Ǎ":{"ha":843,"x_min":50,"x_max":793,"o":"m 710 0 q 690 15 694 0 l 635 185 q 628 190 632 190 l 214 190 q 207 185 210 190 l 153 15 q 133 0 149 0 l 67 0 q 53 6 57 0 q 51 21 49 11 l 357 957 q 376 972 361 972 l 465 972 q 485 957 481 972 l 792 21 q 793 14 793 18 q 788 4 793 8 q 776 0 783 0 l 710 0 m 238 279 q 243 271 236 271 l 600 271 q 606 279 608 271 l 425 847 q 421 853 424 853 q 417 847 418 853 l 238 279 m 382 1046 q 360 1057 368 1046 l 256 1200 q 251 1210 251 1207 q 268 1222 251 1222 l 310 1222 q 332 1211 324 1222 l 414 1100 q 418 1097 415 1097 q 424 1100 421 1097 l 506 1211 q 528 1222 514 1222 l 569 1222 q 585 1211 585 1222 q 581 1200 585 1207 l 476 1057 q 454 1046 468 1046 l 382 1046 z "},"Â":{"ha":843,"x_min":50,"x_max":793,"o":"m 710 0 q 690 15 694 0 l 635 185 q 628 190 632 190 l 214 190 q 207 185 210 190 l 153 15 q 133 0 149 0 l 67 0 q 53 6 57 0 q 51 21 49 11 l 357 957 q 376 972 361 972 l 465 972 q 485 957 481 972 l 792 21 q 793 14 793 18 q 788 4 793 8 q 776 0 783 0 l 710 0 m 238 279 q 243 271 236 271 l 600 271 q 606 279 608 271 l 425 847 q 421 853 424 853 q 417 847 418 853 l 238 279 m 265 1061 q 250 1072 250 1061 q 254 1083 250 1078 l 363 1225 q 385 1236 369 1236 l 450 1236 q 472 1225 465 1236 l 582 1083 q 586 1072 586 1078 q 571 1061 586 1061 l 526 1061 q 504 1072 513 1061 l 424 1183 q 418 1186 421 1186 q 414 1183 415 1186 l 332 1072 q 310 1061 324 1061 l 265 1061 z "},"Ä":{"ha":843,"x_min":50,"x_max":793,"o":"m 710 0 q 690 15 694 0 l 635 185 q 628 190 632 190 l 214 190 q 207 185 210 190 l 153 15 q 133 0 149 0 l 67 0 q 53 6 57 0 q 51 21 49 11 l 357 957 q 376 972 361 972 l 465 972 q 485 957 481 972 l 792 21 q 793 14 793 18 q 788 4 793 8 q 776 0 783 0 l 710 0 m 238 279 q 243 271 236 271 l 600 271 q 606 279 608 271 l 425 847 q 421 853 424 853 q 417 847 418 853 l 238 279 m 304 1103 q 256 1121 275 1103 q 238 1167 238 1139 q 256 1213 238 1194 q 304 1232 275 1232 q 350 1213 332 1232 q 368 1167 368 1194 q 350 1121 368 1139 q 304 1103 332 1103 m 538 1103 q 490 1121 508 1103 q 472 1167 472 1139 q 490 1213 472 1194 q 538 1232 508 1232 q 585 1213 567 1232 q 603 1167 603 1194 q 585 1121 603 1139 q 538 1103 567 1103 z "},"À":{"ha":843,"x_min":50,"x_max":793,"o":"m 710 0 q 690 15 694 0 l 635 185 q 628 190 632 190 l 214 190 q 207 185 210 190 l 153 15 q 133 0 149 0 l 67 0 q 53 6 57 0 q 51 21 49 11 l 357 957 q 376 972 361 972 l 465 972 q 485 957 481 972 l 792 21 q 793 14 793 18 q 788 4 793 8 q 776 0 783 0 l 710 0 m 238 279 q 243 271 236 271 l 600 271 q 606 279 608 271 l 425 847 q 421 853 424 853 q 417 847 418 853 l 238 279 m 449 1093 q 451 1083 451 1085 q 447 1074 451 1078 q 436 1071 443 1071 l 388 1071 q 367 1083 375 1071 l 278 1226 q 275 1238 275 1231 q 289 1249 275 1249 l 349 1249 q 369 1236 363 1249 l 449 1093 z "},"Ā":{"ha":843,"x_min":50,"x_max":793,"o":"m 710 0 q 690 15 694 0 l 635 185 q 628 190 632 190 l 214 190 q 207 185 210 190 l 153 15 q 133 0 149 0 l 67 0 q 53 6 57 0 q 51 21 49 11 l 357 957 q 376 972 361 972 l 465 972 q 485 957 481 972 l 792 21 q 793 14 793 18 q 788 4 793 8 q 776 0 783 0 l 710 0 m 238 279 q 243 271 236 271 l 600 271 q 606 279 608 271 l 425 847 q 421 853 424 853 q 417 847 418 853 l 238 279 m 251 1094 q 233 1113 233 1094 l 233 1147 q 251 1165 233 1165 l 589 1165 q 607 1147 607 1165 l 607 1113 q 589 1094 607 1094 l 251 1094 z "},"Ą":{"ha":879,"x_min":50,"x_max":811,"o":"m 710 0 q 690 15 694 0 l 635 185 q 628 190 632 190 l 214 190 q 207 185 210 190 l 153 15 q 133 0 149 0 l 67 0 q 53 6 57 0 q 51 21 49 11 l 357 957 q 376 972 361 972 l 465 972 q 485 957 481 972 l 792 21 q 793 14 793 18 q 788 4 793 8 q 776 0 783 0 l 710 0 m 238 279 q 243 271 236 271 l 600 271 q 606 279 608 271 l 425 847 q 421 853 424 853 q 417 847 418 853 l 238 279 m 811 -235 q 797 -251 811 -247 q 743 -258 769 -258 q 667 -239 700 -258 q 624 -175 635 -219 q 619 -144 619 -161 q 700 -8 619 -72 q 722 0 708 0 l 749 0 q 764 -10 764 0 q 757 -22 764 -15 q 692 -131 692 -81 q 693 -147 692 -142 q 761 -197 703 -197 q 786 -194 769 -197 l 792 -193 q 807 -208 804 -193 l 811 -231 l 811 -235 z "},"Å":{"ha":843,"x_min":50,"x_max":793,"o":"m 710 0 q 690 15 694 0 l 635 185 q 628 190 632 190 l 214 190 q 207 185 210 190 l 153 15 q 133 0 149 0 l 67 0 q 53 6 57 0 q 51 21 49 11 l 357 957 q 376 972 361 972 l 465 972 q 485 957 481 972 l 792 21 q 793 14 793 18 q 788 4 793 8 q 776 0 783 0 l 710 0 m 238 279 q 243 271 236 271 l 600 271 q 606 279 608 271 l 425 847 q 421 853 424 853 q 417 847 418 853 l 238 279 m 419 1060 q 316 1101 358 1060 q 274 1203 274 1143 q 316 1303 274 1263 q 419 1344 358 1344 q 522 1303 481 1344 q 564 1203 564 1263 q 522 1101 564 1143 q 419 1060 481 1060 m 419 1114 q 483 1140 457 1114 q 508 1203 508 1165 q 482 1266 508 1240 q 419 1292 456 1292 q 356 1266 382 1292 q 329 1203 329 1240 q 356 1140 329 1165 q 419 1114 382 1114 z "},"Ã":{"ha":843,"x_min":50,"x_max":793,"o":"m 710 0 q 690 15 694 0 l 635 185 q 628 190 632 190 l 214 190 q 207 185 210 190 l 153 15 q 133 0 149 0 l 67 0 q 53 6 57 0 q 51 21 49 11 l 357 957 q 376 972 361 972 l 465 972 q 485 957 481 972 l 792 21 q 793 14 793 18 q 788 4 793 8 q 776 0 783 0 l 710 0 m 238 279 q 243 271 236 271 l 600 271 q 606 279 608 271 l 425 847 q 421 853 424 853 q 417 847 418 853 l 238 279 m 510 1092 q 466 1101 486 1092 q 424 1125 446 1110 q 389 1147 401 1140 q 361 1153 376 1153 q 326 1146 340 1153 q 296 1119 311 1139 q 281 1110 286 1110 q 269 1114 275 1110 l 250 1128 q 242 1139 243 1132 q 244 1153 240 1146 q 356 1222 286 1222 q 396 1215 378 1222 q 440 1190 414 1207 q 478 1168 464 1175 q 508 1161 493 1161 q 574 1199 549 1161 q 599 1204 583 1213 l 619 1192 q 628 1178 628 1186 q 619 1157 628 1169 q 567 1108 597 1124 q 510 1092 538 1092 z "},"Æ":{"ha":1279,"x_min":50,"x_max":1199,"o":"m 1199 904 q 1181 886 1199 886 l 713 886 q 706 879 706 886 l 706 539 q 713 532 706 532 l 1028 532 q 1046 514 1046 532 l 1046 464 q 1028 446 1046 446 l 713 446 q 706 439 706 446 l 706 93 q 713 86 706 86 l 1181 86 q 1199 68 1199 86 l 1199 18 q 1181 0 1199 0 l 625 0 q 607 18 607 0 l 607 183 q 600 190 607 190 l 258 190 q 250 185 251 190 l 161 13 q 139 0 156 0 l 68 0 q 53 6 57 0 q 56 21 50 11 l 550 960 q 571 972 557 972 l 1181 972 q 1199 954 1199 972 l 1199 904 m 300 279 q 306 271 296 271 l 600 271 q 607 278 607 271 l 607 850 q 604 856 607 856 q 599 853 601 857 l 300 279 z "},"B":{"ha":871,"x_min":131,"x_max":771,"o":"m 621 507 q 621 499 613 503 q 733 408 694 468 q 771 264 771 349 q 691 69 771 139 q 481 0 611 0 l 149 0 q 131 18 131 0 l 131 954 q 149 972 131 972 l 471 972 q 683 906 606 972 q 760 718 760 839 q 724 589 760 642 q 621 507 689 536 m 236 886 q 229 879 229 886 l 229 549 q 236 542 229 542 l 471 542 q 610 588 558 542 q 663 710 663 633 q 610 838 663 790 q 471 886 558 886 l 236 886 m 481 88 q 620 138 568 88 q 672 272 672 188 q 619 408 672 357 q 475 458 565 458 l 236 458 q 229 451 229 458 l 229 94 q 236 88 229 88 l 481 88 z "},"C":{"ha":843,"x_min":100,"x_max":753,"o":"m 426 -12 q 256 26 329 -12 q 141 134 182 64 q 100 296 100 204 l 100 678 q 141 838 100 768 q 256 945 182 907 q 426 983 329 983 q 597 946 524 983 q 712 840 671 908 q 753 683 753 772 q 735 668 753 671 l 672 664 l 668 664 q 658 667 663 664 q 654 672 654 669 l 654 681 q 592 838 654 779 q 426 897 529 897 q 261 838 324 897 q 199 681 199 778 l 199 292 q 261 135 199 194 q 426 75 324 75 q 592 134 529 75 q 654 292 654 193 q 672 307 654 308 l 735 304 q 753 297 753 304 l 753 290 q 712 131 753 200 q 597 25 671 63 q 426 -12 524 -12 z "},"Ć":{"ha":843,"x_min":100,"x_max":753,"o":"m 426 -12 q 256 26 329 -12 q 141 134 182 64 q 100 296 100 204 l 100 678 q 141 838 100 768 q 256 945 182 907 q 426 983 329 983 q 597 946 524 983 q 712 840 671 908 q 753 683 753 772 q 735 668 753 671 l 672 664 l 668 664 q 658 667 663 664 q 654 672 654 669 l 654 681 q 592 838 654 779 q 426 897 529 897 q 261 838 324 897 q 199 681 199 778 l 199 292 q 261 135 199 194 q 426 75 324 75 q 592 134 529 75 q 654 292 654 193 q 672 307 654 308 l 735 304 q 753 297 753 304 l 753 290 q 712 131 753 200 q 597 25 671 63 q 426 -12 524 -12 m 386 1082 q 372 1088 375 1082 q 374 1104 368 1094 l 453 1247 q 474 1260 458 1260 l 533 1260 q 547 1249 547 1260 q 544 1238 547 1242 l 456 1094 q 435 1082 447 1082 l 386 1082 z "},"Č":{"ha":843,"x_min":100,"x_max":753,"o":"m 426 -12 q 256 26 329 -12 q 141 134 182 64 q 100 296 100 204 l 100 678 q 141 838 100 768 q 256 945 182 907 q 426 983 329 983 q 597 946 524 983 q 712 840 671 908 q 753 683 753 772 q 735 668 753 671 l 672 664 l 668 664 q 658 667 663 664 q 654 672 654 669 l 654 681 q 592 838 654 779 q 426 897 529 897 q 261 838 324 897 q 199 681 199 778 l 199 292 q 261 135 199 194 q 426 75 324 75 q 592 134 529 75 q 654 292 654 193 q 672 307 654 308 l 735 304 q 753 297 753 304 l 753 290 q 712 131 753 200 q 597 25 671 63 q 426 -12 524 -12 m 389 1068 q 367 1079 375 1068 l 264 1221 q 260 1232 260 1228 q 275 1243 260 1243 l 317 1243 q 339 1232 331 1243 l 421 1121 q 426 1118 424 1118 q 431 1121 429 1118 l 513 1232 q 535 1243 521 1243 l 576 1243 q 592 1232 592 1243 q 588 1221 592 1228 l 483 1079 q 461 1068 475 1068 l 389 1068 z "},"Ç":{"ha":843,"x_min":100,"x_max":753,"o":"m 753 676 q 735 668 753 671 l 672 664 l 668 664 q 658 667 663 664 q 654 672 654 669 l 654 681 q 592 838 654 779 q 426 897 529 897 q 261 838 324 897 q 199 681 199 778 l 199 292 q 261 135 199 194 q 426 75 324 75 q 592 134 529 75 q 654 292 654 193 q 672 307 654 308 l 735 304 q 753 297 753 304 l 753 290 q 712 131 753 200 q 597 25 671 63 q 426 -12 524 -12 q 431 -21 422 -12 q 497 -146 497 -82 q 493 -176 497 -162 q 449 -240 482 -221 q 374 -260 417 -260 q 319 -253 347 -260 q 306 -232 303 -249 l 310 -210 q 331 -196 311 -192 q 356 -199 347 -199 q 406 -183 386 -199 q 425 -132 425 -167 q 339 -6 425 -72 q 334 -2 336 -3 q 331 -1 332 -1 q 162 103 224 25 q 100 296 100 182 l 100 678 q 141 838 100 768 q 256 945 182 907 q 426 983 329 983 q 597 946 524 983 q 712 840 671 908 q 753 683 753 772 l 753 676 z "},"Ċ":{"ha":843,"x_min":100,"x_max":753,"o":"m 426 -12 q 256 26 329 -12 q 141 134 182 64 q 100 296 100 204 l 100 678 q 141 838 100 768 q 256 945 182 907 q 426 983 329 983 q 597 946 524 983 q 712 840 671 908 q 753 683 753 772 q 735 668 753 671 l 672 664 l 668 664 q 658 667 663 664 q 654 672 654 669 l 654 681 q 592 838 654 779 q 426 897 529 897 q 261 838 324 897 q 199 681 199 778 l 199 292 q 261 135 199 194 q 426 75 324 75 q 592 134 529 75 q 654 292 654 193 q 672 307 654 308 l 735 304 q 753 297 753 304 l 753 290 q 712 131 753 200 q 597 25 671 63 q 426 -12 524 -12 m 426 1094 q 381 1112 399 1094 q 363 1156 363 1129 q 381 1199 363 1182 q 426 1217 399 1217 q 469 1199 453 1217 q 486 1156 486 1182 q 469 1112 486 1129 q 426 1094 453 1094 z "},"D":{"ha":858,"x_min":131,"x_max":772,"o":"m 149 0 q 131 18 131 0 l 131 954 q 149 972 131 972 l 472 972 q 691 900 610 972 q 772 704 772 828 l 772 268 q 691 72 772 144 q 472 0 610 0 l 149 0 m 229 93 q 236 86 229 86 l 476 86 q 620 139 567 86 q 674 281 674 192 l 674 690 q 621 833 674 781 q 476 886 568 886 l 236 886 q 229 879 229 886 l 229 93 z "},"Ð":{"ha":949,"x_min":131,"x_max":863,"o":"m 563 972 q 781 900 700 972 q 863 704 863 828 l 863 268 q 781 72 863 144 q 563 0 700 0 l 239 0 q 221 18 221 0 l 221 463 q 214 469 221 469 l 149 469 q 131 488 131 469 l 131 524 q 149 542 131 542 l 214 542 q 221 549 221 542 l 221 954 q 239 972 221 972 l 563 972 m 764 690 q 711 833 764 781 q 567 886 658 886 l 326 886 q 319 879 319 886 l 319 549 q 326 542 319 542 l 486 542 q 504 524 504 542 l 504 488 q 486 469 504 469 l 326 469 q 319 463 319 469 l 319 93 q 326 86 319 86 l 567 86 q 710 139 657 86 q 764 281 764 192 l 764 690 z "},"Ď":{"ha":858,"x_min":131,"x_max":772,"o":"m 149 0 q 131 18 131 0 l 131 954 q 149 972 131 972 l 472 972 q 691 900 610 972 q 772 704 772 828 l 772 268 q 691 72 772 144 q 472 0 610 0 l 149 0 m 229 93 q 236 86 229 86 l 476 86 q 620 139 567 86 q 674 281 674 192 l 674 690 q 621 833 674 781 q 476 886 568 886 l 236 886 q 229 879 229 886 l 229 93 m 394 1053 q 372 1064 381 1053 l 268 1207 q 264 1217 264 1214 q 281 1229 264 1229 l 322 1229 q 344 1218 336 1229 l 426 1107 q 431 1104 428 1104 q 436 1107 433 1104 l 518 1218 q 540 1229 526 1229 l 582 1229 q 597 1218 597 1229 q 593 1207 597 1214 l 489 1064 q 467 1053 481 1053 l 394 1053 z "},"Đ":{"ha":949,"x_min":131,"x_max":863,"o":"m 563 972 q 781 900 700 972 q 863 704 863 828 l 863 268 q 781 72 863 144 q 563 0 700 0 l 239 0 q 221 18 221 0 l 221 463 q 214 469 221 469 l 149 469 q 131 488 131 469 l 131 524 q 149 542 131 542 l 214 542 q 221 549 221 542 l 221 954 q 239 972 221 972 l 563 972 m 764 690 q 711 833 764 781 q 567 886 658 886 l 326 886 q 319 879 319 886 l 319 549 q 326 542 319 542 l 486 542 q 504 524 504 542 l 504 488 q 486 469 504 469 l 326 469 q 319 463 319 469 l 319 93 q 326 86 319 86 l 567 86 q 710 139 657 86 q 764 281 764 192 l 764 690 z "},"E":{"ha":840,"x_min":131,"x_max":760,"o":"m 760 904 q 742 886 760 886 l 236 886 q 229 879 229 886 l 229 539 q 236 532 229 532 l 589 532 q 607 514 607 532 l 607 464 q 589 446 607 446 l 236 446 q 229 439 229 446 l 229 93 q 236 86 229 86 l 742 86 q 760 68 760 86 l 760 18 q 742 0 760 0 l 149 0 q 131 18 131 0 l 131 954 q 149 972 131 972 l 742 972 q 760 954 760 972 l 760 904 z "},"É":{"ha":840,"x_min":131,"x_max":760,"o":"m 760 904 q 742 886 760 886 l 236 886 q 229 879 229 886 l 229 539 q 236 532 229 532 l 589 532 q 607 514 607 532 l 607 464 q 589 446 607 446 l 236 446 q 229 439 229 446 l 229 93 q 236 86 229 86 l 742 86 q 760 68 760 86 l 760 18 q 742 0 760 0 l 149 0 q 131 18 131 0 l 131 954 q 149 972 131 972 l 742 972 q 760 954 760 972 l 760 904 m 399 1086 q 384 1092 388 1086 q 386 1108 381 1099 l 465 1251 q 486 1264 471 1264 l 546 1264 q 560 1253 560 1264 q 557 1242 560 1246 l 468 1099 q 447 1086 460 1086 l 399 1086 z "},"Ě":{"ha":840,"x_min":131,"x_max":760,"o":"m 760 904 q 742 886 760 886 l 236 886 q 229 879 229 886 l 229 539 q 236 532 229 532 l 589 532 q 607 514 607 532 l 607 464 q 589 446 607 446 l 236 446 q 229 439 229 446 l 229 93 q 236 86 229 86 l 742 86 q 760 68 760 86 l 760 18 q 742 0 760 0 l 149 0 q 131 18 131 0 l 131 954 q 149 972 131 972 l 742 972 q 760 954 760 972 l 760 904 m 401 1072 q 379 1083 388 1072 l 276 1225 q 272 1236 272 1232 q 288 1247 272 1247 l 329 1247 q 351 1236 343 1247 l 433 1125 q 439 1122 436 1122 q 443 1125 442 1122 l 525 1236 q 547 1247 533 1247 l 589 1247 q 604 1236 604 1247 q 600 1225 604 1232 l 496 1083 q 474 1072 488 1072 l 401 1072 z "},"Ȩ":{"ha":840,"x_min":131,"x_max":760,"o":"m 760 904 q 742 886 760 886 l 236 886 q 229 879 229 886 l 229 539 q 236 532 229 532 l 589 532 q 607 514 607 532 l 607 464 q 589 446 607 446 l 236 446 q 229 439 229 446 l 229 93 q 236 86 229 86 l 742 86 q 760 68 760 86 l 760 18 q 742 0 760 0 l 496 0 q 491 -3 492 0 q 493 -8 490 -6 q 560 -133 560 -69 q 556 -164 560 -150 q 512 -228 544 -208 q 436 -247 479 -247 q 382 -240 410 -247 q 368 -219 365 -236 l 372 -197 q 393 -183 374 -179 q 418 -186 410 -186 q 468 -170 449 -186 q 488 -121 488 -154 q 414 -3 488 -67 q 406 0 408 0 l 149 0 q 131 18 131 0 l 131 954 q 149 972 131 972 l 742 972 q 760 954 760 972 l 760 904 z "},"Ê":{"ha":840,"x_min":131,"x_max":760,"o":"m 760 904 q 742 886 760 886 l 236 886 q 229 879 229 886 l 229 539 q 236 532 229 532 l 589 532 q 607 514 607 532 l 607 464 q 589 446 607 446 l 236 446 q 229 439 229 446 l 229 93 q 236 86 229 86 l 742 86 q 760 68 760 86 l 760 18 q 742 0 760 0 l 149 0 q 131 18 131 0 l 131 954 q 149 972 131 972 l 742 972 q 760 954 760 972 l 760 904 m 285 1076 q 269 1088 269 1076 q 274 1099 269 1093 l 382 1240 q 404 1251 389 1251 l 469 1251 q 492 1240 485 1251 l 601 1099 q 606 1088 606 1093 q 590 1076 606 1076 l 546 1076 q 524 1088 532 1076 l 443 1199 q 438 1201 440 1201 q 433 1199 435 1201 l 351 1088 q 329 1076 343 1076 l 285 1076 z "},"Ë":{"ha":840,"x_min":131,"x_max":760,"o":"m 760 904 q 742 886 760 886 l 236 886 q 229 879 229 886 l 229 539 q 236 532 229 532 l 589 532 q 607 514 607 532 l 607 464 q 589 446 607 446 l 236 446 q 229 439 229 446 l 229 93 q 236 86 229 86 l 742 86 q 760 68 760 86 l 760 18 q 742 0 760 0 l 149 0 q 131 18 131 0 l 131 954 q 149 972 131 972 l 742 972 q 760 954 760 972 l 760 904 m 324 1118 q 276 1136 294 1118 q 257 1182 257 1154 q 276 1228 257 1210 q 324 1247 294 1247 q 369 1228 351 1247 q 388 1182 388 1210 q 369 1136 388 1154 q 324 1118 351 1118 m 557 1118 q 510 1136 528 1118 q 492 1182 492 1154 q 510 1228 492 1210 q 557 1247 528 1247 q 604 1228 586 1247 q 622 1182 622 1210 q 604 1136 622 1154 q 557 1118 586 1118 z "},"Ė":{"ha":840,"x_min":131,"x_max":760,"o":"m 760 904 q 742 886 760 886 l 236 886 q 229 879 229 886 l 229 539 q 236 532 229 532 l 589 532 q 607 514 607 532 l 607 464 q 589 446 607 446 l 236 446 q 229 439 229 446 l 229 93 q 236 86 229 86 l 742 86 q 760 68 760 86 l 760 18 q 742 0 760 0 l 149 0 q 131 18 131 0 l 131 954 q 149 972 131 972 l 742 972 q 760 954 760 972 l 760 904 m 439 1099 q 393 1116 411 1099 q 375 1160 375 1133 q 393 1203 375 1186 q 439 1221 411 1221 q 482 1203 465 1221 q 499 1160 499 1186 q 482 1116 499 1133 q 439 1099 465 1099 z "},"È":{"ha":840,"x_min":131,"x_max":760,"o":"m 760 904 q 742 886 760 886 l 236 886 q 229 879 229 886 l 229 539 q 236 532 229 532 l 589 532 q 607 514 607 532 l 607 464 q 589 446 607 446 l 236 446 q 229 439 229 446 l 229 93 q 236 86 229 86 l 742 86 q 760 68 760 86 l 760 18 q 742 0 760 0 l 149 0 q 131 18 131 0 l 131 954 q 149 972 131 972 l 742 972 q 760 954 760 972 l 760 904 m 468 1108 q 471 1099 471 1100 q 467 1090 471 1093 q 456 1086 463 1086 l 407 1086 q 386 1099 394 1086 l 297 1242 q 294 1253 294 1246 q 308 1264 294 1264 l 368 1264 q 389 1251 382 1264 l 468 1108 z "},"Ē":{"ha":840,"x_min":131,"x_max":760,"o":"m 760 904 q 742 886 760 886 l 236 886 q 229 879 229 886 l 229 539 q 236 532 229 532 l 589 532 q 607 514 607 532 l 607 464 q 589 446 607 446 l 236 446 q 229 439 229 446 l 229 93 q 236 86 229 86 l 742 86 q 760 68 760 86 l 760 18 q 742 0 760 0 l 149 0 q 131 18 131 0 l 131 954 q 149 972 131 972 l 742 972 q 760 954 760 972 l 760 904 m 271 1110 q 253 1128 253 1110 l 253 1163 q 271 1181 253 1181 l 608 1181 q 626 1163 626 1181 l 626 1128 q 608 1110 626 1110 l 271 1110 z "},"Ę":{"ha":840,"x_min":131,"x_max":760,"o":"m 760 904 q 742 886 760 886 l 236 886 q 229 879 229 886 l 229 539 q 236 532 229 532 l 589 532 q 607 514 607 532 l 607 464 q 589 446 607 446 l 236 446 q 229 439 229 446 l 229 93 q 236 86 229 86 l 742 86 q 760 68 760 86 l 760 18 q 742 0 760 0 l 486 0 q 478 -3 483 0 q 404 -121 404 -67 q 424 -169 404 -153 q 474 -186 443 -186 q 499 -183 482 -186 l 504 -182 q 519 -197 517 -182 l 524 -219 l 524 -224 q 510 -240 524 -236 q 456 -247 482 -247 q 380 -228 413 -247 q 336 -164 347 -208 q 332 -133 332 -150 q 399 -8 332 -69 q 401 -3 401 -6 q 396 0 400 0 l 149 0 q 131 18 131 0 l 131 954 q 149 972 131 972 l 742 972 q 760 954 760 972 l 760 904 z "},"F":{"ha":789,"x_min":131,"x_max":758,"o":"m 758 904 q 740 886 758 886 l 236 886 q 229 879 229 886 l 229 539 q 236 532 229 532 l 588 532 q 606 514 606 532 l 606 464 q 588 446 606 446 l 236 446 q 229 439 229 446 l 229 18 q 211 0 229 0 l 149 0 q 131 18 131 0 l 131 954 q 149 972 131 972 l 740 972 q 758 954 758 972 l 758 904 z "},"G":{"ha":842,"x_min":100,"x_max":751,"o":"m 426 -11 q 256 27 329 -11 q 141 135 182 65 q 100 294 100 204 l 100 678 q 141 838 100 768 q 256 945 182 907 q 426 983 329 983 q 597 946 522 983 q 711 841 671 908 q 751 689 751 774 l 751 675 q 733 657 751 657 l 671 657 q 653 672 653 657 l 653 688 q 591 839 653 781 q 426 897 529 897 q 261 838 324 897 q 199 681 199 778 l 199 292 q 263 135 199 194 q 431 75 326 75 q 592 131 532 75 q 653 279 653 186 l 653 404 q 646 411 653 411 l 447 411 q 429 429 429 411 l 429 479 q 447 497 429 497 l 733 497 q 751 479 751 497 l 751 304 q 663 72 751 156 q 426 -11 575 -11 z "},"Ğ":{"ha":842,"x_min":100,"x_max":751,"o":"m 426 -11 q 256 27 329 -11 q 141 135 182 65 q 100 294 100 204 l 100 678 q 141 838 100 768 q 256 945 182 907 q 426 983 329 983 q 597 946 522 983 q 711 841 671 908 q 751 689 751 774 l 751 675 q 733 657 751 657 l 671 657 q 653 672 653 657 l 653 688 q 591 839 653 781 q 426 897 529 897 q 261 838 324 897 q 199 681 199 778 l 199 292 q 263 135 199 194 q 431 75 326 75 q 592 131 532 75 q 653 279 653 186 l 653 404 q 646 411 653 411 l 447 411 q 429 429 429 411 l 429 479 q 447 497 429 497 l 733 497 q 751 479 751 497 l 751 304 q 663 72 751 156 q 426 -11 575 -11 m 425 1056 q 324 1092 367 1056 q 274 1185 281 1129 l 274 1188 q 290 1203 274 1203 l 315 1203 q 333 1186 332 1203 q 365 1131 340 1153 q 425 1108 390 1108 q 483 1131 458 1108 q 515 1186 508 1153 q 533 1203 518 1203 l 560 1203 q 573 1198 568 1203 q 576 1185 578 1193 q 527 1092 571 1129 q 425 1056 483 1056 z "},"Ġ":{"ha":842,"x_min":100,"x_max":751,"o":"m 426 -11 q 256 27 329 -11 q 141 135 182 65 q 100 294 100 204 l 100 678 q 141 838 100 768 q 256 945 182 907 q 426 983 329 983 q 597 946 522 983 q 711 841 671 908 q 751 689 751 774 l 751 675 q 733 657 751 657 l 671 657 q 653 672 653 657 l 653 688 q 591 839 653 781 q 426 897 529 897 q 261 838 324 897 q 199 681 199 778 l 199 292 q 263 135 199 194 q 431 75 326 75 q 592 131 532 75 q 653 279 653 186 l 653 404 q 646 411 653 411 l 447 411 q 429 429 429 411 l 429 479 q 447 497 429 497 l 733 497 q 751 479 751 497 l 751 304 q 663 72 751 156 q 426 -11 575 -11 m 425 1094 q 379 1112 397 1094 q 361 1156 361 1129 q 379 1199 361 1182 q 425 1217 397 1217 q 468 1199 451 1217 q 485 1156 485 1182 q 468 1112 485 1129 q 425 1094 451 1094 z "},"H":{"ha":908,"x_min":131,"x_max":782,"o":"m 683 954 q 701 972 683 972 l 764 972 q 782 954 782 972 l 782 18 q 764 0 782 0 l 701 0 q 683 18 683 0 l 683 439 q 676 446 683 446 l 236 446 q 229 439 229 446 l 229 18 q 211 0 229 0 l 149 0 q 131 18 131 0 l 131 954 q 149 972 131 972 l 211 972 q 229 954 229 972 l 229 539 q 236 532 229 532 l 676 532 q 683 539 683 532 l 683 954 z "},"Ħ":{"ha":908,"x_min":46,"x_max":867,"o":"m 849 776 q 867 758 867 776 l 867 724 q 849 706 867 706 l 789 706 q 782 699 782 706 l 782 18 q 764 0 782 0 l 701 0 q 683 18 683 0 l 683 439 q 676 446 683 446 l 236 446 q 229 439 229 446 l 229 18 q 211 0 229 0 l 149 0 q 131 18 131 0 l 131 699 q 124 706 131 706 l 64 706 q 46 724 46 706 l 46 758 q 64 776 46 776 l 124 776 q 131 783 131 776 l 131 954 q 149 972 131 972 l 211 972 q 229 954 229 972 l 229 783 q 236 776 229 776 l 676 776 q 683 783 683 776 l 683 954 q 701 972 683 972 l 764 972 q 782 954 782 972 l 782 783 q 789 776 782 776 l 849 776 m 676 532 q 683 539 683 532 l 683 699 q 676 706 683 706 l 236 706 q 229 699 229 706 l 229 539 q 236 532 229 532 l 676 532 z "},"I":{"ha":360,"x_min":131,"x_max":229,"o":"m 149 0 q 131 18 131 0 l 131 954 q 149 972 131 972 l 211 972 q 229 954 229 972 l 229 18 q 211 0 229 0 l 149 0 z "},"Í":{"ha":360,"x_min":124,"x_max":300,"o":"m 149 0 q 131 18 131 0 l 131 954 q 149 972 131 972 l 211 972 q 229 954 229 972 l 229 18 q 211 0 229 0 l 149 0 m 139 1086 q 124 1092 128 1086 q 126 1108 121 1099 l 206 1251 q 226 1264 211 1264 l 286 1264 q 300 1253 300 1264 q 297 1242 300 1246 l 208 1099 q 188 1086 200 1086 l 139 1086 z "},"Î":{"ha":360,"x_min":10,"x_max":346,"o":"m 149 0 q 131 18 131 0 l 131 954 q 149 972 131 972 l 211 972 q 229 954 229 972 l 229 18 q 211 0 229 0 l 149 0 m 25 1076 q 10 1088 10 1076 q 14 1099 10 1093 l 122 1240 q 144 1251 129 1251 l 210 1251 q 232 1240 225 1251 l 342 1099 q 346 1088 346 1093 q 331 1076 346 1076 l 286 1076 q 264 1088 272 1076 l 183 1199 q 178 1201 181 1201 q 174 1199 175 1201 l 92 1088 q 69 1076 83 1076 l 25 1076 z "},"Ï":{"ha":360,"x_min":-4,"x_max":361,"o":"m 149 0 q 131 18 131 0 l 131 954 q 149 972 131 972 l 211 972 q 229 954 229 972 l 229 18 q 211 0 229 0 l 149 0 m 63 1118 q 15 1136 33 1118 q -4 1182 -4 1154 q 15 1228 -4 1210 q 63 1247 33 1247 q 108 1228 90 1247 q 126 1182 126 1210 q 108 1136 126 1154 q 63 1118 90 1118 m 296 1118 q 249 1136 267 1118 q 231 1182 231 1154 q 249 1228 231 1210 q 296 1247 267 1247 q 343 1228 325 1247 q 361 1182 361 1210 q 343 1136 361 1154 q 296 1118 325 1118 z "},"İ":{"ha":360,"x_min":115,"x_max":239,"o":"m 149 0 q 131 18 131 0 l 131 954 q 149 972 131 972 l 211 972 q 229 954 229 972 l 229 18 q 211 0 229 0 l 149 0 m 179 1099 q 133 1116 151 1099 q 115 1160 115 1133 q 133 1203 115 1186 q 179 1221 151 1221 q 222 1203 206 1221 q 239 1160 239 1186 q 222 1116 239 1133 q 179 1099 206 1099 z "},"Ì":{"ha":360,"x_min":35,"x_max":229,"o":"m 149 0 q 131 18 131 0 l 131 954 q 149 972 131 972 l 211 972 q 229 954 229 972 l 229 18 q 211 0 229 0 l 149 0 m 208 1108 q 211 1099 211 1100 q 207 1090 211 1093 q 196 1086 203 1086 l 147 1086 q 126 1099 135 1086 l 38 1242 q 35 1253 35 1246 q 49 1264 35 1264 l 108 1264 q 129 1251 122 1264 l 208 1108 z "},"Ī":{"ha":360,"x_min":-7,"x_max":367,"o":"m 149 0 q 131 18 131 0 l 131 954 q 149 972 131 972 l 211 972 q 229 954 229 972 l 229 18 q 211 0 229 0 l 149 0 m 11 1110 q -7 1128 -7 1110 l -7 1163 q 11 1181 -7 1181 l 349 1181 q 367 1163 367 1181 l 367 1128 q 349 1110 367 1110 l 11 1110 z "},"Į":{"ha":456,"x_min":131,"x_max":322,"o":"m 215 0 q 197 18 197 0 l 197 954 q 215 972 197 972 l 278 972 q 296 954 296 972 l 296 18 q 278 0 296 0 l 215 0 m 322 -235 q 308 -251 322 -247 q 254 -258 281 -258 q 178 -239 211 -258 q 135 -175 146 -219 q 131 -144 131 -161 q 211 -8 131 -72 q 233 0 219 0 l 260 0 q 275 -10 275 0 q 268 -22 275 -15 q 203 -131 203 -81 q 204 -147 203 -142 q 272 -197 214 -197 q 297 -194 281 -197 l 303 -193 q 318 -208 315 -193 l 322 -231 l 322 -235 z "},"J":{"ha":806,"x_min":40,"x_max":675,"o":"m 357 -11 q 191 25 263 -11 q 80 127 119 61 q 40 279 40 193 l 40 343 q 58 361 40 361 l 121 361 q 139 343 139 361 l 139 279 q 199 131 139 188 q 357 75 260 75 q 516 131 456 75 q 576 279 576 188 l 576 954 q 594 972 576 972 l 657 972 q 675 954 675 972 l 675 279 q 635 127 675 193 q 524 25 596 61 q 357 -11 451 -11 z "},"K":{"ha":849,"x_min":131,"x_max":808,"o":"m 149 0 q 131 18 131 0 l 131 954 q 149 972 131 972 l 211 972 q 229 954 229 972 l 229 490 q 232 485 229 486 q 238 488 235 483 l 674 963 q 696 972 682 972 l 765 972 q 781 961 781 972 q 775 950 781 956 l 440 571 q 439 561 436 565 l 804 22 q 808 11 808 17 q 793 0 808 0 l 721 0 q 699 11 707 0 l 372 490 q 363 492 367 499 l 232 354 q 229 344 229 349 l 229 18 q 211 0 229 0 l 149 0 z "},"L":{"ha":789,"x_min":131,"x_max":739,"o":"m 149 0 q 131 18 131 0 l 131 954 q 149 972 131 972 l 211 972 q 229 954 229 972 l 229 93 q 236 86 229 86 l 721 86 q 739 68 739 86 l 739 18 q 721 0 739 0 l 149 0 z "},"Ĺ":{"ha":789,"x_min":124,"x_max":739,"o":"m 149 0 q 131 18 131 0 l 131 954 q 149 972 131 972 l 211 972 q 229 954 229 972 l 229 93 q 236 86 229 86 l 721 86 q 739 68 739 86 l 739 18 q 721 0 739 0 l 149 0 m 139 1071 q 124 1077 128 1071 q 126 1093 121 1083 l 206 1236 q 226 1249 211 1249 l 286 1249 q 300 1238 300 1249 q 297 1226 300 1231 l 208 1083 q 188 1071 200 1071 l 139 1071 z "},"Ľ":{"ha":789,"x_min":11,"x_max":739,"o":"m 149 0 q 131 18 131 0 l 131 954 q 149 972 131 972 l 211 972 q 229 954 229 972 l 229 93 q 236 86 229 86 l 721 86 q 739 68 739 86 l 739 18 q 721 0 739 0 l 149 0 m 142 1046 q 119 1057 128 1046 l 15 1200 q 11 1210 11 1207 q 28 1222 11 1222 l 69 1222 q 92 1211 83 1222 l 174 1100 q 178 1097 175 1097 q 183 1100 181 1097 l 265 1211 q 288 1222 274 1222 l 329 1222 q 344 1211 344 1222 q 340 1200 344 1207 l 236 1057 q 214 1046 228 1046 l 142 1046 z "},"Ļ":{"ha":789,"x_min":131,"x_max":739,"o":"m 149 0 q 131 18 131 0 l 131 954 q 149 972 131 972 l 211 972 q 229 954 229 972 l 229 93 q 236 86 229 86 l 721 86 q 739 68 739 86 l 739 18 q 721 0 739 0 l 149 0 z "},"Ł":{"ha":789,"x_min":-71,"x_max":739,"o":"m 229 93 q 236 86 229 86 l 721 86 q 739 68 739 86 l 739 18 q 721 0 739 0 l 149 0 q 131 18 131 0 l 131 338 q 128 343 131 342 q 122 342 125 344 l -14 240 q -25 236 -19 236 q -39 243 -32 236 l -67 276 q -71 288 -71 283 q -62 301 -71 296 l 126 444 q 131 453 131 447 l 131 954 q 149 972 131 972 l 211 972 q 229 954 229 972 l 229 533 q 232 528 229 529 q 238 529 235 526 l 546 760 q 557 764 553 764 q 571 757 564 764 l 597 724 q 601 713 601 718 q 593 699 601 706 l 233 426 q 229 418 229 425 l 229 93 z "},"M":{"ha":988,"x_min":131,"x_max":857,"o":"m 149 0 q 131 18 131 0 l 131 954 q 149 972 131 972 l 214 972 q 235 960 226 972 l 489 558 q 497 558 493 550 l 753 960 q 774 972 761 972 l 839 972 q 857 954 857 972 l 857 18 q 839 0 857 0 l 776 0 q 758 18 758 0 l 758 785 q 756 790 758 790 q 750 786 753 790 l 531 439 q 510 426 522 426 l 478 426 q 457 439 465 426 l 238 786 q 232 790 235 790 q 229 785 229 790 l 229 18 q 211 0 229 0 l 149 0 z "},"N":{"ha":935,"x_min":131,"x_max":806,"o":"m 149 0 q 131 18 131 0 l 131 954 q 149 972 131 972 l 211 972 q 232 960 224 972 l 699 204 q 704 201 701 200 q 707 207 707 201 l 707 954 q 725 972 707 972 l 788 972 q 806 954 806 972 l 806 18 q 788 0 806 0 l 725 0 q 704 13 713 0 l 236 771 q 231 774 233 775 q 228 768 228 774 l 229 18 q 211 0 229 0 l 149 0 z "},"Ń":{"ha":935,"x_min":131,"x_max":806,"o":"m 149 0 q 131 18 131 0 l 131 954 q 149 972 131 972 l 211 972 q 232 960 224 972 l 699 204 q 704 201 701 200 q 707 207 707 201 l 707 954 q 725 972 707 972 l 788 972 q 806 954 806 972 l 806 18 q 788 0 806 0 l 725 0 q 704 13 713 0 l 236 771 q 231 774 233 775 q 228 768 228 774 l 229 18 q 211 0 229 0 l 149 0 m 425 1086 q 410 1092 414 1086 q 413 1108 407 1099 l 492 1251 q 513 1264 497 1264 l 572 1264 q 586 1253 586 1264 q 583 1242 586 1246 l 494 1099 q 474 1086 486 1086 l 425 1086 z "},"Ň":{"ha":935,"x_min":131,"x_max":806,"o":"m 149 0 q 131 18 131 0 l 131 954 q 149 972 131 972 l 211 972 q 232 960 224 972 l 699 204 q 704 201 701 200 q 707 207 707 201 l 707 954 q 725 972 707 972 l 788 972 q 806 954 806 972 l 806 18 q 788 0 806 0 l 725 0 q 704 13 713 0 l 236 771 q 231 774 233 775 q 228 768 228 774 l 229 18 q 211 0 229 0 l 149 0 m 428 1072 q 406 1083 414 1072 l 303 1225 q 299 1236 299 1232 q 314 1247 299 1247 l 356 1247 q 378 1236 369 1247 l 460 1125 q 465 1122 463 1122 q 469 1125 468 1122 l 551 1236 q 574 1247 560 1247 l 615 1247 q 631 1236 631 1247 q 626 1225 631 1232 l 522 1083 q 500 1072 514 1072 l 428 1072 z "},"Ŋ":{"ha":939,"x_min":131,"x_max":808,"o":"m 806 781 q 806 776 806 778 q 807 774 807 774 l 808 774 l 808 10 q 759 -163 808 -110 q 585 -218 710 -217 q 567 -200 567 -218 l 567 -151 q 585 -133 567 -133 q 679 -100 651 -132 q 710 -1 707 -68 q 707 7 710 1 l 236 771 q 231 774 233 775 q 228 768 228 774 l 229 18 q 211 0 229 0 l 149 0 q 131 18 131 0 l 131 954 q 149 972 131 972 l 211 972 q 232 960 224 972 l 699 204 q 704 201 701 200 q 707 207 707 201 l 707 954 q 725 972 707 972 l 788 972 q 806 954 806 972 l 806 781 z "},"Ñ":{"ha":935,"x_min":131,"x_max":806,"o":"m 149 0 q 131 18 131 0 l 131 954 q 149 972 131 972 l 211 972 q 232 960 224 972 l 699 204 q 704 201 701 200 q 707 207 707 201 l 707 954 q 725 972 707 972 l 788 972 q 806 954 806 972 l 806 18 q 788 0 806 0 l 725 0 q 704 13 713 0 l 236 771 q 231 774 233 775 q 228 768 228 774 l 229 18 q 211 0 229 0 l 149 0 m 556 1107 q 512 1116 532 1107 q 469 1140 492 1125 q 435 1162 447 1156 q 407 1168 422 1168 q 372 1161 386 1168 q 342 1135 357 1154 q 326 1125 332 1125 q 315 1129 321 1125 l 296 1143 q 288 1154 289 1147 q 290 1168 286 1161 q 401 1238 332 1238 q 442 1230 424 1238 q 486 1206 460 1222 q 524 1183 510 1190 q 554 1176 539 1176 q 619 1214 594 1176 q 644 1219 629 1228 l 665 1207 q 674 1193 674 1201 q 665 1172 674 1185 q 613 1123 643 1139 q 556 1107 583 1107 z "},"O":{"ha":864,"x_min":100,"x_max":763,"o":"m 431 -11 q 257 29 332 -11 q 141 142 182 69 q 100 311 100 215 l 100 661 q 141 830 100 757 q 257 943 182 903 q 431 983 332 983 q 605 943 529 983 q 722 830 681 903 q 763 661 763 757 l 763 311 q 722 142 763 215 q 605 29 681 69 q 431 -11 529 -11 m 431 74 q 600 138 536 74 q 664 307 664 201 l 664 663 q 600 833 664 768 q 431 897 536 897 q 263 833 326 897 q 199 663 199 768 l 199 307 q 263 138 199 201 q 431 74 326 74 z "},"Ó":{"ha":864,"x_min":100,"x_max":763,"o":"m 431 -11 q 257 29 332 -11 q 141 142 182 69 q 100 311 100 215 l 100 661 q 141 830 100 757 q 257 943 182 903 q 431 983 332 983 q 605 943 529 983 q 722 830 681 903 q 763 661 763 757 l 763 311 q 722 142 763 215 q 605 29 681 69 q 431 -11 529 -11 m 431 74 q 600 138 536 74 q 664 307 664 201 l 664 663 q 600 833 664 768 q 431 897 536 897 q 263 833 326 897 q 199 663 199 768 l 199 307 q 263 138 199 201 q 431 74 326 74 m 390 1082 q 376 1088 379 1082 q 378 1104 372 1094 l 457 1247 q 478 1260 463 1260 l 538 1260 q 551 1249 551 1260 q 549 1238 551 1242 l 460 1094 q 439 1082 451 1082 l 390 1082 z "},"Ô":{"ha":864,"x_min":100,"x_max":763,"o":"m 431 -11 q 257 29 332 -11 q 141 142 182 69 q 100 311 100 215 l 100 661 q 141 830 100 757 q 257 943 182 903 q 431 983 332 983 q 605 943 529 983 q 722 830 681 903 q 763 661 763 757 l 763 311 q 722 142 763 215 q 605 29 681 69 q 431 -11 529 -11 m 431 74 q 600 138 536 74 q 664 307 664 201 l 664 663 q 600 833 664 768 q 431 897 536 897 q 263 833 326 897 q 199 663 199 768 l 199 307 q 263 138 199 201 q 431 74 326 74 m 276 1072 q 261 1083 261 1072 q 265 1094 261 1089 l 374 1236 q 396 1247 381 1247 l 461 1247 q 483 1236 476 1247 l 593 1094 q 597 1083 597 1089 q 582 1072 597 1072 l 538 1072 q 515 1083 524 1072 l 435 1194 q 429 1197 432 1197 q 425 1194 426 1197 l 343 1083 q 321 1072 335 1072 l 276 1072 z "},"Ö":{"ha":864,"x_min":100,"x_max":763,"o":"m 431 -11 q 257 29 332 -11 q 141 142 182 69 q 100 311 100 215 l 100 661 q 141 830 100 757 q 257 943 182 903 q 431 983 332 983 q 605 943 529 983 q 722 830 681 903 q 763 661 763 757 l 763 311 q 722 142 763 215 q 605 29 681 69 q 431 -11 529 -11 m 431 74 q 600 138 536 74 q 664 307 664 201 l 664 663 q 600 833 664 768 q 431 897 536 897 q 263 833 326 897 q 199 663 199 768 l 199 307 q 263 138 199 201 q 431 74 326 74 m 315 1114 q 267 1132 286 1114 q 249 1178 249 1150 q 267 1224 249 1206 q 315 1243 286 1243 q 361 1224 343 1243 q 379 1178 379 1206 q 361 1132 379 1150 q 315 1114 343 1114 m 549 1114 q 501 1132 519 1114 q 483 1178 483 1150 q 501 1224 483 1206 q 549 1243 519 1243 q 596 1224 578 1243 q 614 1178 614 1206 q 596 1132 614 1150 q 549 1114 578 1114 z "},"Ò":{"ha":864,"x_min":100,"x_max":763,"o":"m 431 -11 q 257 29 332 -11 q 141 142 182 69 q 100 311 100 215 l 100 661 q 141 830 100 757 q 257 943 182 903 q 431 983 332 983 q 605 943 529 983 q 722 830 681 903 q 763 661 763 757 l 763 311 q 722 142 763 215 q 605 29 681 69 q 431 -11 529 -11 m 431 74 q 600 138 536 74 q 664 307 664 201 l 664 663 q 600 833 664 768 q 431 897 536 897 q 263 833 326 897 q 199 663 199 768 l 199 307 q 263 138 199 201 q 431 74 326 74 m 460 1104 q 463 1094 463 1096 q 458 1085 463 1089 q 447 1082 454 1082 l 399 1082 q 378 1094 386 1082 l 289 1238 q 286 1249 286 1242 q 300 1260 286 1260 l 360 1260 q 381 1247 374 1260 l 460 1104 z "},"Ő":{"ha":864,"x_min":100,"x_max":763,"o":"m 431 -11 q 257 29 332 -11 q 141 142 182 69 q 100 311 100 215 l 100 661 q 141 830 100 757 q 257 943 182 903 q 431 983 332 983 q 605 943 529 983 q 722 830 681 903 q 763 661 763 757 l 763 311 q 722 142 763 215 q 605 29 681 69 q 431 -11 529 -11 m 431 74 q 600 138 536 74 q 664 307 664 201 l 664 663 q 600 833 664 768 q 431 897 536 897 q 263 833 326 897 q 199 663 199 768 l 199 307 q 263 138 199 201 q 431 74 326 74 m 290 1079 q 277 1085 281 1079 q 278 1100 274 1090 l 351 1244 q 374 1257 357 1257 l 428 1257 q 442 1251 439 1257 q 440 1235 446 1244 l 361 1092 q 340 1079 354 1079 l 290 1079 m 518 1079 q 503 1085 507 1079 q 504 1100 499 1090 l 582 1244 q 603 1257 588 1257 l 654 1257 q 669 1251 665 1257 q 667 1235 672 1244 l 586 1092 q 565 1079 579 1079 l 518 1079 z "},"Ō":{"ha":864,"x_min":100,"x_max":763,"o":"m 431 -11 q 257 29 332 -11 q 141 142 182 69 q 100 311 100 215 l 100 661 q 141 830 100 757 q 257 943 182 903 q 431 983 332 983 q 605 943 529 983 q 722 830 681 903 q 763 661 763 757 l 763 311 q 722 142 763 215 q 605 29 681 69 q 431 -11 529 -11 m 431 74 q 600 138 536 74 q 664 307 664 201 l 664 663 q 600 833 664 768 q 431 897 536 897 q 263 833 326 897 q 199 663 199 768 l 199 307 q 263 138 199 201 q 431 74 326 74 m 263 1106 q 244 1124 244 1106 l 244 1158 q 263 1176 244 1176 l 600 1176 q 618 1158 618 1176 l 618 1124 q 600 1106 618 1106 l 263 1106 z "},"Ø":{"ha":871,"x_min":107,"x_max":769,"o":"m 656 922 q 658 913 653 917 q 740 805 711 869 q 769 661 769 740 l 769 311 q 728 142 769 215 q 612 29 688 69 q 438 -11 536 -11 q 244 40 326 -11 q 240 42 243 43 q 236 38 238 40 l 199 -40 q 176 -54 192 -54 l 136 -54 q 122 -49 126 -54 q 122 -33 118 -43 l 179 88 q 178 97 182 93 q 107 311 107 186 l 107 661 q 148 830 107 757 q 264 943 189 903 q 438 983 339 983 q 585 956 518 983 q 593 958 592 953 l 622 1021 q 644 1035 629 1035 l 686 1035 q 701 1029 697 1035 q 700 1014 704 1024 l 656 922 m 206 307 q 226 203 206 249 q 231 199 228 199 q 235 203 233 199 l 549 867 q 546 875 550 872 q 438 897 500 897 q 269 833 333 897 q 206 663 206 768 l 206 307 m 671 663 q 617 821 671 760 q 612 823 615 824 q 607 819 608 822 l 282 135 q 283 125 279 129 q 438 74 343 74 q 607 138 543 74 q 671 307 671 201 l 671 663 z "},"Õ":{"ha":864,"x_min":100,"x_max":763,"o":"m 431 -11 q 257 29 332 -11 q 141 142 182 69 q 100 311 100 215 l 100 661 q 141 830 100 757 q 257 943 182 903 q 431 983 332 983 q 605 943 529 983 q 722 830 681 903 q 763 661 763 757 l 763 311 q 722 142 763 215 q 605 29 681 69 q 431 -11 529 -11 m 431 74 q 600 138 536 74 q 664 307 664 201 l 664 663 q 600 833 664 768 q 431 897 536 897 q 263 833 326 897 q 199 663 199 768 l 199 307 q 263 138 199 201 q 431 74 326 74 m 521 1103 q 477 1112 497 1103 q 435 1136 457 1121 q 400 1158 413 1151 q 372 1164 388 1164 q 337 1157 351 1164 q 307 1131 322 1150 q 292 1121 297 1121 q 281 1125 286 1121 l 261 1139 q 253 1150 254 1143 q 256 1164 251 1157 q 367 1233 297 1233 q 407 1226 389 1233 q 451 1201 425 1218 q 490 1179 475 1186 q 519 1172 504 1172 q 585 1210 560 1172 q 610 1215 594 1224 l 631 1203 q 639 1189 639 1197 q 631 1168 639 1181 q 578 1119 608 1135 q 521 1103 549 1103 z "},"Œ":{"ha":1278,"x_min":100,"x_max":1197,"o":"m 1197 904 q 1179 886 1197 886 l 731 886 q 724 879 724 886 l 724 539 q 731 532 724 532 l 1026 532 q 1044 514 1044 532 l 1044 464 q 1026 446 1044 446 l 731 446 q 724 439 724 446 l 724 93 q 731 86 724 86 l 1179 86 q 1197 68 1197 86 l 1197 18 q 1179 0 1197 0 l 643 0 q 625 18 625 0 l 625 79 q 622 85 625 83 q 617 82 619 86 q 517 13 575 38 q 390 -11 458 -11 q 241 28 307 -11 q 138 135 175 67 q 100 290 100 203 l 100 681 q 138 837 100 768 q 241 944 175 906 q 390 983 307 983 q 517 959 458 983 q 617 890 575 935 q 622 888 619 886 q 625 893 625 889 l 625 954 q 643 972 625 972 l 1179 972 q 1197 954 1197 972 l 1197 904 m 411 74 q 566 134 507 74 q 625 288 625 194 l 625 682 q 566 837 625 776 q 411 897 507 897 q 258 837 317 897 q 199 682 199 776 l 199 288 q 258 134 199 194 q 411 74 317 74 z "},"P":{"ha":822,"x_min":121,"x_max":771,"o":"m 500 974 q 697 899 622 974 q 771 701 771 824 q 695 507 771 581 q 496 433 619 433 l 226 433 q 219 426 219 433 l 219 18 q 201 0 219 0 l 139 0 q 121 18 121 0 l 121 956 q 139 974 121 974 l 500 974 m 489 515 q 622 566 571 515 q 674 700 674 617 q 622 836 674 785 q 489 888 571 888 l 226 888 q 219 881 219 888 l 219 522 q 226 515 219 515 l 489 515 z "},"Þ":{"ha":788,"x_min":121,"x_max":738,"o":"m 465 754 q 663 680 588 754 q 738 485 738 606 q 702 345 738 406 q 604 251 667 285 q 463 218 542 218 l 226 218 q 219 211 219 218 l 219 18 q 201 0 219 0 l 139 0 q 121 18 121 0 l 121 954 q 139 972 121 972 l 201 972 q 219 954 219 972 l 219 761 q 226 754 219 754 l 465 754 m 456 300 q 589 350 539 300 q 639 483 639 400 q 589 618 639 568 q 456 668 539 668 l 226 668 q 219 661 219 668 l 219 307 q 226 300 219 300 l 456 300 z "},"Q":{"ha":800,"x_min":81,"x_max":719,"o":"m 400 983 q 567 944 494 983 q 680 833 640 904 q 719 669 719 763 l 719 297 q 648 91 719 174 q 457 -7 576 8 q 450 -15 450 -10 l 450 -142 q 432 -160 450 -160 l 369 -160 q 351 -142 351 -160 l 351 -15 q 344 -7 351 -10 q 152 91 224 8 q 81 297 81 174 l 81 669 q 120 833 81 763 q 233 944 160 904 q 400 983 306 983 m 621 674 q 560 835 621 774 q 400 897 499 897 q 240 835 301 897 q 179 674 179 774 l 179 299 q 240 137 179 199 q 400 75 301 75 q 560 137 499 75 q 621 299 621 199 l 621 674 z "},"R":{"ha":850,"x_min":131,"x_max":782,"o":"m 701 0 q 679 14 686 0 l 476 442 q 468 447 474 447 l 236 447 q 229 440 229 447 l 229 18 q 211 0 229 0 l 149 0 q 131 18 131 0 l 131 956 q 149 974 131 974 l 504 974 q 697 900 624 974 q 771 707 771 826 q 719 542 771 610 q 576 454 667 475 q 572 446 569 453 l 779 21 q 782 13 782 15 q 765 0 782 0 l 701 0 m 236 888 q 229 881 229 888 l 229 533 q 236 526 229 526 l 493 526 q 624 576 574 526 q 674 706 674 625 q 624 837 674 786 q 493 888 574 888 l 236 888 z "},"Ŕ":{"ha":850,"x_min":131,"x_max":782,"o":"m 701 0 q 679 14 686 0 l 476 442 q 468 447 474 447 l 236 447 q 229 440 229 447 l 229 18 q 211 0 229 0 l 149 0 q 131 18 131 0 l 131 956 q 149 974 131 974 l 504 974 q 697 900 624 974 q 771 707 771 826 q 719 542 771 610 q 576 454 667 475 q 572 446 569 453 l 779 21 q 782 13 782 15 q 765 0 782 0 l 701 0 m 236 888 q 229 881 229 888 l 229 533 q 236 526 229 526 l 493 526 q 624 576 574 526 q 674 706 674 625 q 624 837 674 786 q 493 888 574 888 l 236 888 m 374 1071 q 359 1077 363 1071 q 361 1093 356 1083 l 440 1236 q 461 1249 446 1249 l 521 1249 q 535 1238 535 1249 q 532 1226 535 1231 l 443 1083 q 422 1071 435 1071 l 374 1071 z "},"Ř":{"ha":850,"x_min":131,"x_max":782,"o":"m 701 0 q 679 14 686 0 l 476 442 q 468 447 474 447 l 236 447 q 229 440 229 447 l 229 18 q 211 0 229 0 l 149 0 q 131 18 131 0 l 131 956 q 149 974 131 974 l 504 974 q 697 900 624 974 q 771 707 771 826 q 719 542 771 610 q 576 454 667 475 q 572 446 569 453 l 779 21 q 782 13 782 15 q 765 0 782 0 l 701 0 m 236 888 q 229 881 229 888 l 229 533 q 236 526 229 526 l 493 526 q 624 576 574 526 q 674 706 674 625 q 624 837 674 786 q 493 888 574 888 l 236 888 m 376 1057 q 354 1068 363 1057 l 251 1210 q 247 1221 247 1217 q 263 1232 247 1232 l 304 1232 q 326 1221 318 1232 l 408 1110 q 414 1107 411 1107 q 418 1110 417 1107 l 500 1221 q 522 1232 508 1232 l 564 1232 q 579 1221 579 1232 q 575 1210 579 1217 l 471 1068 q 449 1057 463 1057 l 376 1057 z "},"S":{"ha":814,"x_min":79,"x_max":738,"o":"m 414 -11 q 237 21 313 -11 q 120 112 161 53 q 79 249 79 171 l 79 288 q 97 306 79 306 l 157 306 q 175 288 175 306 l 175 254 q 242 125 175 175 q 421 75 308 75 q 583 120 528 75 q 639 240 639 165 q 613 324 639 289 q 535 389 588 358 q 383 460 482 419 q 222 533 279 501 q 128 613 164 564 q 93 738 93 663 q 174 919 93 854 q 399 983 256 983 q 640 911 551 983 q 729 719 729 839 l 729 693 q 711 675 729 675 l 650 675 q 632 693 632 675 l 632 714 q 569 846 632 794 q 393 897 507 897 q 242 857 294 897 q 190 740 190 817 q 216 658 190 690 q 290 601 242 625 q 436 538 338 576 q 600 460 538 496 q 700 372 663 424 q 738 244 738 319 q 652 59 738 129 q 414 -11 567 -11 z "},"Ś":{"ha":814,"x_min":79,"x_max":738,"o":"m 414 -11 q 237 21 313 -11 q 120 112 161 53 q 79 249 79 171 l 79 288 q 97 306 79 306 l 157 306 q 175 288 175 306 l 175 254 q 242 125 175 175 q 421 75 308 75 q 583 120 528 75 q 639 240 639 165 q 613 324 639 289 q 535 389 588 358 q 383 460 482 419 q 222 533 279 501 q 128 613 164 564 q 93 738 93 663 q 174 919 93 854 q 399 983 256 983 q 640 911 551 983 q 729 719 729 839 l 729 693 q 711 675 729 675 l 650 675 q 632 693 632 675 l 632 714 q 569 846 632 794 q 393 897 507 897 q 242 857 294 897 q 190 740 190 817 q 216 658 190 690 q 290 601 242 625 q 436 538 338 576 q 600 460 538 496 q 700 372 663 424 q 738 244 738 319 q 652 59 738 129 q 414 -11 567 -11 m 360 1082 q 345 1088 349 1082 q 347 1104 342 1094 l 426 1247 q 447 1260 432 1260 l 507 1260 q 521 1249 521 1260 q 518 1238 521 1242 l 429 1094 q 408 1082 421 1082 l 360 1082 z "},"Š":{"ha":814,"x_min":79,"x_max":738,"o":"m 414 -11 q 237 21 313 -11 q 120 112 161 53 q 79 249 79 171 l 79 288 q 97 306 79 306 l 157 306 q 175 288 175 306 l 175 254 q 242 125 175 175 q 421 75 308 75 q 583 120 528 75 q 639 240 639 165 q 613 324 639 289 q 535 389 588 358 q 383 460 482 419 q 222 533 279 501 q 128 613 164 564 q 93 738 93 663 q 174 919 93 854 q 399 983 256 983 q 640 911 551 983 q 729 719 729 839 l 729 693 q 711 675 729 675 l 650 675 q 632 693 632 675 l 632 714 q 569 846 632 794 q 393 897 507 897 q 242 857 294 897 q 190 740 190 817 q 216 658 190 690 q 290 601 242 625 q 436 538 338 576 q 600 460 538 496 q 700 372 663 424 q 738 244 738 319 q 652 59 738 129 q 414 -11 567 -11 m 363 1068 q 340 1079 349 1068 l 238 1221 q 233 1232 233 1228 q 249 1243 233 1243 l 290 1243 q 313 1232 304 1243 l 394 1121 q 400 1118 397 1118 q 404 1121 403 1118 l 486 1232 q 508 1243 494 1243 l 550 1243 q 565 1232 565 1243 q 561 1221 565 1228 l 457 1079 q 435 1068 449 1068 l 363 1068 z "},"Ş":{"ha":814,"x_min":79,"x_max":738,"o":"m 738 244 q 663 68 738 136 q 456 -10 589 0 q 449 -14 450 -11 q 453 -19 449 -17 q 519 -143 519 -78 q 515 -175 519 -161 q 472 -239 504 -219 q 396 -258 439 -258 q 342 -251 369 -258 q 328 -231 325 -247 l 332 -208 q 353 -194 333 -190 q 378 -197 369 -197 q 428 -181 408 -197 q 447 -132 447 -165 q 372 -12 447 -78 q 364 -10 367 -10 q 156 72 232 3 q 79 249 79 142 l 79 288 q 97 306 79 306 l 157 306 q 175 288 175 306 l 175 254 q 242 125 175 175 q 421 75 308 75 q 583 120 528 75 q 639 240 639 165 q 613 324 639 289 q 535 389 588 358 q 383 460 482 419 q 222 533 279 501 q 128 613 164 564 q 93 738 93 663 q 174 919 93 854 q 399 983 256 983 q 640 911 551 983 q 729 719 729 839 l 729 693 q 711 675 729 675 l 650 675 q 632 693 632 675 l 632 714 q 569 846 632 794 q 393 897 507 897 q 242 857 294 897 q 190 740 190 817 q 216 658 190 690 q 290 601 242 625 q 436 538 338 576 q 600 460 538 496 q 700 372 663 424 q 738 244 738 319 z "},"T":{"ha":790,"x_min":60,"x_max":731,"o":"m 713 972 q 731 954 731 972 l 731 903 q 713 885 731 885 l 446 885 q 439 878 439 885 l 439 18 q 421 0 439 0 l 358 0 q 340 18 340 0 l 340 878 q 333 885 340 885 l 78 885 q 60 903 60 885 l 60 954 q 78 972 60 972 l 713 972 z "},"Ŧ":{"ha":833,"x_min":60,"x_max":731,"o":"m 731 903 q 713 885 731 885 l 446 885 q 439 878 439 885 l 439 589 q 446 582 439 582 l 593 582 q 611 564 611 582 l 611 535 q 593 517 611 517 l 446 517 q 439 510 439 517 l 439 18 q 421 0 439 0 l 358 0 q 340 18 340 0 l 340 510 q 333 517 340 517 l 189 517 q 171 535 171 517 l 171 564 q 189 582 171 582 l 333 582 q 340 589 340 582 l 340 878 q 333 885 340 885 l 78 885 q 60 903 60 885 l 60 954 q 78 972 60 972 l 713 972 q 731 954 731 972 l 731 903 z "},"Ť":{"ha":790,"x_min":60,"x_max":731,"o":"m 713 972 q 731 954 731 972 l 731 903 q 713 885 731 885 l 446 885 q 439 878 439 885 l 439 18 q 421 0 439 0 l 358 0 q 340 18 340 0 l 340 878 q 333 885 340 885 l 78 885 q 60 903 60 885 l 60 954 q 78 972 60 972 l 713 972 m 353 1046 q 331 1057 339 1046 l 226 1200 q 222 1210 222 1207 q 239 1222 222 1222 l 281 1222 q 303 1211 294 1222 l 385 1100 q 389 1097 386 1097 q 394 1100 392 1097 l 476 1211 q 499 1222 485 1222 l 540 1222 q 556 1211 556 1222 q 551 1200 556 1207 l 447 1057 q 425 1046 439 1046 l 353 1046 z "},"U":{"ha":900,"x_min":119,"x_max":781,"o":"m 450 -11 q 278 28 353 -11 q 161 137 203 67 q 119 300 119 207 l 119 954 q 138 972 119 972 l 200 972 q 218 954 218 972 l 218 297 q 282 137 218 199 q 450 75 346 75 q 618 137 554 75 q 682 297 682 199 l 682 954 q 700 972 682 972 l 763 972 q 781 954 781 972 l 781 300 q 740 137 781 207 q 624 28 699 67 q 450 -11 549 -11 z "},"Ú":{"ha":900,"x_min":119,"x_max":781,"o":"m 450 -11 q 278 28 353 -11 q 161 137 203 67 q 119 300 119 207 l 119 954 q 138 972 119 972 l 200 972 q 218 954 218 972 l 218 297 q 282 137 218 199 q 450 75 346 75 q 618 137 554 75 q 682 297 682 199 l 682 954 q 700 972 682 972 l 763 972 q 781 954 781 972 l 781 300 q 740 137 781 207 q 624 28 699 67 q 450 -11 549 -11 m 410 1088 q 395 1094 399 1088 q 397 1110 392 1100 l 476 1253 q 497 1265 482 1265 l 557 1265 q 571 1254 571 1265 q 568 1243 571 1247 l 479 1100 q 458 1088 471 1088 l 410 1088 z "},"Û":{"ha":900,"x_min":119,"x_max":781,"o":"m 450 -11 q 278 28 353 -11 q 161 137 203 67 q 119 300 119 207 l 119 954 q 138 972 119 972 l 200 972 q 218 954 218 972 l 218 297 q 282 137 218 199 q 450 75 346 75 q 618 137 554 75 q 682 297 682 199 l 682 954 q 700 972 682 972 l 763 972 q 781 954 781 972 l 781 300 q 740 137 781 207 q 624 28 699 67 q 450 -11 549 -11 m 296 1078 q 281 1089 281 1078 q 285 1100 281 1094 l 393 1242 q 415 1253 400 1253 l 481 1253 q 503 1242 496 1253 l 613 1100 q 617 1089 617 1094 q 601 1078 617 1078 l 557 1078 q 535 1089 543 1078 l 454 1200 q 449 1203 451 1203 q 444 1200 446 1203 l 363 1089 q 340 1078 354 1078 l 296 1078 z "},"Ü":{"ha":900,"x_min":119,"x_max":781,"o":"m 450 -11 q 278 28 353 -11 q 161 137 203 67 q 119 300 119 207 l 119 954 q 138 972 119 972 l 200 972 q 218 954 218 972 l 218 297 q 282 137 218 199 q 450 75 346 75 q 618 137 554 75 q 682 297 682 199 l 682 954 q 700 972 682 972 l 763 972 q 781 954 781 972 l 781 300 q 740 137 781 207 q 624 28 699 67 q 450 -11 549 -11 m 335 1119 q 287 1138 306 1119 q 268 1183 268 1156 q 287 1230 268 1211 q 335 1249 306 1249 q 381 1230 363 1249 q 399 1183 399 1211 q 381 1138 399 1156 q 335 1119 363 1119 m 568 1119 q 521 1138 539 1119 q 503 1183 503 1156 q 521 1230 503 1211 q 568 1249 539 1249 q 615 1230 597 1249 q 633 1183 633 1211 q 615 1138 633 1156 q 568 1119 597 1119 z "},"Ù":{"ha":900,"x_min":119,"x_max":781,"o":"m 450 -11 q 278 28 353 -11 q 161 137 203 67 q 119 300 119 207 l 119 954 q 138 972 119 972 l 200 972 q 218 954 218 972 l 218 297 q 282 137 218 199 q 450 75 346 75 q 618 137 554 75 q 682 297 682 199 l 682 954 q 700 972 682 972 l 763 972 q 781 954 781 972 l 781 300 q 740 137 781 207 q 624 28 699 67 q 450 -11 549 -11 m 479 1110 q 482 1100 482 1101 q 478 1091 482 1094 q 467 1088 474 1088 l 418 1088 q 397 1100 406 1088 l 308 1243 q 306 1254 306 1247 q 319 1265 306 1265 l 379 1265 q 400 1253 393 1265 l 479 1110 z "},"Ű":{"ha":900,"x_min":119,"x_max":781,"o":"m 450 -11 q 278 28 353 -11 q 161 137 203 67 q 119 300 119 207 l 119 954 q 138 972 119 972 l 200 972 q 218 954 218 972 l 218 297 q 282 137 218 199 q 450 75 346 75 q 618 137 554 75 q 682 297 682 199 l 682 954 q 700 972 682 972 l 763 972 q 781 954 781 972 l 781 300 q 740 137 781 207 q 624 28 699 67 q 450 -11 549 -11 m 310 1085 q 297 1090 300 1085 q 297 1106 293 1096 l 371 1250 q 393 1263 376 1263 l 447 1263 q 462 1256 458 1263 q 460 1240 465 1250 l 381 1097 q 360 1085 374 1085 l 310 1085 m 538 1085 q 522 1090 526 1085 q 524 1106 518 1096 l 601 1250 q 622 1263 607 1263 l 674 1263 q 688 1256 685 1263 q 686 1240 692 1250 l 606 1097 q 585 1085 599 1085 l 538 1085 z "},"Ū":{"ha":900,"x_min":119,"x_max":781,"o":"m 450 -11 q 278 28 353 -11 q 161 137 203 67 q 119 300 119 207 l 119 954 q 138 972 119 972 l 200 972 q 218 954 218 972 l 218 297 q 282 137 218 199 q 450 75 346 75 q 618 137 554 75 q 682 297 682 199 l 682 954 q 700 972 682 972 l 763 972 q 781 954 781 972 l 781 300 q 740 137 781 207 q 624 28 699 67 q 450 -11 549 -11 m 282 1111 q 264 1129 264 1111 l 264 1164 q 282 1182 264 1182 l 619 1182 q 638 1164 638 1182 l 638 1129 q 619 1111 638 1111 l 282 1111 z "},"Ų":{"ha":900,"x_min":119,"x_max":781,"o":"m 682 954 q 700 972 682 972 l 763 972 q 781 954 781 972 l 781 300 q 699 83 781 167 q 482 -10 618 0 q 472 -12 478 -10 q 411 -119 411 -71 q 413 -136 411 -131 q 481 -186 422 -186 q 506 -183 489 -186 l 511 -182 q 526 -197 524 -182 l 531 -219 l 531 -224 q 517 -240 531 -236 q 463 -247 489 -247 q 387 -228 419 -247 q 343 -164 354 -208 q 339 -133 339 -150 q 396 -15 339 -74 q 393 -7 403 -8 q 194 92 269 8 q 119 300 119 175 l 119 954 q 138 972 119 972 l 200 972 q 218 954 218 972 l 218 297 q 282 137 218 199 q 450 75 346 75 q 618 137 554 75 q 682 297 682 199 l 682 954 z "},"Ů":{"ha":900,"x_min":119,"x_max":781,"o":"m 450 -11 q 278 28 353 -11 q 161 137 203 67 q 119 300 119 207 l 119 954 q 138 972 119 972 l 200 972 q 218 954 218 972 l 218 297 q 282 137 218 199 q 450 75 346 75 q 618 137 554 75 q 682 297 682 199 l 682 954 q 700 972 682 972 l 763 972 q 781 954 781 972 l 781 300 q 740 137 781 207 q 624 28 699 67 q 450 -11 549 -11 m 450 1076 q 347 1118 389 1076 q 304 1219 304 1160 q 347 1320 304 1279 q 450 1361 389 1361 q 553 1320 511 1361 q 594 1219 594 1279 q 553 1118 594 1160 q 450 1076 511 1076 m 450 1131 q 513 1156 488 1131 q 539 1219 539 1182 q 513 1283 539 1257 q 450 1308 486 1308 q 386 1283 413 1308 q 360 1219 360 1257 q 386 1156 360 1182 q 450 1131 413 1131 z "},"V":{"ha":818,"x_min":50,"x_max":769,"o":"m 372 0 q 353 15 357 0 l 51 951 q 50 958 50 954 q 55 968 50 964 q 67 972 60 972 l 133 972 q 153 957 149 972 l 406 150 q 410 144 407 144 q 414 150 413 144 l 667 957 q 686 972 671 972 l 751 972 q 765 967 761 972 q 767 951 769 961 l 463 15 q 443 0 458 0 l 372 0 z "},"W":{"ha":1211,"x_min":35,"x_max":1178,"o":"m 319 0 q 300 15 304 0 l 36 951 l 35 957 q 51 972 35 972 l 119 972 q 139 957 135 972 l 347 204 q 351 200 349 200 q 356 204 354 200 l 550 957 q 571 972 554 972 l 638 972 q 657 957 653 972 l 860 203 q 864 199 861 199 q 868 203 867 199 l 1076 957 q 1096 972 1081 972 l 1160 972 q 1174 967 1169 972 q 1175 951 1178 961 l 915 15 q 896 0 911 0 l 829 0 q 808 15 813 0 l 608 788 q 604 792 607 792 q 600 788 601 792 l 403 15 q 382 0 399 0 l 319 0 z "},"Ẃ":{"ha":1211,"x_min":35,"x_max":1176,"o":"m 319 0 q 300 15 304 0 l 36 951 l 35 957 q 51 972 35 972 l 119 972 q 139 957 135 972 l 347 204 q 351 200 349 200 q 356 204 354 200 l 550 957 q 571 972 554 972 l 638 972 q 657 957 653 972 l 860 203 q 864 199 861 199 q 868 203 867 199 l 1076 957 q 1096 972 1081 972 l 1160 972 q 1174 967 1169 972 q 1175 951 1178 961 l 915 15 q 896 0 911 0 l 829 0 q 808 15 813 0 l 608 788 q 604 792 607 792 q 600 788 601 792 l 403 15 q 382 0 399 0 l 319 0 m 564 1071 q 549 1077 553 1071 q 551 1093 546 1083 l 631 1236 q 651 1249 636 1249 l 711 1249 q 725 1238 725 1249 q 722 1226 725 1231 l 633 1083 q 613 1071 625 1071 l 564 1071 z "},"Ŵ":{"ha":1211,"x_min":35,"x_max":1176,"o":"m 319 0 q 300 15 304 0 l 36 951 l 35 957 q 51 972 35 972 l 119 972 q 139 957 135 972 l 347 204 q 351 200 349 200 q 356 204 354 200 l 550 957 q 571 972 554 972 l 638 972 q 657 957 653 972 l 860 203 q 864 199 861 199 q 868 203 867 199 l 1076 957 q 1096 972 1081 972 l 1160 972 q 1174 967 1169 972 q 1175 951 1178 961 l 915 15 q 896 0 911 0 l 829 0 q 808 15 813 0 l 608 788 q 604 792 607 792 q 600 788 601 792 l 403 15 q 382 0 399 0 l 319 0 m 450 1061 q 435 1072 435 1061 q 439 1083 435 1078 l 547 1225 q 569 1236 554 1236 l 635 1236 q 657 1225 650 1236 l 767 1083 q 771 1072 771 1078 q 756 1061 771 1061 l 711 1061 q 689 1072 697 1061 l 608 1183 q 603 1186 606 1186 q 599 1183 600 1186 l 517 1072 q 494 1061 508 1061 l 450 1061 z "},"Ẅ":{"ha":1211,"x_min":35,"x_max":1176,"o":"m 319 0 q 300 15 304 0 l 36 951 l 35 957 q 51 972 35 972 l 119 972 q 139 957 135 972 l 347 204 q 351 200 349 200 q 356 204 354 200 l 550 957 q 571 972 554 972 l 638 972 q 657 957 653 972 l 860 203 q 864 199 861 199 q 868 203 867 199 l 1076 957 q 1096 972 1081 972 l 1160 972 q 1174 967 1169 972 q 1175 951 1178 961 l 915 15 q 896 0 911 0 l 829 0 q 808 15 813 0 l 608 788 q 604 792 607 792 q 600 788 601 792 l 403 15 q 382 0 399 0 l 319 0 m 489 1103 q 441 1121 460 1103 q 422 1167 422 1139 q 441 1213 422 1194 q 489 1232 460 1232 q 535 1213 517 1232 q 553 1167 553 1194 q 535 1121 553 1139 q 489 1103 517 1103 m 722 1103 q 675 1121 693 1103 q 657 1167 657 1139 q 675 1213 657 1194 q 722 1232 693 1232 q 769 1213 751 1232 q 788 1167 788 1194 q 769 1121 788 1139 q 722 1103 751 1103 z "},"Ẁ":{"ha":1211,"x_min":35,"x_max":1176,"o":"m 319 0 q 300 15 304 0 l 36 951 l 35 957 q 51 972 35 972 l 119 972 q 139 957 135 972 l 347 204 q 351 200 349 200 q 356 204 354 200 l 550 957 q 571 972 554 972 l 638 972 q 657 957 653 972 l 860 203 q 864 199 861 199 q 868 203 867 199 l 1076 957 q 1096 972 1081 972 l 1160 972 q 1174 967 1169 972 q 1175 951 1178 961 l 915 15 q 896 0 911 0 l 829 0 q 808 15 813 0 l 608 788 q 604 792 607 792 q 600 788 601 792 l 403 15 q 382 0 399 0 l 319 0 m 633 1093 q 636 1083 636 1085 q 632 1074 636 1078 q 621 1071 628 1071 l 572 1071 q 551 1083 560 1071 l 463 1226 q 460 1238 460 1231 q 474 1249 460 1249 l 533 1249 q 554 1236 547 1249 l 633 1093 z "},"X":{"ha":818,"x_min":53,"x_max":761,"o":"m 71 0 q 56 6 60 0 q 58 22 53 13 l 347 482 q 347 490 350 486 l 58 950 q 56 960 56 958 q 60 969 56 965 q 71 972 64 972 l 139 972 q 160 960 151 972 l 406 569 q 414 569 410 561 l 658 960 q 679 972 667 972 l 747 972 q 761 961 761 972 q 758 950 761 954 l 471 489 q 471 481 469 485 l 758 22 q 761 13 761 14 q 757 3 761 7 q 746 0 753 0 l 679 0 q 658 13 667 0 l 414 401 q 406 401 410 410 l 160 13 q 139 0 151 0 l 71 0 z "},"Y":{"ha":788,"x_min":54,"x_max":736,"o":"m 363 1 q 344 19 344 1 l 344 426 q 342 435 344 429 l 57 950 q 54 960 54 958 q 58 969 54 965 q 69 972 63 972 l 136 972 q 157 960 151 972 l 389 540 q 397 540 393 535 l 631 960 q 651 972 638 972 l 718 972 q 733 966 729 972 q 731 950 736 960 l 446 435 q 443 426 443 429 l 443 19 q 425 1 443 1 l 363 1 z "},"Ý":{"ha":788,"x_min":54,"x_max":733,"o":"m 363 1 q 344 19 344 1 l 344 426 q 342 435 344 429 l 57 950 q 54 960 54 958 q 58 969 54 965 q 69 972 63 972 l 136 972 q 157 960 151 972 l 389 540 q 397 540 393 535 l 631 960 q 651 972 638 972 l 718 972 q 733 966 729 972 q 731 950 736 960 l 446 435 q 443 426 443 429 l 443 19 q 425 1 443 1 l 363 1 m 353 1069 q 338 1076 342 1069 q 340 1092 335 1082 l 419 1235 q 440 1247 425 1247 l 500 1247 q 514 1236 514 1247 q 511 1225 514 1229 l 422 1082 q 401 1069 414 1069 l 353 1069 z "},"Ŷ":{"ha":788,"x_min":54,"x_max":733,"o":"m 363 1 q 344 19 344 1 l 344 426 q 342 435 344 429 l 57 950 q 54 960 54 958 q 58 969 54 965 q 69 972 63 972 l 136 972 q 157 960 151 972 l 389 540 q 397 540 393 535 l 631 960 q 651 972 638 972 l 718 972 q 733 966 729 972 q 731 950 736 960 l 446 435 q 443 426 443 429 l 443 19 q 425 1 443 1 l 363 1 m 239 1060 q 224 1071 224 1060 q 228 1082 224 1076 l 336 1224 q 358 1235 343 1235 l 424 1235 q 446 1224 439 1235 l 556 1082 q 560 1071 560 1076 q 544 1060 560 1060 l 500 1060 q 478 1071 486 1060 l 397 1182 q 392 1185 394 1185 q 388 1182 389 1185 l 306 1071 q 283 1060 297 1060 l 239 1060 z "},"Ÿ":{"ha":788,"x_min":54,"x_max":733,"o":"m 363 1 q 344 19 344 1 l 344 426 q 342 435 344 429 l 57 950 q 54 960 54 958 q 58 969 54 965 q 69 972 63 972 l 136 972 q 157 960 151 972 l 389 540 q 397 540 393 535 l 631 960 q 651 972 638 972 l 718 972 q 733 966 729 972 q 731 950 736 960 l 446 435 q 443 426 443 429 l 443 19 q 425 1 443 1 l 363 1 m 278 1101 q 230 1119 249 1101 q 211 1165 211 1138 q 230 1212 211 1193 q 278 1231 249 1231 q 324 1212 306 1231 q 342 1165 342 1193 q 324 1119 342 1138 q 278 1101 306 1101 m 511 1101 q 464 1119 482 1101 q 446 1165 446 1138 q 464 1212 446 1193 q 511 1231 482 1231 q 558 1212 540 1231 q 576 1165 576 1193 q 558 1119 576 1138 q 511 1101 540 1101 z "},"Ỳ":{"ha":788,"x_min":54,"x_max":733,"o":"m 363 1 q 344 19 344 1 l 344 426 q 342 435 344 429 l 57 950 q 54 960 54 958 q 58 969 54 965 q 69 972 63 972 l 136 972 q 157 960 151 972 l 389 540 q 397 540 393 535 l 631 960 q 651 972 638 972 l 718 972 q 733 966 729 972 q 731 950 736 960 l 446 435 q 443 426 443 429 l 443 19 q 425 1 443 1 l 363 1 m 422 1092 q 425 1082 425 1083 q 421 1073 425 1076 q 410 1069 417 1069 l 361 1069 q 340 1082 349 1069 l 251 1225 q 249 1236 249 1229 q 263 1247 249 1247 l 322 1247 q 343 1235 336 1247 l 422 1092 z "},"Z":{"ha":763,"x_min":63,"x_max":689,"o":"m 81 0 q 63 18 63 0 l 63 78 q 69 100 63 89 l 575 878 q 571 886 579 886 l 81 886 q 63 904 63 886 l 63 954 q 81 972 63 972 l 671 972 q 689 954 689 972 l 689 894 q 682 872 689 883 l 178 94 q 182 86 174 86 l 671 86 q 689 68 689 86 l 689 18 q 671 0 689 0 l 81 0 z "},"Ź":{"ha":763,"x_min":63,"x_max":689,"o":"m 81 0 q 63 18 63 0 l 63 78 q 69 100 63 89 l 575 878 q 571 886 579 886 l 81 886 q 63 904 63 886 l 63 954 q 81 972 63 972 l 671 972 q 689 954 689 972 l 689 894 q 682 872 689 883 l 178 94 q 182 86 174 86 l 671 86 q 689 68 689 86 l 689 18 q 671 0 689 0 l 81 0 m 332 1089 q 317 1095 321 1089 q 319 1111 314 1101 l 399 1254 q 419 1267 404 1267 l 479 1267 q 493 1256 493 1267 q 490 1244 493 1249 l 401 1101 q 381 1089 393 1089 l 332 1089 z "},"Ž":{"ha":763,"x_min":63,"x_max":689,"o":"m 81 0 q 63 18 63 0 l 63 78 q 69 100 63 89 l 575 878 q 571 886 579 886 l 81 886 q 63 904 63 886 l 63 954 q 81 972 63 972 l 671 972 q 689 954 689 972 l 689 894 q 682 872 689 883 l 178 94 q 182 86 174 86 l 671 86 q 689 68 689 86 l 689 18 q 671 0 689 0 l 81 0 m 335 1075 q 313 1086 321 1075 l 210 1228 q 206 1239 206 1235 q 221 1250 206 1250 l 263 1250 q 285 1239 276 1250 l 367 1128 q 372 1125 369 1125 q 376 1128 375 1125 l 458 1239 q 481 1250 467 1250 l 522 1250 q 538 1239 538 1250 q 533 1228 538 1235 l 429 1086 q 407 1075 421 1075 l 335 1075 z "},"Ż":{"ha":763,"x_min":63,"x_max":689,"o":"m 81 0 q 63 18 63 0 l 63 78 q 69 100 63 89 l 575 878 q 571 886 579 886 l 81 886 q 63 904 63 886 l 63 954 q 81 972 63 972 l 671 972 q 689 954 689 972 l 689 894 q 682 872 689 883 l 178 94 q 182 86 174 86 l 671 86 q 689 68 689 86 l 689 18 q 671 0 689 0 l 81 0 m 372 1101 q 326 1119 344 1101 q 308 1163 308 1136 q 326 1206 308 1189 q 372 1224 344 1224 q 415 1206 399 1224 q 432 1163 432 1189 q 415 1119 432 1136 q 372 1101 399 1101 z "},"Ģ":{"ha":842,"x_min":100,"x_max":751,"o":"m 426 -11 q 256 27 329 -11 q 141 135 182 65 q 100 294 100 204 l 100 678 q 141 838 100 768 q 256 945 182 907 q 426 983 329 983 q 597 946 522 983 q 711 841 671 908 q 751 689 751 774 l 751 675 q 733 657 751 657 l 671 657 q 653 672 653 657 l 653 688 q 591 839 653 781 q 426 897 529 897 q 261 838 324 897 q 199 681 199 778 l 199 292 q 263 135 199 194 q 431 75 326 75 q 592 131 532 75 q 653 279 653 186 l 653 404 q 646 411 653 411 l 447 411 q 429 429 429 411 l 429 479 q 447 497 429 497 l 733 497 q 751 479 751 497 l 751 304 q 663 72 751 156 q 426 -11 575 -11 z "},"Ķ":{"ha":849,"x_min":131,"x_max":808,"o":"m 149 0 q 131 18 131 0 l 131 954 q 149 972 131 972 l 211 972 q 229 954 229 972 l 229 490 q 232 485 229 486 q 238 488 235 483 l 674 963 q 696 972 682 972 l 765 972 q 781 961 781 972 q 775 950 781 956 l 440 571 q 439 561 436 565 l 804 22 q 808 11 808 17 q 793 0 808 0 l 721 0 q 699 11 707 0 l 372 490 q 363 492 367 499 l 232 354 q 229 344 229 349 l 229 18 q 211 0 229 0 l 149 0 z "},"Ņ":{"ha":935,"x_min":131,"x_max":806,"o":"m 149 0 q 131 18 131 0 l 131 954 q 149 972 131 972 l 211 972 q 232 960 224 972 l 699 204 q 704 201 701 200 q 707 207 707 201 l 707 954 q 725 972 707 972 l 788 972 q 806 954 806 972 l 806 18 q 788 0 806 0 l 725 0 q 704 13 713 0 l 236 771 q 231 774 233 775 q 228 768 228 774 l 229 18 q 211 0 229 0 l 149 0 z "},"Ŗ":{"ha":850,"x_min":131,"x_max":782,"o":"m 701 0 q 679 14 686 0 l 476 442 q 468 447 474 447 l 236 447 q 229 440 229 447 l 229 18 q 211 0 229 0 l 149 0 q 131 18 131 0 l 131 956 q 149 974 131 974 l 504 974 q 697 900 624 974 q 771 707 771 826 q 719 542 771 610 q 576 454 667 475 q 572 446 569 453 l 779 21 q 782 13 782 15 q 765 0 782 0 l 701 0 m 236 888 q 229 881 229 888 l 229 533 q 236 526 229 526 l 493 526 q 624 576 574 526 q 674 706 674 625 q 624 837 674 786 q 493 888 574 888 l 236 888 z "},"Ţ":{"ha":790,"x_min":60,"x_max":731,"o":"m 446 885 q 439 878 439 885 l 439 18 q 435 0 439 0 q 440 -8 432 0 q 507 -133 507 -69 q 503 -164 507 -150 q 459 -228 492 -208 q 383 -247 426 -247 q 329 -240 357 -247 q 315 -219 313 -236 l 319 -197 q 340 -183 321 -179 q 365 -186 357 -186 q 415 -170 396 -186 q 435 -121 435 -154 q 361 -3 435 -67 q 353 0 356 0 q 340 18 340 4 l 340 878 q 333 885 340 885 l 78 885 q 60 903 60 885 l 60 954 q 78 972 60 972 l 713 972 q 731 954 731 972 l 731 903 q 713 885 731 885 l 446 885 z "},"Ș":{"ha":814,"x_min":79,"x_max":738,"o":"m 414 -11 q 237 21 313 -11 q 120 112 161 53 q 79 249 79 171 l 79 288 q 97 306 79 306 l 157 306 q 175 288 175 306 l 175 254 q 242 125 175 175 q 421 75 308 75 q 583 120 528 75 q 639 240 639 165 q 613 324 639 289 q 535 389 588 358 q 383 460 482 419 q 222 533 279 501 q 128 613 164 564 q 93 738 93 663 q 174 919 93 854 q 399 983 256 983 q 640 911 551 983 q 729 719 729 839 l 729 693 q 711 675 729 675 l 650 675 q 632 693 632 675 l 632 714 q 569 846 632 794 q 393 897 507 897 q 242 857 294 897 q 190 740 190 817 q 216 658 190 690 q 290 601 242 625 q 436 538 338 576 q 600 460 538 496 q 700 372 663 424 q 738 244 738 319 q 652 59 738 129 q 414 -11 567 -11 z "},"Ț":{"ha":799,"x_min":60,"x_max":731,"o":"m 713 972 q 731 954 731 972 l 731 903 q 713 885 731 885 l 446 885 q 439 878 439 885 l 439 18 q 421 0 439 0 l 358 0 q 340 18 340 0 l 340 878 q 333 885 340 885 l 78 885 q 60 903 60 885 l 60 954 q 78 972 60 972 l 713 972 z "},"a":{"ha":710,"x_min":64,"x_max":617,"o":"m 354 714 q 548 650 479 714 q 617 481 617 586 l 617 18 q 599 0 617 0 l 536 0 q 518 18 518 0 l 518 68 q 515 74 518 72 q 510 71 513 75 q 416 10 472 31 q 293 -11 360 -11 q 130 39 196 -11 q 64 192 64 89 q 140 356 64 296 q 350 417 215 417 l 511 417 q 518 424 518 417 l 518 475 q 478 587 518 546 q 356 628 439 628 q 249 603 290 628 q 196 533 207 578 q 175 519 192 517 l 107 528 q 90 543 89 531 q 176 667 104 619 q 354 714 247 714 m 315 74 q 458 115 397 74 q 518 225 518 156 l 518 332 q 511 339 518 339 l 365 339 q 218 301 274 339 q 163 197 163 264 q 206 105 163 136 q 315 74 249 74 z "},"á":{"ha":710,"x_min":64,"x_max":617,"o":"m 354 714 q 548 650 479 714 q 617 481 617 586 l 617 18 q 599 0 617 0 l 536 0 q 518 18 518 0 l 518 68 q 515 74 518 72 q 510 71 513 75 q 416 10 472 31 q 293 -11 360 -11 q 130 39 196 -11 q 64 192 64 89 q 140 356 64 296 q 350 417 215 417 l 511 417 q 518 424 518 417 l 518 475 q 478 587 518 546 q 356 628 439 628 q 249 603 290 628 q 196 533 207 578 q 175 519 192 517 l 107 528 q 90 543 89 531 q 176 667 104 619 q 354 714 247 714 m 315 74 q 458 115 397 74 q 518 225 518 156 l 518 332 q 511 339 518 339 l 365 339 q 218 301 274 339 q 163 197 163 264 q 206 105 163 136 q 315 74 249 74 m 315 813 q 301 819 304 813 q 303 835 297 825 l 382 978 q 403 990 388 990 l 463 990 q 476 979 476 990 q 474 968 476 972 l 385 825 q 364 813 376 813 l 315 813 z "},"ă":{"ha":710,"x_min":64,"x_max":617,"o":"m 354 714 q 548 650 479 714 q 617 481 617 586 l 617 18 q 599 0 617 0 l 536 0 q 518 18 518 0 l 518 68 q 515 74 518 72 q 510 71 513 75 q 416 10 472 31 q 293 -11 360 -11 q 130 39 196 -11 q 64 192 64 89 q 140 356 64 296 q 350 417 215 417 l 511 417 q 518 424 518 417 l 518 475 q 478 587 518 546 q 356 628 439 628 q 249 603 290 628 q 196 533 207 578 q 175 519 192 517 l 107 528 q 90 543 89 531 q 176 667 104 619 q 354 714 247 714 m 315 74 q 458 115 397 74 q 518 225 518 156 l 518 332 q 511 339 518 339 l 365 339 q 218 301 274 339 q 163 197 163 264 q 206 105 163 136 q 315 74 249 74 m 356 786 q 254 823 297 786 q 204 915 211 860 l 204 918 q 221 933 204 933 l 246 933 q 264 917 263 933 q 296 861 271 883 q 356 839 321 839 q 414 861 389 839 q 446 917 439 883 q 464 933 449 933 l 490 933 q 503 928 499 933 q 507 915 508 924 q 458 823 501 860 q 356 786 414 786 z "},"ǎ":{"ha":710,"x_min":64,"x_max":617,"o":"m 354 714 q 548 650 479 714 q 617 481 617 586 l 617 18 q 599 0 617 0 l 536 0 q 518 18 518 0 l 518 68 q 515 74 518 72 q 510 71 513 75 q 416 10 472 31 q 293 -11 360 -11 q 130 39 196 -11 q 64 192 64 89 q 140 356 64 296 q 350 417 215 417 l 511 417 q 518 424 518 417 l 518 475 q 478 587 518 546 q 356 628 439 628 q 249 603 290 628 q 196 533 207 578 q 175 519 192 517 l 107 528 q 90 543 89 531 q 176 667 104 619 q 354 714 247 714 m 315 74 q 458 115 397 74 q 518 225 518 156 l 518 332 q 511 339 518 339 l 365 339 q 218 301 274 339 q 163 197 163 264 q 206 105 163 136 q 315 74 249 74 m 318 788 q 296 799 304 788 l 192 942 q 188 951 188 949 q 204 964 188 964 l 246 964 q 268 953 260 964 l 350 842 q 354 839 351 839 q 360 842 357 839 l 442 953 q 464 964 450 964 l 506 964 q 521 953 521 964 q 517 942 521 949 l 413 799 q 390 788 404 788 l 318 788 z "},"â":{"ha":710,"x_min":64,"x_max":617,"o":"m 354 714 q 548 650 479 714 q 617 481 617 586 l 617 18 q 599 0 617 0 l 536 0 q 518 18 518 0 l 518 68 q 515 74 518 72 q 510 71 513 75 q 416 10 472 31 q 293 -11 360 -11 q 130 39 196 -11 q 64 192 64 89 q 140 356 64 296 q 350 417 215 417 l 511 417 q 518 424 518 417 l 518 475 q 478 587 518 546 q 356 628 439 628 q 249 603 290 628 q 196 533 207 578 q 175 519 192 517 l 107 528 q 90 543 89 531 q 176 667 104 619 q 354 714 247 714 m 315 74 q 458 115 397 74 q 518 225 518 156 l 518 332 q 511 339 518 339 l 365 339 q 218 301 274 339 q 163 197 163 264 q 206 105 163 136 q 315 74 249 74 m 201 803 q 186 814 186 803 q 190 825 186 819 l 299 967 q 321 978 306 978 l 386 978 q 408 967 401 978 l 518 825 q 522 814 522 819 q 507 803 522 803 l 463 803 q 440 814 449 803 l 360 925 q 354 928 357 928 q 350 925 351 928 l 268 814 q 246 803 260 803 l 201 803 z "},"ä":{"ha":710,"x_min":64,"x_max":617,"o":"m 354 714 q 548 650 479 714 q 617 481 617 586 l 617 18 q 599 0 617 0 l 536 0 q 518 18 518 0 l 518 68 q 515 74 518 72 q 510 71 513 75 q 416 10 472 31 q 293 -11 360 -11 q 130 39 196 -11 q 64 192 64 89 q 140 356 64 296 q 350 417 215 417 l 511 417 q 518 424 518 417 l 518 475 q 478 587 518 546 q 356 628 439 628 q 249 603 290 628 q 196 533 207 578 q 175 519 192 517 l 107 528 q 90 543 89 531 q 176 667 104 619 q 354 714 247 714 m 315 74 q 458 115 397 74 q 518 225 518 156 l 518 332 q 511 339 518 339 l 365 339 q 218 301 274 339 q 163 197 163 264 q 206 105 163 136 q 315 74 249 74 m 240 844 q 192 863 211 844 q 174 908 174 881 q 192 955 174 936 q 240 974 211 974 q 286 955 268 974 q 304 908 304 936 q 286 863 304 881 q 240 844 268 844 m 474 844 q 426 863 444 844 q 408 908 408 881 q 426 955 408 936 q 474 974 444 974 q 521 955 503 974 q 539 908 539 936 q 521 863 539 881 q 474 844 503 844 z "},"à":{"ha":710,"x_min":64,"x_max":617,"o":"m 354 714 q 548 650 479 714 q 617 481 617 586 l 617 18 q 599 0 617 0 l 536 0 q 518 18 518 0 l 518 68 q 515 74 518 72 q 510 71 513 75 q 416 10 472 31 q 293 -11 360 -11 q 130 39 196 -11 q 64 192 64 89 q 140 356 64 296 q 350 417 215 417 l 511 417 q 518 424 518 417 l 518 475 q 478 587 518 546 q 356 628 439 628 q 249 603 290 628 q 196 533 207 578 q 175 519 192 517 l 107 528 q 90 543 89 531 q 176 667 104 619 q 354 714 247 714 m 315 74 q 458 115 397 74 q 518 225 518 156 l 518 332 q 511 339 518 339 l 365 339 q 218 301 274 339 q 163 197 163 264 q 206 105 163 136 q 315 74 249 74 m 385 835 q 388 825 388 826 q 383 816 388 819 q 372 813 379 813 l 324 813 q 303 825 311 813 l 214 968 q 211 979 211 972 q 225 990 211 990 l 285 990 q 306 978 299 990 l 385 835 z "},"ā":{"ha":710,"x_min":64,"x_max":617,"o":"m 354 714 q 548 650 479 714 q 617 481 617 586 l 617 18 q 599 0 617 0 l 536 0 q 518 18 518 0 l 518 68 q 515 74 518 72 q 510 71 513 75 q 416 10 472 31 q 293 -11 360 -11 q 130 39 196 -11 q 64 192 64 89 q 140 356 64 296 q 350 417 215 417 l 511 417 q 518 424 518 417 l 518 475 q 478 587 518 546 q 356 628 439 628 q 249 603 290 628 q 196 533 207 578 q 175 519 192 517 l 107 528 q 90 543 89 531 q 176 667 104 619 q 354 714 247 714 m 315 74 q 458 115 397 74 q 518 225 518 156 l 518 332 q 511 339 518 339 l 365 339 q 218 301 274 339 q 163 197 163 264 q 206 105 163 136 q 315 74 249 74 m 188 836 q 169 854 169 836 l 169 889 q 188 907 169 907 l 525 907 q 543 889 543 907 l 543 854 q 525 836 543 836 l 188 836 z "},"ą":{"ha":833,"x_min":64,"x_max":649,"o":"m 629 -193 q 644 -208 642 -193 l 649 -231 l 649 -235 q 635 -251 649 -247 q 581 -258 607 -258 q 505 -239 538 -258 q 461 -175 472 -219 q 457 -143 457 -158 q 536 -8 457 -72 q 542 -3 540 -6 q 542 0 544 0 l 536 0 q 518 18 518 0 l 518 68 q 515 74 518 72 q 510 71 513 75 q 416 10 472 31 q 293 -11 360 -11 q 130 39 196 -11 q 64 192 64 89 q 140 356 64 296 q 350 417 215 417 l 511 417 q 518 424 518 417 l 518 475 q 478 587 518 546 q 356 628 439 628 q 249 603 290 628 q 196 533 207 578 q 175 519 192 517 l 107 528 q 94 534 99 529 q 92 547 90 539 q 178 668 107 622 q 354 714 249 714 q 548 650 479 714 q 617 481 617 586 l 617 4 q 614 -4 617 -1 q 594 -22 610 -7 q 529 -131 529 -81 q 531 -147 529 -142 q 599 -197 540 -197 q 624 -194 607 -197 l 629 -193 m 315 74 q 458 115 397 74 q 518 225 518 156 l 518 332 q 511 339 518 339 l 365 339 q 218 301 274 339 q 163 197 163 264 q 206 105 163 136 q 315 74 249 74 z "},"å":{"ha":710,"x_min":64,"x_max":617,"o":"m 354 714 q 548 650 479 714 q 617 481 617 586 l 617 18 q 599 0 617 0 l 536 0 q 518 18 518 0 l 518 68 q 515 74 518 72 q 510 71 513 75 q 416 10 472 31 q 293 -11 360 -11 q 130 39 196 -11 q 64 192 64 89 q 140 356 64 296 q 350 417 215 417 l 511 417 q 518 424 518 417 l 518 475 q 478 587 518 546 q 356 628 439 628 q 249 603 290 628 q 196 533 207 578 q 175 519 192 517 l 107 528 q 90 543 89 531 q 176 667 104 619 q 354 714 247 714 m 315 74 q 458 115 397 74 q 518 225 518 156 l 518 332 q 511 339 518 339 l 365 339 q 218 301 274 339 q 163 197 163 264 q 206 105 163 136 q 315 74 249 74 m 356 801 q 252 843 294 801 q 210 944 210 885 q 252 1045 210 1004 q 356 1086 294 1086 q 458 1045 417 1086 q 500 944 500 1004 q 458 843 500 885 q 356 801 417 801 m 356 856 q 419 881 393 856 q 444 944 444 907 q 418 1008 444 982 q 356 1033 392 1033 q 292 1008 318 1033 q 265 944 265 982 q 292 881 265 907 q 356 856 318 856 z "},"ã":{"ha":710,"x_min":64,"x_max":617,"o":"m 354 714 q 548 650 479 714 q 617 481 617 586 l 617 18 q 599 0 617 0 l 536 0 q 518 18 518 0 l 518 68 q 515 74 518 72 q 510 71 513 75 q 416 10 472 31 q 293 -11 360 -11 q 130 39 196 -11 q 64 192 64 89 q 140 356 64 296 q 350 417 215 417 l 511 417 q 518 424 518 417 l 518 475 q 478 587 518 546 q 356 628 439 628 q 249 603 290 628 q 196 533 207 578 q 175 519 192 517 l 107 528 q 90 543 89 531 q 176 667 104 619 q 354 714 247 714 m 315 74 q 458 115 397 74 q 518 225 518 156 l 518 332 q 511 339 518 339 l 365 339 q 218 301 274 339 q 163 197 163 264 q 206 105 163 136 q 315 74 249 74 m 446 833 q 402 842 422 833 q 360 867 382 851 q 325 888 338 882 q 297 894 313 894 q 262 888 276 894 q 232 861 247 881 q 217 851 222 851 q 206 856 211 851 l 186 869 q 178 881 179 874 q 181 894 176 888 q 292 964 222 964 q 332 956 314 964 q 376 932 350 949 q 415 910 400 917 q 444 903 429 903 q 510 940 485 903 q 535 946 519 954 l 556 933 q 564 919 564 928 q 556 899 564 911 q 503 849 533 865 q 446 833 474 833 z "},"æ":{"ha":1157,"x_min":64,"x_max":1072,"o":"m 310 -11 q 133 36 203 -11 q 64 183 64 83 q 140 344 64 286 q 350 403 215 403 l 511 403 q 518 410 518 403 l 518 468 q 477 584 518 540 q 351 628 436 628 q 244 603 288 628 q 190 533 201 578 q 169 519 186 517 l 107 526 q 94 533 99 528 q 92 547 90 539 q 178 667 107 621 q 350 714 249 714 q 490 680 432 714 q 571 593 549 646 q 579 593 575 585 q 665 679 607 644 q 797 714 724 714 q 965 662 892 714 q 1060 522 1038 610 q 1069 457 1067 494 q 1072 339 1072 419 q 1054 319 1072 319 l 625 319 q 618 313 618 319 q 621 226 618 293 q 677 119 624 157 q 811 82 731 82 q 917 108 874 82 q 983 181 960 133 q 993 191 986 189 q 1007 189 1000 193 l 1047 167 q 1057 143 1063 157 q 959 33 1028 76 q 799 -11 890 -11 q 661 20 721 -11 q 574 106 601 51 q 567 107 568 113 q 467 20 538 51 q 310 -11 397 -11 m 618 410 q 625 403 618 403 l 968 403 q 975 410 975 403 q 968 492 972 474 q 910 590 957 551 q 796 628 863 628 q 683 590 729 628 q 624 492 636 553 q 618 410 618 465 m 319 68 q 459 108 400 68 q 518 222 518 147 l 518 313 q 511 319 518 319 l 365 319 q 217 287 272 319 q 163 192 163 254 q 206 101 163 133 q 319 68 250 68 z "},"b":{"ha":753,"x_min":111,"x_max":668,"o":"m 651 524 q 668 351 668 467 q 649 175 668 238 q 558 39 624 89 q 394 -11 492 -11 q 294 11 339 -11 q 218 74 249 33 q 213 76 215 76 q 210 71 210 75 l 210 18 q 192 0 210 0 l 129 0 q 111 18 111 0 l 111 954 q 129 972 111 972 l 192 972 q 210 954 210 972 l 210 633 q 213 628 210 629 q 218 631 215 626 q 294 692 249 671 q 394 714 340 714 q 560 663 493 714 q 651 524 626 613 m 544 183 q 564 249 558 213 q 569 351 569 286 q 562 458 569 419 q 538 526 554 496 q 479 600 519 572 q 383 628 439 628 q 292 599 331 628 q 238 524 254 571 q 218 456 224 494 q 213 351 213 418 q 218 247 213 285 q 236 182 224 210 q 292 104 254 133 q 385 75 329 75 q 485 104 443 75 q 544 183 528 133 z "},"c":{"ha":722,"x_min":89,"x_max":657,"o":"m 376 -11 q 205 41 276 -11 q 107 182 133 93 q 89 354 89 243 q 107 524 89 454 q 204 662 132 610 q 376 714 276 714 q 552 663 478 714 q 649 535 626 611 q 657 497 654 515 l 657 494 q 640 476 657 479 l 579 469 l 575 469 q 558 485 563 469 q 556 501 558 490 q 494 591 543 554 q 376 628 446 628 q 260 591 307 628 q 200 493 214 554 q 188 353 188 440 q 200 211 188 261 q 260 112 214 149 q 376 75 307 75 q 494 110 444 75 q 554 200 543 146 q 556 207 556 203 l 557 208 q 578 224 558 226 l 638 214 q 654 193 656 211 l 649 169 q 553 39 628 89 q 376 -11 478 -11 z "},"ć":{"ha":722,"x_min":89,"x_max":657,"o":"m 376 -11 q 205 41 276 -11 q 107 182 133 93 q 89 354 89 243 q 107 524 89 454 q 204 662 132 610 q 376 714 276 714 q 552 663 478 714 q 649 535 626 611 q 657 497 654 515 l 657 494 q 640 476 657 479 l 579 469 l 575 469 q 558 485 563 469 q 556 501 558 490 q 494 591 543 554 q 376 628 446 628 q 260 591 307 628 q 200 493 214 554 q 188 353 188 440 q 200 211 188 261 q 260 112 214 149 q 376 75 307 75 q 494 110 444 75 q 554 200 543 146 q 556 207 556 203 l 557 208 q 578 224 558 226 l 638 214 q 654 193 656 211 l 649 169 q 553 39 628 89 q 376 -11 478 -11 m 335 813 q 320 819 324 813 q 322 835 317 825 l 401 978 q 422 990 407 990 l 482 990 q 496 979 496 990 q 493 968 496 972 l 404 825 q 383 813 396 813 l 335 813 z "},"č":{"ha":722,"x_min":89,"x_max":657,"o":"m 376 -11 q 205 41 276 -11 q 107 182 133 93 q 89 354 89 243 q 107 524 89 454 q 204 662 132 610 q 376 714 276 714 q 552 663 478 714 q 649 535 626 611 q 657 497 654 515 l 657 494 q 640 476 657 479 l 579 469 l 575 469 q 558 485 563 469 q 556 501 558 490 q 494 591 543 554 q 376 628 446 628 q 260 591 307 628 q 200 493 214 554 q 188 353 188 440 q 200 211 188 261 q 260 112 214 149 q 376 75 307 75 q 494 110 444 75 q 554 200 543 146 q 556 207 556 203 l 557 208 q 578 224 558 226 l 638 214 q 654 193 656 211 l 649 169 q 553 39 628 89 q 376 -11 478 -11 m 338 799 q 315 810 324 799 l 213 951 q 208 963 208 958 q 224 974 208 974 l 265 974 q 288 963 279 974 l 369 851 q 375 849 372 849 q 379 851 378 849 l 461 963 q 483 974 469 974 l 525 974 q 540 963 540 974 q 536 951 540 958 l 432 810 q 410 799 424 799 l 338 799 z "},"ç":{"ha":722,"x_min":89,"x_max":657,"o":"m 554 200 q 556 207 556 203 l 557 208 q 578 224 558 226 l 638 214 q 654 193 656 211 l 649 169 q 565 47 629 96 q 411 -8 500 -1 q 406 -12 407 -10 q 408 -17 406 -15 q 478 -144 478 -78 q 474 -175 478 -161 q 430 -239 463 -219 q 354 -258 397 -258 q 300 -251 328 -258 q 286 -231 283 -247 l 290 -208 q 311 -194 292 -190 q 336 -197 328 -197 q 404 -147 394 -197 q 406 -131 406 -142 q 328 -10 406 -75 l 319 -6 q 185 56 240 7 q 107 182 131 106 q 89 354 89 243 q 107 524 89 454 q 204 662 132 610 q 376 714 276 714 q 552 663 478 714 q 649 535 626 611 q 657 497 654 515 l 657 494 q 640 476 657 479 l 579 469 l 575 469 q 558 485 563 469 q 556 501 558 490 q 494 591 543 554 q 376 628 446 628 q 260 591 307 628 q 200 493 214 554 q 188 353 188 440 q 200 211 188 261 q 260 112 214 149 q 376 75 307 75 q 494 110 444 75 q 554 200 543 146 z "},"ċ":{"ha":722,"x_min":89,"x_max":657,"o":"m 376 -11 q 205 41 276 -11 q 107 182 133 93 q 89 354 89 243 q 107 524 89 454 q 204 662 132 610 q 376 714 276 714 q 552 663 478 714 q 649 535 626 611 q 657 497 654 515 l 657 494 q 640 476 657 479 l 579 469 l 575 469 q 558 485 563 469 q 556 501 558 490 q 494 591 543 554 q 376 628 446 628 q 260 591 307 628 q 200 493 214 554 q 188 353 188 440 q 200 211 188 261 q 260 112 214 149 q 376 75 307 75 q 494 110 444 75 q 554 200 543 146 q 556 207 556 203 l 557 208 q 578 224 558 226 l 638 214 q 654 193 656 211 l 649 169 q 553 39 628 89 q 376 -11 478 -11 m 375 825 q 329 842 347 825 q 311 886 311 860 q 329 930 311 913 q 375 947 347 947 q 418 930 401 947 q 435 886 435 913 q 418 842 435 860 q 375 825 401 825 z "},"d":{"ha":753,"x_min":85,"x_max":642,"o":"m 543 954 q 561 972 543 972 l 624 972 q 642 954 642 972 l 642 18 q 624 0 642 0 l 561 0 q 543 18 543 0 l 543 71 q 540 76 543 75 q 535 74 538 76 q 459 11 504 33 q 358 -11 414 -11 q 195 39 261 -11 q 104 175 129 89 q 85 351 85 238 q 101 524 85 467 q 193 663 126 613 q 358 714 260 714 q 458 692 413 714 q 535 631 504 671 q 540 628 538 626 q 543 633 543 629 l 543 954 m 517 182 q 535 247 529 210 q 540 351 540 285 q 535 456 540 418 q 515 524 529 494 q 460 599 499 571 q 369 628 422 628 q 274 600 314 628 q 215 526 233 572 q 191 458 199 496 q 183 351 183 419 q 189 249 183 286 q 208 183 194 213 q 267 104 225 133 q 368 75 310 75 q 461 104 424 75 q 517 182 499 133 z "},"ð":{"ha":731,"x_min":82,"x_max":639,"o":"m 629 493 q 639 339 639 431 q 636 239 639 275 q 625 174 633 203 q 529 40 600 90 q 360 -11 458 -11 q 192 40 263 -11 q 97 174 122 90 q 85 242 88 204 q 82 339 82 279 q 85 435 82 397 q 97 503 89 472 q 168 616 115 571 q 296 668 221 661 q 344 672 319 672 q 431 660 389 672 q 501 628 474 649 q 506 626 504 625 q 506 631 507 626 q 415 792 479 713 q 406 794 410 797 l 283 758 q 275 757 281 757 q 261 771 265 757 l 254 794 l 253 801 q 267 817 253 813 l 360 843 q 363 853 367 846 q 260 950 329 889 q 253 963 253 956 q 268 972 253 972 l 336 972 q 358 963 349 972 q 446 875 417 907 q 456 872 451 869 l 558 903 q 567 904 561 904 q 581 890 579 904 l 588 867 l 589 861 q 575 844 589 849 l 503 824 q 499 815 494 821 q 587 672 553 749 q 629 493 621 594 m 531 200 q 539 336 539 233 q 531 469 539 438 q 471 566 517 529 q 360 603 425 603 q 249 567 294 603 q 190 469 204 531 q 182 336 182 436 q 192 200 182 232 q 249 103 204 140 q 360 67 294 67 q 471 103 425 67 q 531 200 517 140 z "},"ď":{"ha":886,"x_min":85,"x_max":883,"o":"m 543 954 q 561 972 543 972 l 624 972 q 642 954 642 972 l 642 18 q 624 0 642 0 l 561 0 q 543 18 543 0 l 543 71 q 540 76 543 75 q 535 74 538 76 q 459 11 504 33 q 358 -11 414 -11 q 195 39 261 -11 q 104 175 129 89 q 85 351 85 238 q 101 524 85 467 q 193 663 126 613 q 358 714 260 714 q 458 692 413 714 q 535 631 504 671 q 540 628 538 626 q 543 633 543 629 l 543 954 m 517 182 q 535 247 529 210 q 540 351 540 285 q 535 456 540 418 q 515 524 529 494 q 460 599 499 571 q 369 628 422 628 q 274 600 314 628 q 215 526 233 572 q 191 458 199 496 q 183 351 183 419 q 189 249 183 286 q 208 183 194 213 q 267 104 225 133 q 368 75 310 75 q 461 104 424 75 q 517 182 499 133 z "},"đ":{"ha":833,"x_min":85,"x_max":747,"o":"m 729 861 q 747 843 747 861 l 747 814 q 729 796 747 796 l 649 796 q 642 789 642 796 l 642 18 q 624 0 642 0 l 561 0 q 543 18 543 0 l 543 71 q 540 76 543 75 q 535 74 538 76 q 459 11 504 33 q 358 -11 414 -11 q 195 39 261 -11 q 104 175 129 89 q 85 351 85 238 q 101 524 85 467 q 193 663 126 613 q 358 714 260 714 q 458 692 413 714 q 535 631 504 671 q 540 628 538 626 q 543 633 543 629 l 543 789 q 536 796 543 796 l 325 796 q 307 814 307 796 l 307 843 q 325 861 307 861 l 536 861 q 543 868 543 861 l 543 954 q 561 972 543 972 l 624 972 q 642 954 642 972 l 642 868 q 649 861 642 861 l 729 861 m 517 182 q 535 247 529 210 q 540 351 540 285 q 535 456 540 418 q 515 524 529 494 q 460 599 499 571 q 369 628 422 628 q 274 600 314 628 q 215 526 233 572 q 191 458 199 496 q 183 351 183 419 q 189 249 183 286 q 208 183 194 213 q 267 104 225 133 q 368 75 310 75 q 461 104 424 75 q 517 182 499 133 z "},"e":{"ha":742,"x_min":90,"x_max":657,"o":"m 385 74 q 492 102 447 75 q 563 178 538 129 q 572 188 565 185 q 586 186 579 190 l 626 164 q 635 140 643 154 q 535 30 601 71 q 376 -11 468 -11 q 213 35 279 -11 q 117 163 146 81 q 90 354 90 232 q 92 449 90 414 q 103 515 94 485 q 198 660 126 606 q 371 714 269 714 q 560 651 492 714 q 649 475 629 589 q 657 336 657 431 q 639 318 657 318 l 194 318 q 188 311 188 318 q 196 210 188 242 q 260 110 211 147 q 385 74 310 74 m 371 628 q 257 592 301 628 q 199 497 213 557 q 188 403 190 469 q 194 396 188 396 l 551 396 q 558 403 558 396 q 550 492 556 464 q 488 591 535 554 q 371 628 442 628 z "},"é":{"ha":742,"x_min":90,"x_max":657,"o":"m 385 74 q 492 102 447 75 q 563 178 538 129 q 572 188 565 185 q 586 186 579 190 l 626 164 q 635 140 643 154 q 535 30 601 71 q 376 -11 468 -11 q 213 35 279 -11 q 117 163 146 81 q 90 354 90 232 q 92 449 90 414 q 103 515 94 485 q 198 660 126 606 q 371 714 269 714 q 560 651 492 714 q 649 475 629 589 q 657 336 657 431 q 639 318 657 318 l 194 318 q 188 311 188 318 q 196 210 188 242 q 260 110 211 147 q 385 74 310 74 m 371 628 q 257 592 301 628 q 199 497 213 557 q 188 403 190 469 q 194 396 188 396 l 551 396 q 558 403 558 396 q 550 492 556 464 q 488 591 535 554 q 371 628 442 628 m 329 813 q 315 819 318 813 q 317 835 311 825 l 396 978 q 417 990 401 990 l 476 990 q 490 979 490 990 q 488 968 490 972 l 399 825 q 378 813 390 813 l 329 813 z "},"ě":{"ha":742,"x_min":90,"x_max":657,"o":"m 385 74 q 492 102 447 75 q 563 178 538 129 q 572 188 565 185 q 586 186 579 190 l 626 164 q 635 140 643 154 q 535 30 601 71 q 376 -11 468 -11 q 213 35 279 -11 q 117 163 146 81 q 90 354 90 232 q 92 449 90 414 q 103 515 94 485 q 198 660 126 606 q 371 714 269 714 q 560 651 492 714 q 649 475 629 589 q 657 336 657 431 q 639 318 657 318 l 194 318 q 188 311 188 318 q 196 210 188 242 q 260 110 211 147 q 385 74 310 74 m 371 628 q 257 592 301 628 q 199 497 213 557 q 188 403 190 469 q 194 396 188 396 l 551 396 q 558 403 558 396 q 550 492 556 464 q 488 591 535 554 q 371 628 442 628 m 332 788 q 310 799 318 788 l 206 942 q 201 951 201 949 q 218 964 201 964 l 260 964 q 282 953 274 964 l 364 842 q 368 839 365 839 q 374 842 371 839 l 456 953 q 478 964 464 964 l 519 964 q 535 953 535 964 q 531 942 535 949 l 426 799 q 404 788 418 788 l 332 788 z "},"ȩ":{"ha":742,"x_min":90,"x_max":657,"o":"m 385 74 q 492 102 447 75 q 563 178 538 129 q 572 188 565 185 q 586 186 579 190 l 626 164 q 635 140 642 156 q 551 40 606 79 q 421 -8 496 1 q 418 -17 413 -11 q 489 -146 489 -79 q 485 -176 489 -162 q 441 -240 474 -221 q 365 -260 408 -260 q 311 -253 339 -260 q 297 -232 294 -249 l 301 -210 q 322 -196 303 -192 q 347 -199 339 -199 q 415 -149 406 -199 q 417 -132 417 -143 q 339 -11 417 -75 q 331 -8 333 -8 q 196 46 250 1 q 117 163 142 90 q 90 354 90 232 q 92 449 90 414 q 103 515 94 485 q 198 660 126 606 q 371 714 269 714 q 560 651 492 714 q 649 475 629 589 q 657 336 657 431 q 639 318 657 318 l 194 318 q 188 311 188 318 q 196 210 188 242 q 260 110 211 147 q 385 74 310 74 m 371 628 q 257 592 301 628 q 199 497 213 557 q 188 403 190 469 q 194 396 188 396 l 551 396 q 558 403 558 396 q 550 492 556 464 q 488 591 535 554 q 371 628 442 628 z "},"ê":{"ha":742,"x_min":90,"x_max":657,"o":"m 385 74 q 492 102 447 75 q 563 178 538 129 q 572 188 565 185 q 586 186 579 190 l 626 164 q 635 140 643 154 q 535 30 601 71 q 376 -11 468 -11 q 213 35 279 -11 q 117 163 146 81 q 90 354 90 232 q 92 449 90 414 q 103 515 94 485 q 198 660 126 606 q 371 714 269 714 q 560 651 492 714 q 649 475 629 589 q 657 336 657 431 q 639 318 657 318 l 194 318 q 188 311 188 318 q 196 210 188 242 q 260 110 211 147 q 385 74 310 74 m 371 628 q 257 592 301 628 q 199 497 213 557 q 188 403 190 469 q 194 396 188 396 l 551 396 q 558 403 558 396 q 550 492 556 464 q 488 591 535 554 q 371 628 442 628 m 215 803 q 200 814 200 803 q 204 825 200 819 l 313 967 q 335 978 319 978 l 400 978 q 422 967 415 978 l 532 825 q 536 814 536 819 q 521 803 536 803 l 476 803 q 454 814 463 803 l 374 925 q 368 928 371 928 q 364 925 365 928 l 282 814 q 260 803 274 803 l 215 803 z "},"ë":{"ha":742,"x_min":90,"x_max":657,"o":"m 385 74 q 492 102 447 75 q 563 178 538 129 q 572 188 565 185 q 586 186 579 190 l 626 164 q 635 140 643 154 q 535 30 601 71 q 376 -11 468 -11 q 213 35 279 -11 q 117 163 146 81 q 90 354 90 232 q 92 449 90 414 q 103 515 94 485 q 198 660 126 606 q 371 714 269 714 q 560 651 492 714 q 649 475 629 589 q 657 336 657 431 q 639 318 657 318 l 194 318 q 188 311 188 318 q 196 210 188 242 q 260 110 211 147 q 385 74 310 74 m 371 628 q 257 592 301 628 q 199 497 213 557 q 188 403 190 469 q 194 396 188 396 l 551 396 q 558 403 558 396 q 550 492 556 464 q 488 591 535 554 q 371 628 442 628 m 254 844 q 206 863 225 844 q 188 908 188 881 q 206 955 188 936 q 254 974 225 974 q 300 955 282 974 q 318 908 318 936 q 300 863 318 881 q 254 844 282 844 m 488 844 q 440 863 458 844 q 422 908 422 881 q 440 955 422 936 q 488 974 458 974 q 535 955 517 974 q 553 908 553 936 q 535 863 553 881 q 488 844 517 844 z "},"ė":{"ha":742,"x_min":90,"x_max":657,"o":"m 385 74 q 492 102 447 75 q 563 178 538 129 q 572 188 565 185 q 586 186 579 190 l 626 164 q 635 140 643 154 q 535 30 601 71 q 376 -11 468 -11 q 213 35 279 -11 q 117 163 146 81 q 90 354 90 232 q 92 449 90 414 q 103 515 94 485 q 198 660 126 606 q 371 714 269 714 q 560 651 492 714 q 649 475 629 589 q 657 336 657 431 q 639 318 657 318 l 194 318 q 188 311 188 318 q 196 210 188 242 q 260 110 211 147 q 385 74 310 74 m 371 628 q 257 592 301 628 q 199 497 213 557 q 188 403 190 469 q 194 396 188 396 l 551 396 q 558 403 558 396 q 550 492 556 464 q 488 591 535 554 q 371 628 442 628 m 369 825 q 324 842 342 825 q 306 886 306 860 q 324 930 306 913 q 369 947 342 947 q 413 930 396 947 q 429 886 429 913 q 413 842 429 860 q 369 825 396 825 z "},"è":{"ha":742,"x_min":90,"x_max":657,"o":"m 385 74 q 492 102 447 75 q 563 178 538 129 q 572 188 565 185 q 586 186 579 190 l 626 164 q 635 140 643 154 q 535 30 601 71 q 376 -11 468 -11 q 213 35 279 -11 q 117 163 146 81 q 90 354 90 232 q 92 449 90 414 q 103 515 94 485 q 198 660 126 606 q 371 714 269 714 q 560 651 492 714 q 649 475 629 589 q 657 336 657 431 q 639 318 657 318 l 194 318 q 188 311 188 318 q 196 210 188 242 q 260 110 211 147 q 385 74 310 74 m 371 628 q 257 592 301 628 q 199 497 213 557 q 188 403 190 469 q 194 396 188 396 l 551 396 q 558 403 558 396 q 550 492 556 464 q 488 591 535 554 q 371 628 442 628 m 399 835 q 401 825 401 826 q 397 816 401 819 q 386 813 393 813 l 338 813 q 317 825 325 813 l 228 968 q 225 979 225 972 q 239 990 225 990 l 299 990 q 319 978 313 990 l 399 835 z "},"ē":{"ha":742,"x_min":90,"x_max":657,"o":"m 385 74 q 492 102 447 75 q 563 178 538 129 q 572 188 565 185 q 586 186 579 190 l 626 164 q 635 140 643 154 q 535 30 601 71 q 376 -11 468 -11 q 213 35 279 -11 q 117 163 146 81 q 90 354 90 232 q 92 449 90 414 q 103 515 94 485 q 198 660 126 606 q 371 714 269 714 q 560 651 492 714 q 649 475 629 589 q 657 336 657 431 q 639 318 657 318 l 194 318 q 188 311 188 318 q 196 210 188 242 q 260 110 211 147 q 385 74 310 74 m 371 628 q 257 592 301 628 q 199 497 213 557 q 188 403 190 469 q 194 396 188 396 l 551 396 q 558 403 558 396 q 550 492 556 464 q 488 591 535 554 q 371 628 442 628 m 201 836 q 183 854 183 836 l 183 889 q 201 907 183 907 l 539 907 q 557 889 557 907 l 557 854 q 539 836 557 836 l 201 836 z "},"ę":{"ha":742,"x_min":90,"x_max":657,"o":"m 385 74 q 492 102 447 75 q 563 178 538 129 q 572 188 565 185 q 586 186 579 190 l 626 164 q 635 140 643 154 q 549 40 604 79 q 419 -10 494 0 q 411 -12 417 -10 q 333 -132 333 -76 q 335 -149 333 -143 q 403 -199 344 -199 q 428 -196 411 -199 l 433 -194 q 449 -210 446 -194 l 453 -232 l 453 -236 q 439 -253 453 -249 q 385 -260 411 -260 q 309 -240 342 -260 q 265 -176 276 -221 q 261 -146 261 -162 q 333 -17 261 -79 q 331 -8 339 -11 q 196 46 250 1 q 117 163 142 90 q 90 354 90 232 q 92 449 90 414 q 103 515 94 485 q 198 660 126 606 q 371 714 269 714 q 560 651 492 714 q 649 475 629 589 q 657 336 657 431 q 639 318 657 318 l 194 318 q 188 311 188 318 q 196 210 188 242 q 260 110 211 147 q 385 74 310 74 m 371 628 q 257 592 301 628 q 199 497 213 557 q 188 403 190 469 q 194 396 188 396 l 551 396 q 558 403 558 396 q 550 492 556 464 q 488 591 535 554 q 371 628 442 628 z "},"f":{"ha":494,"x_min":47,"x_max":435,"o":"m 389 886 q 285 852 313 886 q 257 736 257 818 l 257 710 q 264 703 257 703 l 414 703 q 432 685 432 703 l 432 631 q 414 613 432 613 l 264 613 q 257 606 257 613 l 257 18 q 239 0 257 0 l 178 0 q 160 18 160 0 l 160 606 q 153 613 160 613 l 65 613 q 47 631 47 613 l 47 685 q 65 703 47 703 l 153 703 q 160 710 160 703 l 160 742 q 179 877 160 828 q 247 949 199 926 q 381 972 294 972 l 417 972 q 435 954 435 972 l 435 904 q 417 886 435 886 l 389 886 z "},"g":{"ha":743,"x_min":85,"x_max":643,"o":"m 544 685 q 563 703 544 703 l 625 703 q 643 685 643 703 l 643 24 q 553 -204 643 -132 q 307 -276 463 -276 q 263 -275 278 -276 q 244 -256 244 -274 l 247 -200 q 265 -183 247 -181 q 478 -140 413 -190 q 544 26 544 -90 l 544 75 q 542 81 544 79 q 536 78 539 82 q 356 -4 472 -4 q 195 44 265 -4 q 101 182 125 93 q 85 351 85 239 q 88 454 85 413 q 103 529 92 496 q 193 663 128 613 q 350 714 258 714 q 536 635 471 714 q 542 632 539 631 q 544 638 544 633 l 544 685 m 538 213 q 543 264 542 233 q 544 353 544 294 q 543 448 544 424 q 536 493 542 472 q 481 590 525 551 q 371 628 438 628 q 260 590 306 628 q 197 493 215 553 q 183 354 183 449 q 197 214 183 253 q 258 117 211 156 q 371 79 304 79 q 483 117 439 79 q 538 213 526 154 z "},"ğ":{"ha":743,"x_min":85,"x_max":643,"o":"m 544 685 q 563 703 544 703 l 625 703 q 643 685 643 703 l 643 24 q 553 -204 643 -132 q 307 -276 463 -276 q 263 -275 278 -276 q 244 -256 244 -274 l 247 -200 q 265 -183 247 -181 q 478 -140 413 -190 q 544 26 544 -90 l 544 75 q 542 81 544 79 q 536 78 539 82 q 356 -4 472 -4 q 195 44 265 -4 q 101 182 125 93 q 85 351 85 239 q 88 454 85 413 q 103 529 92 496 q 193 663 128 613 q 350 714 258 714 q 536 635 471 714 q 542 632 539 631 q 544 638 544 633 l 544 685 m 538 213 q 543 264 542 233 q 544 353 544 294 q 543 448 544 424 q 536 493 542 472 q 481 590 525 551 q 371 628 438 628 q 260 590 306 628 q 197 493 215 553 q 183 354 183 449 q 197 214 183 253 q 258 117 211 156 q 371 79 304 79 q 483 117 439 79 q 538 213 526 154 m 383 788 q 282 824 325 788 q 232 917 239 861 l 232 919 q 249 935 232 935 l 274 935 q 292 918 290 935 q 324 863 299 885 q 383 840 349 840 q 442 863 417 840 q 474 918 467 885 q 492 935 476 935 l 518 935 q 531 930 526 935 q 535 917 536 925 q 485 824 529 861 q 383 788 442 788 z "},"ġ":{"ha":743,"x_min":85,"x_max":643,"o":"m 544 685 q 563 703 544 703 l 625 703 q 643 685 643 703 l 643 24 q 553 -204 643 -132 q 307 -276 463 -276 q 263 -275 278 -276 q 244 -256 244 -274 l 247 -200 q 265 -183 247 -181 q 478 -140 413 -190 q 544 26 544 -90 l 544 75 q 542 81 544 79 q 536 78 539 82 q 356 -4 472 -4 q 195 44 265 -4 q 101 182 125 93 q 85 351 85 239 q 88 454 85 413 q 103 529 92 496 q 193 663 128 613 q 350 714 258 714 q 536 635 471 714 q 542 632 539 631 q 544 638 544 633 l 544 685 m 538 213 q 543 264 542 233 q 544 353 544 294 q 543 448 544 424 q 536 493 542 472 q 481 590 525 551 q 371 628 438 628 q 260 590 306 628 q 197 493 215 553 q 183 354 183 449 q 197 214 183 253 q 258 117 211 156 q 371 79 304 79 q 483 117 439 79 q 538 213 526 154 m 383 826 q 338 844 356 826 q 319 888 319 861 q 338 931 319 914 q 383 949 356 949 q 426 931 410 949 q 443 888 443 914 q 426 844 443 861 q 383 826 410 826 z "},"h":{"ha":749,"x_min":111,"x_max":644,"o":"m 403 713 q 578 647 513 713 q 644 472 644 582 l 644 18 q 626 0 644 0 l 564 0 q 546 18 546 0 l 546 453 q 500 578 546 531 q 381 626 454 626 q 263 586 310 626 q 210 481 217 546 l 210 18 q 192 0 210 0 l 129 0 q 111 18 111 0 l 111 954 q 129 972 111 972 l 192 972 q 210 954 210 972 l 210 633 q 213 627 210 629 q 217 629 215 625 q 403 713 278 713 z "},"ħ":{"ha":749,"x_min":11,"x_max":644,"o":"m 403 713 q 578 647 513 713 q 644 472 644 582 l 644 18 q 626 0 644 0 l 564 0 q 546 18 546 0 l 546 453 q 500 578 546 531 q 381 626 454 626 q 263 586 310 626 q 210 481 217 546 l 210 18 q 192 0 210 0 l 129 0 q 111 18 111 0 l 111 768 q 104 775 111 775 l 29 775 q 11 793 11 775 l 11 822 q 29 840 11 840 l 104 840 q 111 847 111 840 l 111 954 q 129 972 111 972 l 192 972 q 210 954 210 972 l 210 847 q 217 840 210 840 l 433 840 q 451 822 451 840 l 451 793 q 433 775 451 775 l 217 775 q 210 768 210 775 l 210 633 q 213 627 210 629 q 217 629 215 625 q 403 713 278 713 z "},"i":{"ha":340,"x_min":96,"x_max":246,"o":"m 171 829 q 117 849 138 829 q 96 901 96 869 q 117 953 96 933 q 171 972 138 972 q 225 953 204 972 q 246 901 246 933 q 225 849 246 869 q 171 829 204 829 m 140 0 q 122 18 122 0 l 122 685 q 140 703 122 703 l 203 703 q 221 685 221 703 l 221 18 q 203 0 221 0 l 140 0 z "},"ı":{"ha":307,"x_min":103,"x_max":201,"o":"m 121 0 q 103 18 103 0 l 103 685 q 121 703 103 703 l 183 703 q 201 685 201 703 l 201 18 q 183 0 201 0 l 121 0 z "},"í":{"ha":307,"x_min":94,"x_max":271,"o":"m 121 0 q 103 18 103 0 l 103 685 q 121 703 103 703 l 183 703 q 201 685 201 703 l 201 18 q 183 0 201 0 l 121 0 m 110 815 q 95 822 99 815 q 97 838 92 828 l 176 981 q 197 993 182 993 l 257 993 q 271 982 271 993 q 268 971 271 975 l 179 828 q 158 815 171 815 l 110 815 z "},"î":{"ha":307,"x_min":-19,"x_max":317,"o":"m 121 0 q 103 18 103 0 l 103 685 q 121 703 103 703 l 183 703 q 201 685 201 703 l 201 18 q 183 0 201 0 l 121 0 m -4 806 q -19 817 -19 806 q -15 828 -19 822 l 93 969 q 115 981 100 981 l 181 981 q 203 969 196 981 l 313 828 q 317 817 317 822 q 301 806 317 806 l 257 806 q 235 817 243 806 l 154 928 q 149 931 151 931 q 144 928 146 931 l 63 817 q 40 806 54 806 l -4 806 z "},"ï":{"ha":399,"x_min":14,"x_max":379,"o":"m 171 0 q 153 18 153 0 l 153 685 q 171 703 153 703 l 233 703 q 251 685 251 703 l 251 18 q 233 0 251 0 l 171 0 m 81 847 q 33 865 51 847 q 14 911 14 883 q 33 958 14 939 q 81 976 51 976 q 126 958 108 976 q 144 911 144 939 q 126 865 144 883 q 81 847 108 847 m 314 847 q 267 865 285 847 q 249 911 249 883 q 267 958 249 939 q 314 976 285 976 q 361 958 343 976 q 379 911 379 939 q 361 865 379 883 q 314 847 343 847 z "},"ì":{"ha":307,"x_min":6,"x_max":201,"o":"m 121 0 q 103 18 103 0 l 103 685 q 121 703 103 703 l 183 703 q 201 685 201 703 l 201 18 q 183 0 201 0 l 121 0 m 179 838 q 182 828 182 829 q 178 819 182 822 q 167 815 174 815 l 118 815 q 97 828 106 815 l 8 971 q 6 982 6 975 q 19 993 6 993 l 79 993 q 100 981 93 993 l 179 838 z "},"ĳ":{"ha":656,"x_min":96,"x_max":572,"o":"m 171 829 q 117 849 138 829 q 96 901 96 869 q 117 953 96 933 q 171 972 138 972 q 225 953 204 972 q 246 901 246 933 q 225 849 246 869 q 171 829 204 829 m 140 0 q 122 18 122 0 l 122 685 q 140 703 122 703 l 203 703 q 221 685 221 703 l 221 18 q 203 0 221 0 l 140 0 m 496 826 q 442 847 463 826 q 421 899 421 867 q 443 951 421 931 q 496 971 465 971 q 551 951 529 971 q 572 899 572 931 q 551 847 572 867 q 496 826 531 826 m 301 -289 q 283 -271 283 -289 l 283 -222 q 301 -204 283 -204 q 446 -61 446 -200 l 446 685 q 464 703 446 703 l 526 703 q 544 685 544 703 l 544 -61 q 487 -233 544 -179 q 301 -289 429 -287 z "},"ī":{"ha":307,"x_min":-36,"x_max":338,"o":"m 121 0 q 103 18 103 0 l 103 685 q 121 703 103 703 l 183 703 q 201 685 201 703 l 201 18 q 183 0 201 0 l 121 0 m -18 839 q -36 857 -36 839 l -36 892 q -18 910 -36 910 l 319 910 q 338 892 338 910 l 338 857 q 319 839 338 839 l -18 839 z "},"į":{"ha":386,"x_min":96,"x_max":288,"o":"m 181 0 q 163 18 163 0 l 163 685 q 181 703 163 703 l 243 703 q 261 685 261 703 l 261 18 q 243 0 261 0 l 181 0 m 210 828 q 164 845 182 828 q 146 889 146 863 q 164 933 146 915 q 210 950 182 950 q 253 933 236 950 q 269 889 269 915 q 253 845 269 863 q 210 828 236 828 m 288 -235 q 274 -251 288 -247 q 219 -258 246 -258 q 144 -239 176 -258 q 100 -175 111 -219 q 96 -144 96 -161 q 176 -8 96 -72 q 199 0 185 0 l 225 0 q 240 -10 240 0 q 233 -22 240 -15 q 168 -131 168 -81 q 169 -147 168 -142 q 238 -197 179 -197 q 263 -194 246 -197 l 268 -193 q 283 -208 281 -193 l 288 -231 l 288 -235 z "},"j":{"ha":324,"x_min":-49,"x_max":240,"o":"m 164 826 q 110 847 131 826 q 89 899 89 867 q 111 951 89 931 q 164 971 133 971 q 219 951 197 971 q 240 899 240 931 q 219 847 240 867 q 164 826 199 826 m -31 -289 q -49 -271 -49 -289 l -49 -222 q -31 -204 -49 -204 q 114 -61 114 -200 l 114 685 q 132 703 114 703 l 194 703 q 213 685 213 703 l 213 -61 q 155 -233 213 -179 q -31 -289 97 -287 z "},"k":{"ha":696,"x_min":111,"x_max":653,"o":"m 129 0 q 111 18 111 0 l 111 954 q 129 972 111 972 l 192 972 q 210 954 210 972 l 210 393 q 213 387 210 389 q 218 389 215 385 l 508 693 q 531 703 517 703 l 604 703 q 619 692 619 703 q 615 681 619 688 l 443 490 q 442 481 439 486 l 650 21 q 653 13 653 15 q 636 0 653 0 l 571 0 q 550 14 557 0 l 374 415 q 369 419 372 418 q 364 417 367 419 l 213 258 q 210 249 210 253 l 210 18 q 192 0 210 0 l 129 0 z "},"l":{"ha":322,"x_min":111,"x_max":210,"o":"m 129 0 q 111 18 111 0 l 111 954 q 129 972 111 972 l 192 972 q 210 954 210 972 l 210 18 q 192 0 210 0 l 129 0 z "},"ĺ":{"ha":322,"x_min":107,"x_max":283,"o":"m 129 0 q 111 18 111 0 l 111 954 q 129 972 111 972 l 192 972 q 210 954 210 972 l 210 18 q 192 0 210 0 l 129 0 m 122 1071 q 108 1077 111 1071 q 110 1093 104 1083 l 189 1236 q 210 1249 194 1249 l 269 1249 q 283 1238 283 1249 q 281 1226 283 1231 l 192 1083 q 171 1071 183 1071 l 122 1071 z "},"ľ":{"ha":322,"x_min":-6,"x_max":328,"o":"m 129 0 q 111 18 111 0 l 111 954 q 129 972 111 972 l 192 972 q 210 954 210 972 l 210 18 q 192 0 210 0 l 129 0 m 125 1046 q 103 1057 111 1046 l -1 1200 q -6 1210 -6 1207 q 11 1222 -6 1222 l 53 1222 q 75 1211 67 1222 l 157 1100 q 161 1097 158 1097 q 167 1100 164 1097 l 249 1211 q 271 1222 257 1222 l 313 1222 q 328 1211 328 1222 q 324 1200 328 1207 l 219 1057 q 197 1046 211 1046 l 125 1046 z "},"ļ":{"ha":324,"x_min":24,"x_max":210,"o":"m 129 0 q 111 18 111 0 l 111 954 q 129 972 111 972 l 192 972 q 210 954 210 972 l 210 18 q 192 0 210 0 l 129 0 z "},"ł":{"ha":322,"x_min":-19,"x_max":385,"o":"m 381 581 q 385 568 385 575 q 375 556 385 561 l 214 461 q 210 453 210 458 l 210 18 q 192 0 210 0 l 129 0 q 111 18 111 0 l 111 389 q 108 395 111 393 q 103 394 106 397 l 28 350 q 17 346 22 346 q 4 356 8 346 l -17 392 l -19 403 q -10 417 -19 411 l 107 486 q 111 494 111 489 l 111 954 q 129 972 111 972 l 192 972 q 210 954 210 972 l 210 557 q 213 551 210 553 q 218 553 215 550 l 336 622 q 347 626 342 626 q 360 617 356 626 l 381 581 z "},"m":{"ha":1149,"x_min":111,"x_max":1047,"o":"m 822 713 q 987 650 926 713 q 1047 479 1047 588 l 1047 18 q 1029 0 1047 0 l 968 0 q 950 18 950 0 l 950 460 q 906 581 950 536 q 792 626 863 626 q 673 582 718 626 q 628 463 628 538 l 628 18 q 610 0 628 0 l 547 0 q 529 18 529 0 l 529 460 q 486 581 529 536 q 371 626 443 626 q 253 582 297 626 q 210 463 210 538 l 210 18 q 192 0 210 0 l 129 0 q 111 18 111 0 l 111 685 q 129 703 111 703 l 192 703 q 210 685 210 703 l 210 636 q 213 631 210 632 q 218 633 215 629 q 296 693 249 674 q 401 713 343 713 q 524 683 472 713 q 601 601 575 654 q 610 600 606 593 q 696 685 640 657 q 822 713 751 713 z "},"n":{"ha":749,"x_min":111,"x_max":644,"o":"m 403 713 q 578 647 513 713 q 644 472 644 582 l 644 18 q 626 0 644 0 l 564 0 q 546 18 546 0 l 546 453 q 500 578 546 531 q 381 626 454 626 q 263 586 310 626 q 210 481 217 546 l 210 18 q 192 0 210 0 l 129 0 q 111 18 111 0 l 111 685 q 129 703 111 703 l 192 703 q 210 685 210 703 l 210 633 q 213 627 210 629 q 217 629 215 625 q 403 713 278 713 z "},"ń":{"ha":749,"x_min":111,"x_max":644,"o":"m 403 713 q 578 647 513 713 q 644 472 644 582 l 644 18 q 626 0 644 0 l 564 0 q 546 18 546 0 l 546 453 q 500 578 546 531 q 381 626 454 626 q 263 586 310 626 q 210 481 217 546 l 210 18 q 192 0 210 0 l 129 0 q 111 18 111 0 l 111 685 q 129 703 111 703 l 192 703 q 210 685 210 703 l 210 633 q 213 627 210 629 q 217 629 215 625 q 403 713 278 713 m 336 801 q 322 808 325 801 q 324 824 318 814 l 403 967 q 424 979 408 979 l 483 979 q 497 968 497 979 q 494 957 497 961 l 406 814 q 385 801 397 801 l 336 801 z "},"ň":{"ha":749,"x_min":111,"x_max":644,"o":"m 403 713 q 578 647 513 713 q 644 472 644 582 l 644 18 q 626 0 644 0 l 564 0 q 546 18 546 0 l 546 453 q 500 578 546 531 q 381 626 454 626 q 263 586 310 626 q 210 481 217 546 l 210 18 q 192 0 210 0 l 129 0 q 111 18 111 0 l 111 685 q 129 703 111 703 l 192 703 q 210 685 210 703 l 210 633 q 213 627 210 629 q 217 629 215 625 q 403 713 278 713 m 339 788 q 317 799 325 788 l 214 940 q 210 951 210 947 q 225 963 210 963 l 267 963 q 289 951 281 963 l 371 840 q 376 838 374 838 q 381 840 379 838 l 463 951 q 485 963 471 963 l 526 963 q 542 951 542 963 q 538 940 542 947 l 433 799 q 411 788 425 788 l 339 788 z "},"ŋ":{"ha":750,"x_min":111,"x_max":649,"o":"m 644 293 q 647 286 644 286 l 649 286 l 649 -11 q 601 -180 649 -124 q 436 -240 553 -236 q 418 -222 418 -240 l 418 -176 q 436 -157 418 -158 q 550 -14 550 -149 l 550 -4 q 547 3 550 -3 q 546 18 546 7 l 546 453 q 500 578 546 531 q 381 626 454 626 q 263 586 310 626 q 210 481 217 546 l 210 18 q 192 0 210 0 l 129 0 q 111 18 111 0 l 111 685 q 129 703 111 703 l 192 703 q 210 685 210 703 l 210 633 q 213 628 210 629 q 218 631 215 626 q 403 713 278 713 q 578 647 513 713 q 644 472 644 582 l 644 293 z "},"ñ":{"ha":749,"x_min":111,"x_max":644,"o":"m 403 713 q 578 647 513 713 q 644 472 644 582 l 644 18 q 626 0 644 0 l 564 0 q 546 18 546 0 l 546 453 q 500 578 546 531 q 381 626 454 626 q 263 586 310 626 q 210 481 217 546 l 210 18 q 192 0 210 0 l 129 0 q 111 18 111 0 l 111 685 q 129 703 111 703 l 192 703 q 210 685 210 703 l 210 633 q 213 627 210 629 q 217 629 215 625 q 403 713 278 713 m 467 822 q 423 831 443 822 q 381 856 403 840 q 346 877 358 871 q 318 883 333 883 q 283 876 297 883 q 253 850 268 869 q 238 840 243 840 q 226 844 232 840 l 207 858 q 199 869 200 863 q 201 883 197 876 q 313 953 243 953 q 353 945 335 953 q 397 921 371 938 q 435 899 421 906 q 465 892 450 892 q 531 929 506 892 q 556 935 540 943 l 576 922 q 585 908 585 917 q 576 888 585 900 q 524 838 554 854 q 467 822 494 822 z "},"o":{"ha":758,"x_min":89,"x_max":669,"o":"m 381 -11 q 208 40 279 -11 q 108 182 136 92 q 89 353 89 246 q 107 522 89 458 q 206 663 135 611 q 381 714 278 714 q 552 663 481 714 q 650 524 624 611 q 669 353 669 457 q 650 182 669 246 q 551 40 622 92 q 381 -11 479 -11 m 381 75 q 494 112 447 75 q 558 211 542 149 q 569 351 569 256 q 558 492 569 451 q 495 591 543 554 q 378 628 447 628 q 264 591 311 628 q 200 492 217 554 q 189 351 189 451 q 200 211 189 251 q 263 112 215 149 q 381 75 311 75 z "},"ó":{"ha":758,"x_min":89,"x_max":669,"o":"m 381 -11 q 208 40 279 -11 q 108 182 136 92 q 89 353 89 246 q 107 522 89 458 q 206 663 135 611 q 381 714 278 714 q 552 663 481 714 q 650 524 624 611 q 669 353 669 457 q 650 182 669 246 q 551 40 622 92 q 381 -11 479 -11 m 381 75 q 494 112 447 75 q 558 211 542 149 q 569 351 569 256 q 558 492 569 451 q 495 591 543 554 q 378 628 447 628 q 264 591 311 628 q 200 492 217 554 q 189 351 189 451 q 200 211 189 251 q 263 112 215 149 q 381 75 311 75 m 338 813 q 323 819 326 813 q 325 835 319 825 l 404 978 q 425 990 410 990 l 485 990 q 499 979 499 990 q 496 968 499 972 l 407 825 q 386 813 399 813 l 338 813 z "},"ô":{"ha":758,"x_min":89,"x_max":669,"o":"m 381 -11 q 208 40 279 -11 q 108 182 136 92 q 89 353 89 246 q 107 522 89 458 q 206 663 135 611 q 381 714 278 714 q 552 663 481 714 q 650 524 624 611 q 669 353 669 457 q 650 182 669 246 q 551 40 622 92 q 381 -11 479 -11 m 381 75 q 494 112 447 75 q 558 211 542 149 q 569 351 569 256 q 558 492 569 451 q 495 591 543 554 q 378 628 447 628 q 264 591 311 628 q 200 492 217 554 q 189 351 189 451 q 200 211 189 251 q 263 112 215 149 q 381 75 311 75 m 224 803 q 208 814 208 803 q 213 825 208 819 l 321 967 q 343 978 328 978 l 408 978 q 431 967 424 978 l 540 825 q 544 814 544 819 q 529 803 544 803 l 485 803 q 463 814 471 803 l 382 925 q 376 928 379 928 q 372 925 374 928 l 290 814 q 268 803 282 803 l 224 803 z "},"ö":{"ha":758,"x_min":89,"x_max":669,"o":"m 381 -11 q 208 40 279 -11 q 108 182 136 92 q 89 353 89 246 q 107 522 89 458 q 206 663 135 611 q 381 714 278 714 q 552 663 481 714 q 650 524 624 611 q 669 353 669 457 q 650 182 669 246 q 551 40 622 92 q 381 -11 479 -11 m 381 75 q 494 112 447 75 q 558 211 542 149 q 569 351 569 256 q 558 492 569 451 q 495 591 543 554 q 378 628 447 628 q 264 591 311 628 q 200 492 217 554 q 189 351 189 451 q 200 211 189 251 q 263 112 215 149 q 381 75 311 75 m 263 844 q 215 863 233 844 q 196 908 196 881 q 215 955 196 936 q 263 974 233 974 q 308 955 290 974 q 326 908 326 936 q 308 863 326 881 q 263 844 290 844 m 496 844 q 449 863 467 844 q 431 908 431 881 q 449 955 431 936 q 496 974 467 974 q 543 955 525 974 q 561 908 561 936 q 543 863 561 881 q 496 844 525 844 z "},"ò":{"ha":758,"x_min":89,"x_max":669,"o":"m 381 -11 q 208 40 279 -11 q 108 182 136 92 q 89 353 89 246 q 107 522 89 458 q 206 663 135 611 q 381 714 278 714 q 552 663 481 714 q 650 524 624 611 q 669 353 669 457 q 650 182 669 246 q 551 40 622 92 q 381 -11 479 -11 m 381 75 q 494 112 447 75 q 558 211 542 149 q 569 351 569 256 q 558 492 569 451 q 495 591 543 554 q 378 628 447 628 q 264 591 311 628 q 200 492 217 554 q 189 351 189 451 q 200 211 189 251 q 263 112 215 149 q 381 75 311 75 m 407 835 q 410 825 410 826 q 406 816 410 819 q 394 813 401 813 l 346 813 q 325 825 333 813 l 236 968 q 233 979 233 972 q 247 990 233 990 l 307 990 q 328 978 321 990 l 407 835 z "},"ő":{"ha":758,"x_min":89,"x_max":669,"o":"m 381 -11 q 208 40 279 -11 q 108 182 136 92 q 89 353 89 246 q 107 522 89 458 q 206 663 135 611 q 381 714 278 714 q 552 663 481 714 q 650 524 624 611 q 669 353 669 457 q 650 182 669 246 q 551 40 622 92 q 381 -11 479 -11 m 381 75 q 494 112 447 75 q 558 211 542 149 q 569 351 569 256 q 558 492 569 451 q 495 591 543 554 q 378 628 447 628 q 264 591 311 628 q 200 492 217 554 q 189 351 189 451 q 200 211 189 251 q 263 112 215 149 q 381 75 311 75 m 238 810 q 224 815 228 810 q 225 831 221 821 l 299 975 q 321 988 304 988 l 375 988 q 390 981 386 988 q 388 965 393 975 l 308 822 q 288 810 301 810 l 238 810 m 465 810 q 450 815 454 810 q 451 831 446 821 l 529 975 q 550 988 535 988 l 601 988 q 616 981 613 988 q 614 965 619 975 l 533 822 q 513 810 526 810 l 465 810 z "},"ō":{"ha":758,"x_min":89,"x_max":669,"o":"m 381 -11 q 208 40 279 -11 q 108 182 136 92 q 89 353 89 246 q 107 522 89 458 q 206 663 135 611 q 381 714 278 714 q 552 663 481 714 q 650 524 624 611 q 669 353 669 457 q 650 182 669 246 q 551 40 622 92 q 381 -11 479 -11 m 381 75 q 494 112 447 75 q 558 211 542 149 q 569 351 569 256 q 558 492 569 451 q 495 591 543 554 q 378 628 447 628 q 264 591 311 628 q 200 492 217 554 q 189 351 189 451 q 200 211 189 251 q 263 112 215 149 q 381 75 311 75 m 210 836 q 192 854 192 836 l 192 889 q 210 907 192 907 l 547 907 q 565 889 565 907 l 565 854 q 547 836 565 836 l 210 836 z "},"ø":{"ha":767,"x_min":94,"x_max":678,"o":"m 658 524 q 678 353 678 457 q 658 182 678 246 q 559 40 631 92 q 389 -11 488 -11 q 221 36 292 -11 q 211 35 215 39 l 165 -35 q 153 -43 161 -43 q 140 -39 147 -43 l 103 -12 q 94 1 94 -7 q 99 13 94 7 l 154 94 q 153 104 157 100 q 117 182 132 136 q 97 353 97 246 q 115 522 97 458 q 215 663 143 611 q 389 714 286 714 q 533 679 468 714 q 543 682 539 678 l 582 742 q 594 750 586 750 q 607 746 600 750 l 644 719 q 653 706 653 714 q 649 694 653 701 l 606 631 q 607 621 603 625 q 658 524 643 576 m 211 199 q 215 194 213 194 q 221 197 218 194 l 485 596 q 486 601 488 599 q 482 604 485 603 q 386 628 439 628 q 272 591 319 628 q 208 492 225 554 q 197 351 197 451 q 208 211 197 251 l 211 199 m 567 211 q 578 351 578 256 q 567 492 578 451 q 551 533 563 513 q 542 533 546 542 l 269 122 q 271 113 264 117 q 389 75 319 75 q 503 112 456 75 q 567 211 550 149 z "},"õ":{"ha":758,"x_min":89,"x_max":669,"o":"m 381 -11 q 208 40 279 -11 q 108 182 136 92 q 89 353 89 246 q 107 522 89 458 q 206 663 135 611 q 381 714 278 714 q 552 663 481 714 q 650 524 624 611 q 669 353 669 457 q 650 182 669 246 q 551 40 622 92 q 381 -11 479 -11 m 381 75 q 494 112 447 75 q 558 211 542 149 q 569 351 569 256 q 558 492 569 451 q 495 591 543 554 q 378 628 447 628 q 264 591 311 628 q 200 492 217 554 q 189 351 189 451 q 200 211 189 251 q 263 112 215 149 q 381 75 311 75 m 468 833 q 424 842 444 833 q 382 867 404 851 q 347 888 360 882 q 319 894 335 894 q 284 888 299 894 q 254 861 269 881 q 239 851 244 851 q 228 856 233 851 l 208 869 q 200 881 201 874 q 203 894 199 888 q 314 964 244 964 q 354 956 336 964 q 399 932 372 949 q 437 910 422 917 q 467 903 451 903 q 532 940 507 903 q 557 946 542 954 l 578 933 q 586 919 586 928 q 578 899 586 911 q 526 849 556 865 q 468 833 496 833 z "},"œ":{"ha":1192,"x_min":89,"x_max":1108,"o":"m 844 74 q 945 101 900 74 q 1014 174 990 128 q 1024 184 1017 182 q 1038 182 1031 186 l 1076 158 q 1083 133 1090 149 q 984 28 1049 67 q 833 -11 919 -11 q 699 21 758 -11 q 603 108 639 53 q 594 108 599 115 q 497 22 557 54 q 365 -11 438 -11 q 198 41 268 -11 q 103 181 128 93 q 92 253 94 214 q 89 353 89 292 q 92 455 89 417 q 103 524 94 493 q 197 662 126 610 q 365 714 268 714 q 496 682 436 714 q 594 594 556 650 q 603 594 599 589 q 699 682 640 650 q 828 714 757 714 q 999 660 926 714 q 1094 522 1071 607 q 1105 456 1101 494 q 1108 342 1108 417 q 1090 322 1108 322 l 657 322 q 650 315 650 322 q 658 211 650 238 q 721 110 672 147 q 844 74 769 74 m 536 211 q 544 353 544 246 q 536 492 544 458 q 478 590 524 553 q 365 628 432 628 q 255 590 300 628 q 196 492 210 553 q 188 353 188 457 q 197 211 188 251 q 255 113 210 150 q 365 75 300 75 q 478 113 432 75 q 536 211 524 150 m 828 628 q 716 590 761 628 q 658 492 671 553 q 650 399 653 469 q 657 392 650 392 l 1001 392 q 1008 399 1008 392 q 1001 492 1006 471 q 941 590 988 553 q 828 628 894 628 z "},"p":{"ha":761,"x_min":119,"x_max":676,"o":"m 657 528 q 676 351 676 465 q 660 179 676 236 q 568 40 635 90 q 403 -11 501 -11 q 303 10 349 -11 q 226 72 257 32 q 221 75 224 76 q 218 69 218 74 l 218 -251 q 200 -269 218 -269 l 138 -269 q 119 -251 119 -269 l 119 685 q 138 703 119 703 l 200 703 q 218 685 218 703 l 218 632 q 221 627 218 628 q 226 629 224 626 q 302 692 257 669 q 403 714 347 714 q 566 664 500 714 q 657 528 632 614 m 546 176 q 570 245 563 207 q 578 351 578 283 q 572 453 578 417 q 553 519 567 490 q 494 599 536 569 q 393 628 451 628 q 300 599 338 628 q 244 521 263 569 q 226 456 232 493 q 221 351 221 418 q 226 247 221 285 q 246 179 232 208 q 301 103 263 132 q 392 75 339 75 q 488 103 447 75 q 546 176 528 131 z "},"þ":{"ha":744,"x_min":111,"x_max":661,"o":"m 644 524 q 661 351 661 467 q 642 175 661 238 q 551 39 617 89 q 388 -11 485 -11 q 218 65 283 -11 q 213 67 215 68 q 210 61 210 65 l 210 -260 q 192 -278 210 -278 l 129 -278 q 111 -260 111 -278 l 111 954 q 129 972 111 972 l 192 972 q 210 954 210 972 l 210 643 q 213 638 210 639 q 218 639 215 636 q 388 714 282 714 q 553 663 486 714 q 644 524 619 613 m 538 183 q 557 249 551 213 q 563 351 563 286 q 555 458 563 419 q 531 526 547 496 q 472 600 513 572 q 376 628 432 628 q 285 599 324 628 q 231 524 247 571 q 210 443 215 489 l 210 257 q 229 182 215 211 q 285 104 247 133 q 378 75 322 75 q 478 104 436 75 q 538 183 521 133 z "},"q":{"ha":761,"x_min":85,"x_max":642,"o":"m 543 685 q 561 703 543 703 l 624 703 q 642 685 642 703 l 642 -251 q 624 -269 642 -269 l 561 -269 q 543 -251 543 -269 l 543 69 q 540 75 543 74 q 535 72 538 76 q 458 10 504 32 q 358 -11 413 -11 q 193 40 260 -11 q 101 179 126 90 q 85 351 85 236 q 104 528 85 465 q 195 664 129 614 q 358 714 261 714 q 459 692 414 714 q 535 629 504 669 q 540 627 538 626 q 543 632 543 628 l 543 685 m 515 179 q 535 247 529 208 q 540 351 540 285 q 535 456 540 418 q 517 521 529 493 q 461 599 499 569 q 368 628 424 628 q 267 599 310 628 q 208 519 225 569 q 189 453 194 490 q 183 351 183 417 q 191 245 183 283 q 215 176 199 207 q 274 103 233 131 q 369 75 314 75 q 460 103 422 75 q 515 179 499 132 z "},"r":{"ha":506,"x_min":111,"x_max":485,"o":"m 394 710 q 471 693 440 710 q 481 671 485 688 l 467 610 q 444 599 463 593 q 376 606 418 607 q 257 552 304 603 q 210 424 210 501 l 210 18 q 192 0 210 0 l 129 0 q 111 18 111 0 l 111 685 q 129 703 111 703 l 192 703 q 210 685 210 703 l 210 607 q 212 601 210 601 q 217 604 214 600 q 291 682 246 654 q 394 710 336 710 z "},"ŕ":{"ha":506,"x_min":111,"x_max":482,"o":"m 394 710 q 471 693 440 710 q 481 671 485 688 l 467 610 q 444 599 463 593 q 376 606 418 607 q 257 552 304 603 q 210 424 210 501 l 210 18 q 192 0 210 0 l 129 0 q 111 18 111 0 l 111 685 q 129 703 111 703 l 192 703 q 210 685 210 703 l 210 607 q 212 601 210 601 q 217 604 214 600 q 291 682 246 654 q 394 710 336 710 m 261 811 q 247 817 250 811 q 249 833 243 824 l 328 976 q 349 989 333 989 l 408 989 q 422 978 422 989 q 419 967 422 971 l 331 824 q 310 811 322 811 l 261 811 z "},"ř":{"ha":506,"x_min":111,"x_max":482,"o":"m 394 710 q 471 693 440 710 q 481 671 485 688 l 467 610 q 444 599 463 593 q 376 606 418 607 q 257 552 304 603 q 210 424 210 501 l 210 18 q 192 0 210 0 l 129 0 q 111 18 111 0 l 111 685 q 129 703 111 703 l 192 703 q 210 685 210 703 l 210 607 q 212 601 210 601 q 217 604 214 600 q 291 682 246 654 q 394 710 336 710 m 264 797 q 242 808 250 797 l 139 950 q 135 961 135 957 q 150 972 135 972 l 192 972 q 214 961 206 972 l 296 850 q 301 847 299 847 q 306 850 304 847 l 388 961 q 410 972 396 972 l 451 972 q 467 961 467 972 q 463 950 467 957 l 358 808 q 336 797 350 797 l 264 797 z "},"s":{"ha":669,"x_min":78,"x_max":600,"o":"m 342 -7 q 203 18 264 -7 q 110 85 143 43 q 78 178 78 126 l 78 190 q 96 208 78 208 l 156 208 q 169 205 164 208 q 174 196 174 201 l 174 183 q 221 103 174 138 q 340 69 268 69 q 457 102 413 69 q 501 185 501 135 q 479 242 501 219 q 425 276 457 264 q 329 308 393 289 q 201 353 251 331 q 117 415 151 375 q 82 515 82 454 q 152 657 82 604 q 336 710 222 710 q 472 685 413 710 q 563 616 531 660 q 594 518 594 572 q 576 500 594 500 l 519 500 q 501 510 501 500 l 501 518 q 456 597 501 565 q 335 629 411 629 q 221 601 264 629 q 178 522 178 572 q 219 450 178 475 q 347 400 260 425 q 478 357 428 378 q 564 296 528 336 q 600 192 600 256 q 530 47 600 101 q 342 -7 460 -7 z "},"ś":{"ha":669,"x_min":78,"x_max":600,"o":"m 342 -7 q 203 18 264 -7 q 110 85 143 43 q 78 178 78 126 l 78 190 q 96 208 78 208 l 156 208 q 169 205 164 208 q 174 196 174 201 l 174 183 q 221 103 174 138 q 340 69 268 69 q 457 102 413 69 q 501 185 501 135 q 479 242 501 219 q 425 276 457 264 q 329 308 393 289 q 201 353 251 331 q 117 415 151 375 q 82 515 82 454 q 152 657 82 604 q 336 710 222 710 q 472 685 413 710 q 563 616 531 660 q 594 518 594 572 q 576 500 594 500 l 519 500 q 501 510 501 500 l 501 518 q 456 597 501 565 q 335 629 411 629 q 221 601 264 629 q 178 522 178 572 q 219 450 178 475 q 347 400 260 425 q 478 357 428 378 q 564 296 528 336 q 600 192 600 256 q 530 47 600 101 q 342 -7 460 -7 m 296 808 q 281 815 285 808 q 283 831 278 821 l 363 974 q 383 986 368 986 l 443 986 q 457 975 457 986 q 454 964 457 968 l 365 821 q 344 808 357 808 l 296 808 z "},"š":{"ha":669,"x_min":78,"x_max":600,"o":"m 342 -7 q 203 18 264 -7 q 110 85 143 43 q 78 178 78 126 l 78 190 q 96 208 78 208 l 156 208 q 169 205 164 208 q 174 196 174 201 l 174 183 q 221 103 174 138 q 340 69 268 69 q 457 102 413 69 q 501 185 501 135 q 479 242 501 219 q 425 276 457 264 q 329 308 393 289 q 201 353 251 331 q 117 415 151 375 q 82 515 82 454 q 152 657 82 604 q 336 710 222 710 q 472 685 413 710 q 563 616 531 660 q 594 518 594 572 q 576 500 594 500 l 519 500 q 501 510 501 500 l 501 518 q 456 597 501 565 q 335 629 411 629 q 221 601 264 629 q 178 522 178 572 q 219 450 178 475 q 347 400 260 425 q 478 357 428 378 q 564 296 528 336 q 600 192 600 256 q 530 47 600 101 q 342 -7 460 -7 m 299 794 q 276 806 285 794 l 174 947 q 169 958 169 954 q 185 969 169 969 l 226 969 q 249 958 240 969 l 331 847 q 336 844 333 844 q 340 847 339 844 l 422 958 q 444 969 431 969 l 486 969 q 501 958 501 969 q 497 947 501 954 l 393 806 q 371 794 385 794 l 299 794 z "},"ş":{"ha":669,"x_min":78,"x_max":600,"o":"m 600 192 q 543 59 600 111 q 389 -4 486 7 q 386 -12 381 -7 q 456 -140 456 -74 q 451 -171 456 -157 q 408 -235 440 -215 q 332 -254 375 -254 q 278 -247 306 -254 q 264 -226 261 -243 l 268 -204 q 289 -190 269 -186 q 314 -193 306 -193 q 364 -177 344 -193 q 383 -128 383 -161 q 308 -8 383 -71 q 300 -6 303 -6 q 139 56 200 4 q 78 178 78 108 l 78 190 q 96 208 78 208 l 156 208 q 169 205 164 208 q 174 196 174 201 l 174 183 q 221 103 174 138 q 340 69 268 69 q 457 102 413 69 q 501 185 501 135 q 479 242 501 219 q 425 276 457 264 q 329 308 393 289 q 201 353 251 331 q 117 415 151 375 q 82 515 82 454 q 152 657 82 604 q 336 710 222 710 q 472 685 413 710 q 563 616 531 660 q 594 518 594 572 q 576 500 594 500 l 519 500 q 501 510 501 500 l 501 518 q 456 597 501 565 q 335 629 411 629 q 221 601 264 629 q 178 522 178 572 q 219 450 178 475 q 347 400 260 425 q 478 357 428 378 q 564 296 528 336 q 600 192 600 256 z "},"ß":{"ha":818,"x_min":111,"x_max":728,"o":"m 129 0 q 111 18 111 0 l 111 708 q 194 910 113 836 q 407 985 275 985 q 636 916 554 985 q 718 725 718 847 q 688 599 718 651 q 597 522 657 547 q 597 514 589 518 q 692 424 657 488 q 728 271 728 360 q 643 71 728 142 q 392 0 558 0 l 300 0 q 282 18 282 0 l 282 67 q 300 85 282 85 l 403 85 q 572 135 515 85 q 629 279 629 186 q 579 426 629 375 q 431 478 529 476 l 333 478 q 315 496 315 478 l 315 539 q 333 557 315 557 l 433 557 q 572 599 525 557 q 619 719 619 642 q 568 851 619 804 q 413 899 517 899 q 269 849 328 899 q 210 715 211 800 l 210 18 q 192 0 210 0 l 129 0 z "},"t":{"ha":506,"x_min":50,"x_max":426,"o":"m 426 639 q 408 621 426 621 l 257 621 q 250 614 250 621 l 250 208 q 280 115 250 142 q 374 88 310 88 l 404 88 q 422 69 422 88 l 422 21 q 404 1 422 3 l 357 1 q 206 39 257 1 q 154 178 154 76 l 154 614 q 147 621 154 621 l 68 621 q 50 639 50 621 l 50 685 q 68 703 50 703 l 147 703 q 154 710 154 703 l 154 865 q 172 883 154 883 l 232 883 q 250 865 250 883 l 250 710 q 257 703 250 703 l 408 703 q 426 685 426 703 l 426 639 z "},"ŧ":{"ha":833,"x_min":50,"x_max":426,"o":"m 426 639 q 408 621 426 621 l 257 621 q 250 614 250 621 l 250 490 q 257 483 250 483 l 403 483 q 421 465 421 483 l 421 436 q 403 418 421 418 l 257 418 q 250 411 250 418 l 250 208 q 280 115 250 142 q 374 88 310 88 l 404 88 q 422 69 422 88 l 422 21 q 404 1 422 3 l 357 1 q 206 39 257 1 q 154 178 154 76 l 154 411 q 147 418 154 418 l 76 418 q 58 436 58 418 l 58 465 q 76 483 58 483 l 147 483 q 154 490 154 483 l 154 614 q 147 621 154 621 l 68 621 q 50 639 50 621 l 50 685 q 68 703 50 703 l 147 703 q 154 710 154 703 l 154 865 q 172 883 154 883 l 232 883 q 250 865 250 883 l 250 710 q 257 703 250 703 l 408 703 q 426 685 426 703 l 426 639 z "},"ť":{"ha":506,"x_min":36,"x_max":426,"o":"m 426 639 q 408 621 426 621 l 257 621 q 250 614 250 621 l 250 208 q 280 115 250 142 q 374 88 310 88 l 404 88 q 422 69 422 88 l 422 21 q 404 1 422 3 l 357 1 q 206 39 257 1 q 154 178 154 76 l 154 614 q 147 621 154 621 l 68 621 q 50 639 50 621 l 50 685 q 68 703 50 703 l 147 703 q 154 710 154 703 l 154 865 q 172 883 154 883 l 232 883 q 250 865 250 883 l 250 710 q 257 703 250 703 l 408 703 q 426 685 426 703 l 426 639 m 167 956 q 144 967 153 956 l 40 1110 q 36 1119 36 1117 q 53 1132 36 1132 l 94 1132 q 117 1121 108 1132 l 199 1010 q 203 1007 200 1007 q 208 1010 206 1007 l 290 1121 q 313 1132 299 1132 l 354 1132 q 369 1121 369 1132 q 365 1110 369 1117 l 261 967 q 239 956 253 956 l 167 956 z "},"u":{"ha":744,"x_min":100,"x_max":635,"o":"m 536 685 q 554 703 536 703 l 617 703 q 635 685 635 703 l 635 18 q 617 0 635 0 l 554 0 q 536 18 536 0 l 536 71 q 533 76 536 75 q 528 74 531 78 q 344 -10 468 -10 q 222 17 278 -10 q 133 96 165 44 q 100 219 100 147 l 100 685 q 118 703 100 703 l 181 703 q 199 685 199 703 l 199 249 q 243 123 199 169 q 364 76 288 76 q 490 124 443 76 q 536 249 536 171 l 536 685 z "},"ú":{"ha":744,"x_min":100,"x_max":635,"o":"m 536 685 q 554 703 536 703 l 617 703 q 635 685 635 703 l 635 18 q 617 0 635 0 l 554 0 q 536 18 536 0 l 536 71 q 533 76 536 75 q 528 74 531 78 q 344 -10 468 -10 q 222 17 278 -10 q 133 96 165 44 q 100 219 100 147 l 100 685 q 118 703 100 703 l 181 703 q 199 685 199 703 l 199 249 q 243 123 199 169 q 364 76 288 76 q 490 124 443 76 q 536 249 536 171 l 536 685 m 329 801 q 315 808 318 801 q 317 824 311 814 l 396 967 q 417 979 401 979 l 476 979 q 490 968 490 979 q 488 957 490 961 l 399 814 q 378 801 390 801 l 329 801 z "},"û":{"ha":744,"x_min":100,"x_max":635,"o":"m 536 685 q 554 703 536 703 l 617 703 q 635 685 635 703 l 635 18 q 617 0 635 0 l 554 0 q 536 18 536 0 l 536 71 q 533 76 536 75 q 528 74 531 78 q 344 -10 468 -10 q 222 17 278 -10 q 133 96 165 44 q 100 219 100 147 l 100 685 q 118 703 100 703 l 181 703 q 199 685 199 703 l 199 249 q 243 123 199 169 q 364 76 288 76 q 490 124 443 76 q 536 249 536 171 l 536 685 m 215 792 q 200 803 200 792 q 204 814 200 808 l 313 956 q 335 967 319 967 l 400 967 q 422 956 415 967 l 532 814 q 536 803 536 808 q 521 792 536 792 l 476 792 q 454 803 463 792 l 374 914 q 368 917 371 917 q 364 914 365 917 l 282 803 q 260 792 274 792 l 215 792 z "},"ü":{"ha":744,"x_min":100,"x_max":635,"o":"m 536 685 q 554 703 536 703 l 617 703 q 635 685 635 703 l 635 18 q 617 0 635 0 l 554 0 q 536 18 536 0 l 536 71 q 533 76 536 75 q 528 74 531 78 q 344 -10 468 -10 q 222 17 278 -10 q 133 96 165 44 q 100 219 100 147 l 100 685 q 118 703 100 703 l 181 703 q 199 685 199 703 l 199 249 q 243 123 199 169 q 364 76 288 76 q 490 124 443 76 q 536 249 536 171 l 536 685 m 254 833 q 206 851 225 833 q 188 897 188 869 q 206 944 188 925 q 254 963 225 963 q 300 944 282 963 q 318 897 318 925 q 300 851 318 869 q 254 833 282 833 m 488 833 q 440 851 458 833 q 422 897 422 869 q 440 944 422 925 q 488 963 458 963 q 535 944 517 963 q 553 897 553 925 q 535 851 553 869 q 488 833 517 833 z "},"ù":{"ha":744,"x_min":100,"x_max":635,"o":"m 536 685 q 554 703 536 703 l 617 703 q 635 685 635 703 l 635 18 q 617 0 635 0 l 554 0 q 536 18 536 0 l 536 71 q 533 76 536 75 q 528 74 531 78 q 344 -10 468 -10 q 222 17 278 -10 q 133 96 165 44 q 100 219 100 147 l 100 685 q 118 703 100 703 l 181 703 q 199 685 199 703 l 199 249 q 243 123 199 169 q 364 76 288 76 q 490 124 443 76 q 536 249 536 171 l 536 685 m 399 824 q 401 814 401 815 q 397 805 401 808 q 386 801 393 801 l 338 801 q 317 814 325 801 l 228 957 q 225 968 225 961 q 239 979 225 979 l 299 979 q 319 967 313 979 l 399 824 z "},"ű":{"ha":744,"x_min":100,"x_max":635,"o":"m 536 685 q 554 703 536 703 l 617 703 q 635 685 635 703 l 635 18 q 617 0 635 0 l 554 0 q 536 18 536 0 l 536 71 q 533 76 536 75 q 528 74 531 78 q 344 -10 468 -10 q 222 17 278 -10 q 133 96 165 44 q 100 219 100 147 l 100 685 q 118 703 100 703 l 181 703 q 199 685 199 703 l 199 249 q 243 123 199 169 q 364 76 288 76 q 490 124 443 76 q 536 249 536 171 l 536 685 m 229 799 q 216 804 219 799 q 217 819 213 810 l 290 964 q 313 976 296 976 l 367 976 q 381 970 378 976 q 379 954 385 964 l 300 811 q 279 799 293 799 l 229 799 m 457 799 q 442 804 446 799 q 443 819 438 810 l 521 964 q 542 976 526 976 l 593 976 q 608 970 604 976 q 606 954 611 964 l 525 811 q 504 799 518 799 l 457 799 z "},"ū":{"ha":744,"x_min":100,"x_max":635,"o":"m 536 685 q 554 703 536 703 l 617 703 q 635 685 635 703 l 635 18 q 617 0 635 0 l 554 0 q 536 18 536 0 l 536 71 q 533 76 536 75 q 528 74 531 78 q 344 -10 468 -10 q 222 17 278 -10 q 133 96 165 44 q 100 219 100 147 l 100 685 q 118 703 100 703 l 181 703 q 199 685 199 703 l 199 249 q 243 123 199 169 q 364 76 288 76 q 490 124 443 76 q 536 249 536 171 l 536 685 m 201 825 q 183 843 183 825 l 183 878 q 201 896 183 896 l 539 896 q 557 878 557 896 l 557 843 q 539 825 557 825 l 201 825 z "},"ģ":{"ha":743,"x_min":85,"x_max":643,"o":"m 464 972 q 478 966 475 972 q 476 950 482 960 l 397 807 q 376 794 392 794 l 317 794 q 303 806 303 794 q 306 817 303 813 l 394 960 q 415 972 403 972 l 464 972 m 544 685 q 563 703 544 703 l 625 703 q 643 685 643 703 l 643 24 q 553 -204 643 -132 q 307 -276 463 -276 q 263 -275 278 -276 q 244 -256 244 -274 l 247 -200 q 265 -183 247 -181 q 478 -140 413 -190 q 544 26 544 -90 l 544 75 q 542 81 544 79 q 536 78 539 82 q 356 -4 472 -4 q 195 44 265 -4 q 101 182 125 93 q 85 351 85 239 q 88 454 85 413 q 103 529 92 496 q 193 663 128 613 q 350 714 258 714 q 536 635 471 714 q 542 632 539 631 q 544 638 544 633 l 544 685 m 538 213 q 543 264 542 233 q 544 353 544 294 q 543 448 544 424 q 536 493 542 472 q 481 590 525 551 q 371 628 438 628 q 260 590 306 628 q 197 493 215 553 q 183 354 183 449 q 197 214 183 253 q 258 117 211 156 q 371 79 304 79 q 483 117 439 79 q 538 213 526 154 z "},"ķ":{"ha":696,"x_min":111,"x_max":653,"o":"m 129 0 q 111 18 111 0 l 111 954 q 129 972 111 972 l 192 972 q 210 954 210 972 l 210 393 q 213 387 210 389 q 218 389 215 385 l 508 693 q 531 703 517 703 l 604 703 q 619 692 619 703 q 615 681 619 688 l 443 490 q 442 481 439 486 l 650 21 q 653 13 653 15 q 636 0 653 0 l 571 0 q 550 14 557 0 l 374 415 q 369 419 372 418 q 364 417 367 419 l 213 258 q 210 249 210 253 l 210 18 q 192 0 210 0 l 129 0 z "},"ņ":{"ha":749,"x_min":111,"x_max":644,"o":"m 403 713 q 578 647 513 713 q 644 472 644 582 l 644 18 q 626 0 644 0 l 564 0 q 546 18 546 0 l 546 453 q 500 578 546 531 q 381 626 454 626 q 263 586 310 626 q 210 481 217 546 l 210 18 q 192 0 210 0 l 129 0 q 111 18 111 0 l 111 685 q 129 703 111 703 l 192 703 q 210 685 210 703 l 210 633 q 213 627 210 629 q 217 629 215 625 q 403 713 278 713 z "},"ŗ":{"ha":510,"x_min":21,"x_max":482,"o":"m 394 710 q 471 693 440 710 q 481 671 485 688 l 467 610 q 444 599 463 593 q 376 606 418 607 q 257 552 304 603 q 210 424 210 501 l 210 18 q 192 0 210 0 l 129 0 q 111 18 111 0 l 111 685 q 129 703 111 703 l 192 703 q 210 685 210 703 l 210 607 q 212 601 210 601 q 217 604 214 600 q 291 682 246 654 q 394 710 336 710 z "},"ţ":{"ha":506,"x_min":50,"x_max":436,"o":"m 426 639 q 408 621 426 621 l 257 621 q 250 614 250 621 l 250 208 q 280 115 250 142 q 374 88 310 88 l 404 88 q 422 69 422 88 l 422 21 q 404 1 422 3 l 357 1 q 206 39 257 1 q 154 178 154 76 l 154 614 q 147 621 154 621 l 68 621 q 50 639 50 621 l 50 685 q 68 703 50 703 l 147 703 q 154 710 154 703 l 154 865 q 172 883 154 883 l 232 883 q 250 865 250 883 l 250 710 q 257 703 250 703 l 408 703 q 426 685 426 703 l 426 639 m 258 -269 q 244 -249 242 -265 l 249 -226 q 269 -212 250 -208 q 294 -215 286 -215 q 363 -165 353 -215 q 364 -149 364 -160 q 299 -40 364 -99 q 292 -28 292 -33 q 307 -18 292 -18 l 333 -18 q 356 -26 347 -18 q 436 -162 436 -90 q 432 -193 436 -179 q 388 -257 421 -237 q 313 -276 356 -276 q 258 -269 286 -276 z "},"ș":{"ha":669,"x_min":78,"x_max":600,"o":"m 342 -7 q 203 18 264 -7 q 110 85 143 43 q 78 178 78 126 l 78 190 q 96 208 78 208 l 156 208 q 169 205 164 208 q 174 196 174 201 l 174 183 q 221 103 174 138 q 340 69 268 69 q 457 102 413 69 q 501 185 501 135 q 479 242 501 219 q 425 276 457 264 q 329 308 393 289 q 201 353 251 331 q 117 415 151 375 q 82 515 82 454 q 152 657 82 604 q 336 710 222 710 q 472 685 413 710 q 563 616 531 660 q 594 518 594 572 q 576 500 594 500 l 519 500 q 501 510 501 500 l 501 518 q 456 597 501 565 q 335 629 411 629 q 221 601 264 629 q 178 522 178 572 q 219 450 178 475 q 347 400 260 425 q 478 357 428 378 q 564 296 528 336 q 600 192 600 256 q 530 47 600 101 q 342 -7 460 -7 z "},"ț":{"ha":506,"x_min":50,"x_max":426,"o":"m 426 639 q 408 621 426 621 l 257 621 q 250 614 250 621 l 250 208 q 280 115 250 142 q 374 88 310 88 l 404 88 q 422 69 422 88 l 422 21 q 404 1 422 3 l 357 1 q 206 39 257 1 q 154 178 154 76 l 154 614 q 147 621 154 621 l 68 621 q 50 639 50 621 l 50 685 q 68 703 50 703 l 147 703 q 154 710 154 703 l 154 865 q 172 883 154 883 l 232 883 q 250 865 250 883 l 250 710 q 257 703 250 703 l 408 703 q 426 685 426 703 l 426 639 z "},"ų":{"ha":749,"x_min":100,"x_max":667,"o":"m 647 -193 q 663 -208 660 -193 l 667 -231 l 667 -235 q 653 -251 667 -247 q 599 -258 625 -258 q 523 -239 556 -258 q 479 -175 490 -219 q 475 -143 475 -158 q 554 -8 475 -72 q 560 -3 558 -6 q 560 0 563 0 l 554 0 q 536 18 536 0 l 536 71 q 533 76 536 75 q 528 74 531 78 q 344 -10 468 -10 q 222 17 278 -10 q 133 96 165 44 q 100 219 100 147 l 100 685 q 118 703 100 703 l 181 703 q 199 685 199 703 l 199 249 q 243 123 199 169 q 364 76 288 76 q 490 124 443 76 q 536 249 536 171 l 536 685 q 554 703 536 703 l 617 703 q 635 685 635 703 l 635 4 q 632 -4 635 -1 q 613 -22 628 -7 q 547 -131 547 -81 q 549 -147 547 -142 q 617 -197 558 -197 q 642 -194 625 -197 l 647 -193 z "},"ů":{"ha":744,"x_min":100,"x_max":635,"o":"m 536 685 q 554 703 536 703 l 617 703 q 635 685 635 703 l 635 18 q 617 0 635 0 l 554 0 q 536 18 536 0 l 536 71 q 533 76 536 75 q 528 74 531 78 q 344 -10 468 -10 q 222 17 278 -10 q 133 96 165 44 q 100 219 100 147 l 100 685 q 118 703 100 703 l 181 703 q 199 685 199 703 l 199 249 q 243 123 199 169 q 364 76 288 76 q 490 124 443 76 q 536 249 536 171 l 536 685 m 369 790 q 266 832 308 790 q 224 933 224 874 q 266 1034 224 993 q 369 1075 308 1075 q 472 1034 431 1075 q 514 933 514 993 q 472 832 514 874 q 369 790 431 790 m 369 844 q 433 870 407 844 q 458 933 458 896 q 432 997 458 971 q 369 1022 406 1022 q 306 997 332 1022 q 279 933 279 971 q 306 870 279 896 q 369 844 332 844 z "},"v":{"ha":660,"x_min":46,"x_max":615,"o":"m 293 0 q 272 15 276 0 l 47 682 q 46 689 46 685 q 51 699 46 694 q 63 703 56 703 l 133 703 q 153 688 149 703 l 326 147 q 331 142 328 142 q 335 147 333 142 l 508 688 q 528 703 513 703 l 599 701 q 612 696 608 701 q 613 681 615 690 l 389 15 q 368 0 385 0 l 293 0 z "},"w":{"ha":1001,"x_min":44,"x_max":958,"o":"m 260 0 q 240 15 244 0 l 46 682 q 44 689 44 685 q 49 699 44 694 q 61 703 54 703 l 126 703 q 146 688 142 703 l 290 146 q 294 142 292 142 q 299 146 297 142 l 447 688 q 467 703 451 703 l 528 703 q 547 688 543 703 l 699 146 q 703 142 700 142 q 707 146 706 142 l 856 688 q 876 703 860 703 l 940 701 q 954 696 950 701 q 956 681 958 690 l 758 15 q 739 0 754 0 l 671 0 q 651 15 656 0 l 501 528 q 497 532 500 532 q 493 528 494 532 l 349 15 q 329 0 344 0 l 260 0 z "},"ẃ":{"ha":1001,"x_min":44,"x_max":957,"o":"m 260 0 q 240 15 244 0 l 46 682 q 44 689 44 685 q 49 699 44 694 q 61 703 54 703 l 126 703 q 146 688 142 703 l 290 146 q 294 142 292 142 q 299 146 297 142 l 447 688 q 467 703 451 703 l 528 703 q 547 688 543 703 l 699 146 q 703 142 700 142 q 707 146 706 142 l 856 688 q 876 703 860 703 l 940 701 q 954 696 950 701 q 956 681 958 690 l 758 15 q 739 0 754 0 l 671 0 q 651 15 656 0 l 501 528 q 497 532 500 532 q 493 528 494 532 l 349 15 q 329 0 344 0 l 260 0 m 454 801 q 440 808 443 801 q 442 824 436 814 l 521 967 q 542 979 526 979 l 601 979 q 615 968 615 979 q 613 957 615 961 l 524 814 q 503 801 515 801 l 454 801 z "},"ŵ":{"ha":1001,"x_min":44,"x_max":957,"o":"m 260 0 q 240 15 244 0 l 46 682 q 44 689 44 685 q 49 699 44 694 q 61 703 54 703 l 126 703 q 146 688 142 703 l 290 146 q 294 142 292 142 q 299 146 297 142 l 447 688 q 467 703 451 703 l 528 703 q 547 688 543 703 l 699 146 q 703 142 700 142 q 707 146 706 142 l 856 688 q 876 703 860 703 l 940 701 q 954 696 950 701 q 956 681 958 690 l 758 15 q 739 0 754 0 l 671 0 q 651 15 656 0 l 501 528 q 497 532 500 532 q 493 528 494 532 l 349 15 q 329 0 344 0 l 260 0 m 340 792 q 325 803 325 792 q 329 814 325 808 l 438 956 q 460 967 444 967 l 525 967 q 547 956 540 967 l 657 814 q 661 803 661 808 q 646 792 661 792 l 601 792 q 579 803 588 792 l 499 914 q 493 917 496 917 q 489 914 490 917 l 407 803 q 385 792 399 792 l 340 792 z "},"ẅ":{"ha":1001,"x_min":44,"x_max":957,"o":"m 260 0 q 240 15 244 0 l 46 682 q 44 689 44 685 q 49 699 44 694 q 61 703 54 703 l 126 703 q 146 688 142 703 l 290 146 q 294 142 292 142 q 299 146 297 142 l 447 688 q 467 703 451 703 l 528 703 q 547 688 543 703 l 699 146 q 703 142 700 142 q 707 146 706 142 l 856 688 q 876 703 860 703 l 940 701 q 954 696 950 701 q 956 681 958 690 l 758 15 q 739 0 754 0 l 671 0 q 651 15 656 0 l 501 528 q 497 532 500 532 q 493 528 494 532 l 349 15 q 329 0 344 0 l 260 0 m 379 833 q 331 851 350 833 q 313 897 313 869 q 331 944 313 925 q 379 963 350 963 q 425 944 407 963 q 443 897 443 925 q 425 851 443 869 q 379 833 407 833 m 613 833 q 565 851 583 833 q 547 897 547 869 q 565 944 547 925 q 613 963 583 963 q 660 944 642 963 q 678 897 678 925 q 660 851 678 869 q 613 833 642 833 z "},"ẁ":{"ha":1001,"x_min":44,"x_max":957,"o":"m 260 0 q 240 15 244 0 l 46 682 q 44 689 44 685 q 49 699 44 694 q 61 703 54 703 l 126 703 q 146 688 142 703 l 290 146 q 294 142 292 142 q 299 146 297 142 l 447 688 q 467 703 451 703 l 528 703 q 547 688 543 703 l 699 146 q 703 142 700 142 q 707 146 706 142 l 856 688 q 876 703 860 703 l 940 701 q 954 696 950 701 q 956 681 958 690 l 758 15 q 739 0 754 0 l 671 0 q 651 15 656 0 l 501 528 q 497 532 500 532 q 493 528 494 532 l 349 15 q 329 0 344 0 l 260 0 m 524 824 q 526 814 526 815 q 522 805 526 808 q 511 801 518 801 l 463 801 q 442 814 450 801 l 353 957 q 350 968 350 961 q 364 979 350 979 l 424 979 q 444 967 438 979 l 524 824 z "},"x":{"ha":663,"x_min":40,"x_max":625,"o":"m 57 0 q 44 7 47 0 q 46 22 40 14 l 274 347 q 274 356 276 351 l 46 681 q 42 690 42 688 q 46 699 42 696 q 57 703 50 703 l 124 703 q 146 692 138 703 l 324 433 q 329 431 326 431 q 333 433 332 431 l 511 692 q 533 703 519 703 l 607 703 q 622 696 618 703 q 618 681 625 689 l 389 356 q 389 347 388 351 l 618 22 q 622 13 622 17 q 618 3 622 7 q 607 0 614 0 l 539 0 q 517 11 525 0 l 339 269 q 335 272 338 272 q 329 269 332 272 l 150 11 q 128 0 142 0 l 57 0 z "},"y":{"ha":640,"x_min":36,"x_max":606,"o":"m 79 -278 q 69 -260 69 -278 l 69 -211 q 79 -193 69 -193 l 89 -193 q 173 -178 143 -193 q 224 -124 203 -162 q 271 -4 246 -85 q 271 4 272 -1 l 38 682 q 36 689 36 685 q 41 699 36 694 q 53 703 46 703 l 118 703 q 139 688 135 703 l 318 143 q 322 138 319 138 q 326 143 325 138 l 501 688 q 521 703 506 703 l 588 703 q 601 697 597 703 q 603 682 606 692 l 347 -61 q 285 -199 314 -154 q 212 -260 256 -243 q 89 -278 168 -278 l 79 -278 z "},"ý":{"ha":640,"x_min":36,"x_max":604,"o":"m 79 -278 q 69 -260 69 -278 l 69 -211 q 79 -193 69 -193 l 89 -193 q 173 -178 143 -193 q 224 -124 203 -162 q 271 -4 246 -85 q 271 4 272 -1 l 38 682 q 36 689 36 685 q 41 699 36 694 q 53 703 46 703 l 118 703 q 139 688 135 703 l 318 143 q 322 138 319 138 q 326 143 325 138 l 501 688 q 521 703 506 703 l 588 703 q 601 697 597 703 q 603 682 606 692 l 347 -61 q 285 -199 314 -154 q 212 -260 256 -243 q 89 -278 168 -278 l 79 -278 m 279 807 q 265 813 268 807 q 267 829 261 819 l 346 972 q 367 985 351 985 l 426 985 q 440 974 440 985 q 438 963 440 967 l 349 819 q 328 807 340 807 l 279 807 z "},"ŷ":{"ha":640,"x_min":36,"x_max":604,"o":"m 79 -278 q 69 -260 69 -278 l 69 -211 q 79 -193 69 -193 l 89 -193 q 173 -178 143 -193 q 224 -124 203 -162 q 271 -4 246 -85 q 271 4 272 -1 l 38 682 q 36 689 36 685 q 41 699 36 694 q 53 703 46 703 l 118 703 q 139 688 135 703 l 318 143 q 322 138 319 138 q 326 143 325 138 l 501 688 q 521 703 506 703 l 588 703 q 601 697 597 703 q 603 682 606 692 l 347 -61 q 285 -199 314 -154 q 212 -260 256 -243 q 89 -278 168 -278 l 79 -278 m 165 797 q 150 808 150 797 q 154 819 150 814 l 263 961 q 285 972 269 972 l 350 972 q 372 961 365 972 l 482 819 q 486 808 486 814 q 471 797 486 797 l 426 797 q 404 808 413 797 l 324 919 q 318 922 321 922 q 314 919 315 922 l 232 808 q 210 797 224 797 l 165 797 z "},"ÿ":{"ha":640,"x_min":36,"x_max":604,"o":"m 79 -278 q 69 -260 69 -278 l 69 -211 q 79 -193 69 -193 l 89 -193 q 173 -178 143 -193 q 224 -124 203 -162 q 271 -4 246 -85 q 271 4 272 -1 l 38 682 q 36 689 36 685 q 41 699 36 694 q 53 703 46 703 l 118 703 q 139 688 135 703 l 318 143 q 322 138 319 138 q 326 143 325 138 l 501 688 q 521 703 506 703 l 588 703 q 601 697 597 703 q 603 682 606 692 l 347 -61 q 285 -199 314 -154 q 212 -260 256 -243 q 89 -278 168 -278 l 79 -278 m 204 839 q 156 857 175 839 q 138 903 138 875 q 156 949 138 931 q 204 968 175 968 q 250 949 232 968 q 268 903 268 931 q 250 857 268 875 q 204 839 232 839 m 438 839 q 390 857 408 839 q 372 903 372 875 q 390 949 372 931 q 438 968 408 968 q 485 949 467 968 q 503 903 503 931 q 485 857 503 875 q 438 839 467 839 z "},"ỳ":{"ha":640,"x_min":36,"x_max":604,"o":"m 79 -278 q 69 -260 69 -278 l 69 -211 q 79 -193 69 -193 l 89 -193 q 173 -178 143 -193 q 224 -124 203 -162 q 271 -4 246 -85 q 271 4 272 -1 l 38 682 q 36 689 36 685 q 41 699 36 694 q 53 703 46 703 l 118 703 q 139 688 135 703 l 318 143 q 322 138 319 138 q 326 143 325 138 l 501 688 q 521 703 506 703 l 588 703 q 601 697 597 703 q 603 682 606 692 l 347 -61 q 285 -199 314 -154 q 212 -260 256 -243 q 89 -278 168 -278 l 79 -278 m 349 829 q 351 819 351 821 q 347 810 351 814 q 336 807 343 807 l 288 807 q 267 819 275 807 l 178 963 q 175 974 175 967 q 189 985 175 985 l 249 985 q 269 972 263 985 l 349 829 z "},"z":{"ha":618,"x_min":47,"x_max":568,"o":"m 65 0 q 47 18 47 0 l 47 78 q 56 100 47 90 l 446 604 q 447 610 449 607 q 442 613 446 613 l 71 613 q 53 631 53 613 l 53 685 q 71 703 53 703 l 550 703 q 568 685 568 703 l 568 625 q 560 603 568 614 l 165 99 q 164 93 163 96 q 169 90 165 90 l 550 90 q 568 72 568 90 l 568 18 q 550 0 568 0 l 65 0 z "},"ź":{"ha":618,"x_min":47,"x_max":568,"o":"m 65 0 q 47 18 47 0 l 47 78 q 56 100 47 90 l 446 604 q 447 610 449 607 q 442 613 446 613 l 71 613 q 53 631 53 613 l 53 685 q 71 703 53 703 l 550 703 q 568 685 568 703 l 568 625 q 560 603 568 614 l 165 99 q 164 93 163 96 q 169 90 165 90 l 550 90 q 568 72 568 90 l 568 18 q 550 0 568 0 l 65 0 m 265 815 q 251 822 254 815 q 253 838 247 828 l 332 981 q 353 993 338 993 l 413 993 q 426 982 426 993 q 424 971 426 975 l 335 828 q 314 815 326 815 l 265 815 z "},"ž":{"ha":618,"x_min":47,"x_max":568,"o":"m 65 0 q 47 18 47 0 l 47 78 q 56 100 47 90 l 446 604 q 447 610 449 607 q 442 613 446 613 l 71 613 q 53 631 53 613 l 53 685 q 71 703 53 703 l 550 703 q 568 685 568 703 l 568 625 q 560 603 568 614 l 165 99 q 164 93 163 96 q 169 90 165 90 l 550 90 q 568 72 568 90 l 568 18 q 550 0 568 0 l 65 0 m 268 801 q 246 813 254 801 l 143 954 q 139 965 139 961 q 154 976 139 976 l 196 976 q 218 965 210 976 l 300 854 q 306 851 303 851 q 310 854 308 851 l 392 965 q 414 976 400 976 l 456 976 q 471 965 471 976 q 467 954 471 961 l 363 813 q 340 801 354 801 l 268 801 z "},"ż":{"ha":618,"x_min":47,"x_max":568,"o":"m 65 0 q 47 18 47 0 l 47 78 q 56 100 47 90 l 446 604 q 447 610 449 607 q 442 613 446 613 l 71 613 q 53 631 53 613 l 53 685 q 71 703 53 703 l 550 703 q 568 685 568 703 l 568 625 q 560 603 568 614 l 165 99 q 164 93 163 96 q 169 90 165 90 l 550 90 q 568 72 568 90 l 568 18 q 550 0 568 0 l 65 0 m 306 828 q 260 845 278 828 q 242 889 242 863 q 260 933 242 915 q 306 950 278 950 q 349 933 332 950 q 365 889 365 915 q 349 845 365 863 q 306 828 332 828 z "},"ª":{"ha":450,"x_min":32,"x_max":404,"o":"m 324 783 q 331 790 331 783 l 331 822 q 302 900 331 871 q 218 929 274 929 q 151 913 179 929 q 113 869 122 897 q 93 854 108 853 l 67 857 q 54 864 58 858 q 51 878 50 869 q 108 954 63 925 q 219 983 153 983 q 347 941 300 983 q 393 829 393 899 l 393 531 q 375 513 393 513 l 349 513 q 331 531 331 513 l 331 553 q 328 558 331 557 q 322 556 325 560 q 186 504 276 504 q 75 537 118 504 q 32 633 32 569 q 83 743 32 703 q 222 783 135 783 l 324 783 m 196 556 q 291 583 251 556 q 331 660 331 611 l 331 725 q 324 732 331 732 l 228 732 q 131 708 167 732 q 94 639 94 685 q 122 576 94 597 q 196 556 150 556 m 32 400 q 50 418 32 418 l 386 418 q 404 400 404 418 l 404 363 q 386 344 404 344 l 50 344 q 32 363 32 344 l 32 400 z "},"º":{"ha":485,"x_min":44,"x_max":440,"o":"m 243 510 q 134 543 179 510 q 69 636 89 576 q 56 747 56 679 q 68 858 56 815 q 132 950 86 917 q 243 983 178 983 q 351 950 306 983 q 414 858 396 917 q 426 749 426 819 q 414 636 426 675 q 351 544 396 578 q 243 510 306 510 m 243 569 q 312 593 283 569 q 350 656 340 617 q 358 747 358 682 q 351 838 358 811 q 312 901 340 878 q 242 924 283 924 q 172 901 200 924 q 133 838 144 878 q 125 747 125 807 q 133 656 125 688 q 172 592 143 615 q 243 569 201 569 m 63 344 q 44 363 44 344 l 44 401 q 63 419 44 419 l 422 419 q 440 401 440 419 l 440 363 q 422 344 440 344 l 63 344 z "},"Δ":{"ha":886,"x_min":44,"x_max":842,"o":"m 63 0 q 44 18 44 0 l 44 75 q 49 97 44 88 l 399 958 q 419 972 404 972 l 467 972 q 488 958 482 972 l 838 96 q 842 74 842 86 l 842 18 q 824 0 842 0 l 63 0 m 144 94 q 145 89 143 92 q 150 86 147 86 l 736 86 q 741 89 739 86 q 742 94 743 92 l 447 836 q 439 836 443 847 l 144 94 z "},"Ω":{"ha":890,"x_min":100,"x_max":790,"o":"m 118 0 q 100 18 100 0 l 100 68 q 118 86 100 86 l 226 86 q 232 89 231 86 q 229 94 233 92 q 144 194 174 132 q 114 333 114 256 l 114 661 q 155 830 114 757 q 271 943 196 903 q 444 983 346 983 q 619 943 543 983 q 735 830 694 903 q 776 661 776 757 l 776 333 q 746 194 776 256 q 660 94 715 132 q 657 89 656 92 q 663 86 658 86 l 772 86 q 790 68 790 86 l 790 18 q 772 0 790 0 l 521 0 q 503 18 503 0 l 503 71 q 518 90 503 86 q 631 169 583 107 q 678 319 678 232 l 678 664 q 614 833 678 769 q 444 897 550 897 q 276 833 340 897 q 213 664 213 769 l 213 319 q 260 169 213 232 q 371 90 307 107 q 386 71 386 86 l 386 18 q 368 0 386 0 l 118 0 z "},"μ":{"ha":758,"x_min":110,"x_max":644,"o":"m 546 685 q 564 703 546 703 l 626 703 q 644 685 644 703 l 644 18 q 626 0 644 0 l 564 0 q 546 18 546 0 l 546 71 q 543 76 546 75 q 538 74 540 78 q 354 -10 478 -10 q 218 24 276 -10 q 213 25 215 26 q 210 19 210 24 l 210 -260 q 192 -278 210 -278 l 129 -278 q 111 -260 111 -278 l 111 188 l 111 196 q 110 219 110 203 l 110 685 q 128 703 110 703 l 192 703 q 210 685 210 703 l 210 222 q 260 115 217 154 q 374 76 304 76 q 499 124 453 76 q 546 249 546 171 l 546 685 z "},"π":{"ha":897,"x_min":54,"x_max":843,"o":"m 843 636 q 825 618 843 618 l 729 618 q 722 611 722 618 l 722 213 q 742 115 722 140 q 808 86 761 89 q 826 68 826 86 l 826 19 q 808 1 826 1 q 673 34 722 1 q 624 169 624 67 l 624 611 q 617 618 624 618 l 290 618 q 283 611 283 618 l 283 18 q 265 0 283 0 l 203 0 q 185 18 185 0 l 185 611 q 178 618 185 618 l 72 618 q 54 636 54 618 l 54 685 q 72 703 54 703 l 825 703 q 843 685 843 703 l 843 636 z "},"¹":{"ha":256,"x_min":53,"x_max":193,"o":"m 111 1193 q 133 1197 119 1197 l 175 1197 q 193 1179 193 1197 l 193 632 q 175 614 193 614 l 140 614 q 122 632 122 614 l 122 1122 q 119 1128 122 1125 q 114 1129 117 1131 l 72 1118 l 67 1118 q 53 1135 53 1118 l 53 1151 q 67 1172 53 1165 l 111 1193 z "},"²":{"ha":453,"x_min":49,"x_max":408,"o":"m 68 614 q 50 632 50 614 l 50 663 q 58 685 50 675 q 242 903 164 806 q 321 1051 321 997 q 292 1117 321 1092 q 218 1142 264 1142 q 146 1117 174 1142 q 119 1050 118 1092 l 119 1035 q 101 1017 119 1017 l 67 1017 q 49 1035 49 1017 l 49 1060 q 98 1165 50 1125 q 218 1204 146 1204 q 343 1161 296 1204 q 390 1053 390 1118 q 315 885 390 983 q 149 683 263 815 q 147 678 146 681 q 153 675 149 675 l 390 675 q 408 657 408 675 l 408 632 q 390 614 408 614 l 68 614 z "},"³":{"ha":447,"x_min":51,"x_max":394,"o":"m 374 897 q 394 792 394 856 q 375 693 394 735 q 316 627 356 650 q 222 604 276 604 q 122 635 164 604 q 61 718 79 665 q 51 772 54 742 q 69 790 51 790 l 104 790 q 122 772 122 790 q 128 739 125 747 q 160 687 135 707 q 222 667 186 667 q 307 715 282 667 q 324 793 324 747 q 306 879 324 847 q 222 928 281 928 q 200 924 210 928 q 189 921 192 921 q 175 929 182 921 l 160 949 q 154 961 154 960 q 160 974 154 965 l 294 1125 q 292 1133 300 1133 l 75 1133 q 57 1151 57 1133 l 57 1176 q 75 1194 57 1194 l 372 1194 q 390 1176 390 1194 l 390 1146 q 382 1124 390 1135 l 260 983 q 264 974 254 976 q 374 897 342 964 z "},"⁴":{"ha":468,"x_min":39,"x_max":419,"o":"m 401 835 q 419 817 419 835 l 419 789 q 401 771 419 771 l 379 771 q 372 764 372 771 l 372 632 q 354 614 372 614 l 319 614 q 301 632 301 614 l 301 764 q 294 771 301 771 l 57 771 q 39 789 39 771 l 39 814 q 44 836 39 822 l 204 1183 q 225 1197 211 1197 l 260 1197 q 274 1192 271 1197 q 274 1176 278 1186 l 122 843 q 122 838 121 840 q 126 835 124 835 l 294 835 q 301 842 301 835 l 301 958 q 319 976 301 976 l 354 976 q 372 958 372 976 l 372 842 q 379 835 372 835 l 401 835 z "},"⁵":{"ha":419,"x_min":44,"x_max":386,"o":"m 369 885 q 386 790 386 846 q 369 697 386 740 q 310 627 350 651 q 214 603 269 603 q 112 633 154 603 q 53 714 69 663 q 44 757 47 736 l 44 760 q 61 775 44 775 l 99 775 q 117 758 115 775 l 121 738 q 153 685 128 704 q 214 665 178 665 q 300 719 276 665 q 315 789 315 750 q 300 863 315 832 q 215 915 276 915 q 160 903 185 915 q 124 867 135 890 q 103 853 114 853 l 63 853 q 44 871 44 853 l 44 1175 q 63 1193 44 1193 l 346 1193 q 364 1175 364 1193 l 364 1150 q 346 1132 364 1132 l 121 1132 q 114 1125 114 1132 l 114 951 q 117 946 114 947 q 122 947 119 944 q 225 976 164 976 q 312 953 275 976 q 369 885 349 929 z "},"⁶":{"ha":432,"x_min":51,"x_max":393,"o":"m 385 867 q 393 790 393 840 q 385 714 393 744 q 325 633 369 664 q 221 603 281 603 q 121 633 163 603 q 61 714 79 664 q 51 792 51 742 l 51 1046 q 97 1158 51 1117 q 221 1200 143 1200 q 335 1160 290 1200 q 381 1056 381 1119 l 381 1051 q 363 1033 381 1033 l 328 1033 q 310 1040 310 1033 l 310 1047 q 284 1113 310 1088 q 219 1138 258 1138 q 148 1111 175 1138 q 121 1038 121 1085 l 121 936 q 124 931 121 932 q 129 933 126 931 q 232 975 171 975 q 328 945 286 975 q 385 867 369 915 m 315 733 q 324 789 324 758 q 317 840 324 817 q 285 894 310 874 q 222 914 260 914 q 163 894 188 914 q 129 844 138 875 q 122 789 122 824 q 128 735 122 756 q 160 684 135 703 q 222 665 186 665 q 283 684 258 665 q 315 733 307 703 z "},"⁷":{"ha":386,"x_min":17,"x_max":369,"o":"m 124 614 q 110 619 114 614 q 110 635 107 625 l 292 1128 q 286 1136 294 1136 l 82 1136 q 75 1129 75 1136 l 75 1089 q 57 1071 75 1071 l 35 1071 q 17 1089 17 1071 l 17 1179 q 35 1197 17 1197 l 351 1197 q 369 1179 369 1197 l 369 1147 q 365 1125 369 1136 l 182 628 q 161 614 178 614 l 124 614 z "},"⁸":{"ha":436,"x_min":44,"x_max":389,"o":"m 321 924 q 321 915 313 919 q 379 843 363 890 q 389 775 389 814 q 379 710 389 739 q 321 632 364 661 q 217 603 278 603 q 116 631 158 603 q 56 710 74 660 q 44 776 44 743 q 57 842 44 804 q 114 914 74 890 q 114 922 122 918 q 58 992 72 950 q 46 1047 46 1017 q 58 1106 46 1079 q 117 1177 76 1153 q 217 1201 158 1201 q 319 1176 276 1201 q 378 1104 361 1150 q 389 1049 389 1078 q 378 993 389 1022 q 321 924 360 949 m 115 1043 q 121 1013 115 1035 q 153 965 129 982 q 217 947 178 947 q 278 962 253 947 q 311 1003 303 976 q 317 1024 315 1011 q 318 1043 318 1029 q 314 1075 318 1064 q 280 1123 306 1106 q 217 1140 254 1140 q 155 1122 179 1140 q 122 1074 131 1104 q 115 1043 115 1057 m 313 738 q 317 781 317 751 q 314 819 317 804 q 281 873 307 853 q 217 893 254 893 q 155 873 179 893 q 122 819 131 853 q 117 779 117 799 q 122 738 117 758 q 154 684 129 704 q 217 664 179 664 q 280 684 254 664 q 313 738 306 704 z "},"⁹":{"ha":432,"x_min":39,"x_max":381,"o":"m 371 1089 q 381 1011 381 1061 l 381 757 q 335 644 381 686 q 211 603 289 603 q 97 643 142 603 q 51 747 51 683 l 51 751 q 69 769 51 769 l 104 769 q 122 763 122 769 l 122 756 q 148 690 122 715 q 213 665 174 665 q 284 692 257 665 q 311 765 311 718 l 311 867 q 308 872 311 871 q 303 869 306 872 q 200 828 261 828 q 104 858 146 828 q 47 936 63 888 q 39 1013 39 963 q 47 1089 39 1058 q 107 1169 63 1139 q 211 1200 151 1200 q 311 1169 269 1200 q 371 1089 353 1139 m 303 958 q 310 1014 310 979 q 304 1068 310 1047 q 272 1119 297 1100 q 210 1138 246 1138 q 149 1119 174 1138 q 117 1069 125 1100 q 108 1014 108 1044 q 115 963 108 986 q 147 909 122 929 q 210 889 172 889 q 269 908 244 889 q 303 958 294 928 z "},"⁄":{"ha":326,"x_min":-161,"x_max":501,"o":"m -147 0 q -161 11 -161 0 q -158 22 -161 18 l 429 960 q 450 972 438 972 l 488 972 q 501 961 501 972 q 499 950 501 954 l -87 13 q -108 0 -96 0 l -147 0 z "},"½":{"ha":1088,"x_min":53,"x_max":1043,"o":"m 111 968 q 133 972 119 972 l 175 972 q 193 954 193 972 l 193 407 q 175 389 193 389 l 140 389 q 122 407 122 389 l 122 897 q 119 903 122 900 q 114 904 117 906 l 72 893 l 67 893 q 53 910 53 893 l 53 926 q 67 947 53 940 l 111 968 m 161 0 q 147 11 147 0 q 150 22 147 18 l 738 960 q 758 972 746 972 l 796 972 q 810 961 810 972 q 807 950 810 954 l 221 13 q 200 0 213 0 l 161 0 m 703 0 q 685 18 685 0 l 685 49 q 693 71 685 61 q 876 289 799 192 q 956 438 956 383 q 927 503 956 478 q 853 528 899 528 q 781 503 808 528 q 754 436 753 478 l 754 421 q 736 403 754 403 l 701 403 q 683 421 683 403 l 683 446 q 733 551 685 511 q 853 590 781 590 q 978 547 931 590 q 1025 439 1025 504 q 950 271 1025 369 q 783 69 897 201 q 782 64 781 67 q 788 61 783 61 l 1025 61 q 1043 43 1043 61 l 1043 18 q 1025 0 1043 0 l 703 0 z "},"¼":{"ha":1103,"x_min":53,"x_max":1054,"o":"m 111 968 q 133 972 119 972 l 175 972 q 193 954 193 972 l 193 407 q 175 389 193 389 l 140 389 q 122 407 122 389 l 122 897 q 119 903 122 900 q 114 904 117 906 l 72 893 l 67 893 q 53 910 53 893 l 53 926 q 67 947 53 940 l 111 968 m 161 0 q 147 11 147 0 q 150 22 147 18 l 738 960 q 758 972 746 972 l 796 972 q 810 961 810 972 q 807 950 810 954 l 221 13 q 200 0 213 0 l 161 0 m 1036 221 q 1054 203 1054 221 l 1054 175 q 1036 157 1054 157 l 1014 157 q 1007 150 1007 157 l 1007 18 q 989 0 1007 0 l 954 0 q 936 18 936 0 l 936 150 q 929 157 936 157 l 692 157 q 674 175 674 157 l 674 200 q 679 222 674 208 l 839 569 q 860 583 846 583 l 894 583 q 909 578 906 583 q 908 563 913 572 l 757 229 q 757 224 756 226 q 761 221 758 221 l 929 221 q 936 228 936 221 l 936 344 q 954 363 936 363 l 989 363 q 1007 344 1007 363 l 1007 228 q 1014 221 1007 221 l 1036 221 z "},"¾":{"ha":1242,"x_min":51,"x_max":1193,"o":"m 374 683 q 394 578 394 642 q 375 479 394 521 q 316 413 356 436 q 222 390 276 390 q 122 421 164 390 q 61 504 79 451 q 51 558 54 528 q 69 576 51 576 l 104 576 q 122 558 122 576 q 128 525 125 533 q 160 473 135 493 q 222 453 186 453 q 307 501 282 453 q 324 579 324 533 q 306 665 324 633 q 222 714 281 714 q 200 710 210 714 q 189 707 192 707 q 175 715 182 707 l 160 735 q 154 747 154 746 q 160 760 154 751 l 294 911 q 292 919 300 919 l 75 919 q 57 938 57 919 l 57 963 q 75 981 57 981 l 372 981 q 390 963 390 981 l 390 932 q 382 910 390 921 l 260 769 q 264 760 254 763 q 374 683 342 750 m 300 0 q 286 11 286 0 q 289 22 286 18 l 876 960 q 897 972 885 972 l 935 972 q 949 961 949 972 q 946 950 949 954 l 360 13 q 339 0 351 0 l 300 0 m 1175 221 q 1193 203 1193 221 l 1193 175 q 1175 157 1193 157 l 1153 157 q 1146 150 1146 157 l 1146 18 q 1128 0 1146 0 l 1093 0 q 1075 18 1075 0 l 1075 150 q 1068 157 1075 157 l 831 157 q 813 175 813 157 l 813 200 q 818 222 813 208 l 978 569 q 999 583 985 583 l 1033 583 q 1048 578 1044 583 q 1047 563 1051 572 l 896 229 q 896 224 894 226 q 900 221 897 221 l 1068 221 q 1075 228 1075 221 l 1075 344 q 1093 363 1075 363 l 1128 363 q 1146 344 1146 363 l 1146 228 q 1153 221 1146 221 l 1175 221 z "},"⅛":{"ha":1090,"x_min":53,"x_max":1043,"o":"m 111 968 q 133 972 119 972 l 175 972 q 193 954 193 972 l 193 407 q 175 389 193 389 l 140 389 q 122 407 122 389 l 122 897 q 119 903 122 900 q 114 904 117 906 l 72 893 l 67 893 q 53 910 53 893 l 53 926 q 67 947 53 940 l 111 968 m 161 0 q 147 11 147 0 q 150 22 147 18 l 738 960 q 758 972 746 972 l 796 972 q 810 961 810 972 q 807 950 810 954 l 221 13 q 200 0 213 0 l 161 0 m 975 310 q 975 301 967 306 q 1033 229 1017 276 q 1043 161 1043 200 q 1033 96 1043 125 q 975 18 1018 47 q 871 -11 932 -11 q 770 17 813 -11 q 710 96 728 46 q 699 163 699 129 q 711 228 699 190 q 768 300 728 276 q 768 308 776 304 q 713 378 726 336 q 700 433 700 403 q 713 492 700 465 q 772 563 731 539 q 871 588 813 588 q 973 562 931 588 q 1032 490 1015 536 q 1043 435 1043 464 q 1032 379 1043 408 q 975 310 1014 335 m 769 429 q 775 399 769 421 q 808 351 783 368 q 871 333 832 333 q 932 348 907 333 q 965 389 957 363 q 971 410 969 397 q 972 429 972 415 q 968 461 972 450 q 934 509 960 492 q 871 526 908 526 q 809 508 833 526 q 776 460 785 490 q 769 429 769 443 m 967 124 q 971 167 971 138 q 968 206 971 190 q 935 259 961 239 q 871 279 908 279 q 809 259 833 279 q 776 206 785 239 q 771 165 771 185 q 776 124 771 144 q 808 70 783 90 q 871 50 833 50 q 934 70 908 50 q 967 124 960 90 z "},"⅜":{"ha":1229,"x_min":51,"x_max":1182,"o":"m 374 683 q 394 578 394 642 q 375 479 394 521 q 316 413 356 436 q 222 390 276 390 q 122 421 164 390 q 61 504 79 451 q 51 558 54 528 q 69 576 51 576 l 104 576 q 122 558 122 576 q 128 525 125 533 q 160 473 135 493 q 222 453 186 453 q 307 501 282 453 q 324 579 324 533 q 306 665 324 633 q 222 714 281 714 q 200 710 210 714 q 189 707 192 707 q 175 715 182 707 l 160 735 q 154 747 154 746 q 160 760 154 751 l 294 911 q 292 919 300 919 l 75 919 q 57 938 57 919 l 57 963 q 75 981 57 981 l 372 981 q 390 963 390 981 l 390 932 q 382 910 390 921 l 260 769 q 264 760 254 763 q 374 683 342 750 m 300 0 q 286 11 286 0 q 289 22 286 18 l 876 960 q 897 972 885 972 l 935 972 q 949 961 949 972 q 946 950 949 954 l 360 13 q 339 0 351 0 l 300 0 m 1114 310 q 1114 301 1106 306 q 1172 229 1156 276 q 1182 161 1182 200 q 1172 96 1182 125 q 1114 18 1157 47 q 1010 -11 1071 -11 q 909 17 951 -11 q 849 96 867 46 q 838 163 838 129 q 850 228 838 190 q 907 300 867 276 q 907 308 915 304 q 851 378 865 336 q 839 433 839 403 q 851 492 839 465 q 910 563 869 539 q 1010 588 951 588 q 1112 562 1069 588 q 1171 490 1154 536 q 1182 435 1182 464 q 1171 379 1182 408 q 1114 310 1153 335 m 908 429 q 914 399 908 421 q 947 351 922 368 q 1010 333 971 333 q 1071 348 1046 333 q 1104 389 1096 363 q 1110 410 1108 397 q 1111 429 1111 415 q 1107 461 1111 450 q 1073 509 1099 492 q 1010 526 1047 526 q 948 508 972 526 q 915 460 924 490 q 908 429 908 443 m 1106 124 q 1110 167 1110 138 q 1107 206 1110 190 q 1074 259 1100 239 q 1010 279 1047 279 q 948 259 972 279 q 915 206 924 239 q 910 165 910 185 q 915 124 910 144 q 947 70 922 90 q 1010 50 972 50 q 1073 70 1047 50 q 1106 124 1099 90 z "},"⅝":{"ha":1192,"x_min":44,"x_max":1144,"o":"m 369 663 q 386 568 386 624 q 369 475 386 518 q 310 405 350 429 q 214 381 269 381 q 112 410 154 381 q 53 492 69 440 q 44 535 47 514 l 44 538 q 61 553 44 553 l 99 553 q 117 536 115 553 l 121 515 q 153 463 128 482 q 214 443 178 443 q 300 497 276 443 q 315 567 315 528 q 300 640 315 610 q 215 693 276 693 q 160 681 185 693 q 124 644 135 668 q 103 631 114 631 l 63 631 q 44 649 44 631 l 44 953 q 63 971 44 971 l 346 971 q 364 953 364 971 l 364 928 q 346 910 364 910 l 121 910 q 114 903 114 910 l 114 729 q 117 724 114 725 q 122 725 119 722 q 225 754 164 754 q 312 731 275 754 q 369 663 349 707 m 263 0 q 249 11 249 0 q 251 22 249 18 l 839 960 q 860 972 847 972 l 897 972 q 911 961 911 972 q 908 950 911 954 l 322 13 q 301 0 314 0 l 263 0 m 1076 310 q 1076 301 1068 306 q 1135 229 1118 276 q 1144 161 1144 200 q 1135 96 1144 125 q 1076 18 1119 47 q 972 -11 1033 -11 q 872 17 914 -11 q 811 96 829 46 q 800 163 800 129 q 813 228 800 190 q 869 300 829 276 q 869 308 878 304 q 814 378 828 336 q 801 433 801 403 q 814 492 801 465 q 873 563 832 539 q 972 588 914 588 q 1074 562 1032 588 q 1133 490 1117 536 q 1144 435 1144 464 q 1133 379 1144 408 q 1076 310 1115 335 m 871 429 q 876 399 871 421 q 909 351 885 368 q 972 333 933 333 q 1033 348 1008 333 q 1067 389 1058 363 q 1072 410 1071 397 q 1074 429 1074 415 q 1069 461 1074 450 q 1035 509 1061 492 q 972 526 1010 526 q 910 508 935 526 q 878 460 886 490 q 871 429 871 443 m 1068 124 q 1072 167 1072 138 q 1069 206 1072 190 q 1036 259 1063 239 q 972 279 1010 279 q 910 259 935 279 q 878 206 886 239 q 872 165 872 185 q 878 124 872 144 q 910 70 885 90 q 972 50 935 50 q 1035 70 1010 50 q 1068 124 1061 90 z "},"⅞":{"ha":1104,"x_min":17,"x_max":1057,"o":"m 124 389 q 110 394 114 389 q 110 410 107 400 l 292 903 q 286 911 294 911 l 82 911 q 75 904 75 911 l 75 864 q 57 846 75 846 l 35 846 q 17 864 17 846 l 17 954 q 35 972 17 972 l 351 972 q 369 954 369 972 l 369 922 q 365 900 369 911 l 182 403 q 161 389 178 389 l 124 389 m 175 0 q 161 11 161 0 q 164 22 161 18 l 751 960 q 772 972 760 972 l 810 972 q 824 961 824 972 q 821 950 824 954 l 235 13 q 214 0 226 0 l 175 0 m 989 310 q 989 301 981 306 q 1047 229 1031 276 q 1057 161 1057 200 q 1047 96 1057 125 q 989 18 1032 47 q 885 -11 946 -11 q 784 17 826 -11 q 724 96 742 46 q 713 163 713 129 q 725 228 713 190 q 782 300 742 276 q 782 308 790 304 q 726 378 740 336 q 714 433 714 403 q 726 492 714 465 q 785 563 744 539 q 885 588 826 588 q 987 562 944 588 q 1046 490 1029 536 q 1057 435 1057 464 q 1046 379 1057 408 q 989 310 1028 335 m 783 429 q 789 399 783 421 q 822 351 797 368 q 885 333 846 333 q 946 348 921 333 q 979 389 971 363 q 985 410 983 397 q 986 429 986 415 q 982 461 986 450 q 948 509 974 492 q 885 526 922 526 q 823 508 847 526 q 790 460 799 490 q 783 429 783 443 m 981 124 q 985 167 985 138 q 982 206 985 190 q 949 259 975 239 q 885 279 922 279 q 823 259 847 279 q 790 206 799 239 q 785 165 785 185 q 790 124 785 144 q 822 70 797 90 q 885 50 847 50 q 948 70 922 50 q 981 124 974 90 z "},".":{"ha":381,"x_min":101,"x_max":274,"o":"m 188 4 q 126 28 150 4 q 101 86 101 51 q 127 144 101 119 q 188 168 153 168 q 247 144 221 168 q 274 86 274 119 q 249 28 274 51 q 188 4 224 4 z "},",":{"ha":367,"x_min":93,"x_max":246,"o":"m 111 -110 q 97 -105 101 -110 q 94 -90 93 -100 l 154 199 q 174 215 158 215 l 226 215 q 242 196 246 215 l 167 -94 q 146 -110 163 -110 l 111 -110 z "},":":{"ha":471,"x_min":150,"x_max":322,"o":"m 235 488 q 174 511 199 488 q 150 569 150 535 q 176 627 150 603 q 235 651 201 651 q 296 627 269 651 q 322 569 322 603 q 297 511 322 535 q 235 488 271 488 m 235 19 q 174 44 199 19 q 150 103 150 68 q 176 160 150 136 q 235 185 201 185 q 296 160 269 185 q 322 103 322 136 q 297 44 322 68 q 235 19 271 19 z "},";":{"ha":432,"x_min":133,"x_max":307,"o":"m 219 482 q 158 506 182 482 q 133 565 133 529 q 160 622 133 599 q 219 646 186 646 q 280 622 253 646 q 307 565 307 599 q 281 506 307 531 q 219 482 256 482 m 157 -104 q 144 -99 149 -104 q 140 -85 139 -93 l 176 193 q 196 210 179 210 l 251 210 q 267 190 271 210 l 211 -87 q 192 -104 208 -104 l 157 -104 z "},"…":{"ha":1099,"x_min":101,"x_max":992,"o":"m 188 4 q 126 28 150 4 q 101 86 101 51 q 127 144 101 119 q 188 168 153 168 q 247 144 221 168 q 274 86 274 119 q 249 28 274 51 q 188 4 224 4 m 550 4 q 488 28 513 4 q 464 86 464 51 q 490 144 464 119 q 550 168 515 168 q 610 144 583 168 q 636 86 636 119 q 611 28 636 51 q 550 4 586 4 m 906 4 q 844 28 868 4 q 819 86 819 51 q 845 144 819 119 q 906 168 871 168 q 965 144 939 168 q 992 86 992 119 q 967 28 992 51 q 906 4 942 4 z "},"!":{"ha":449,"x_min":135,"x_max":307,"o":"m 200 317 q 182 335 182 317 l 175 954 q 193 972 175 972 l 256 972 q 274 954 274 972 l 265 335 q 247 317 265 317 l 200 317 m 221 6 q 159 29 183 6 q 135 88 135 53 q 161 145 135 121 q 221 169 188 169 q 281 145 254 169 q 307 88 307 121 q 282 29 307 53 q 221 6 257 6 z "},"¡":{"ha":449,"x_min":135,"x_max":307,"o":"m 221 983 q 282 960 257 983 q 307 901 307 936 q 281 844 307 868 q 221 819 254 819 q 161 844 188 819 q 135 901 135 868 q 159 960 135 936 q 221 983 183 983 m 182 654 q 200 672 182 672 l 247 672 q 265 654 265 672 l 274 35 q 256 17 274 17 l 193 17 q 175 35 175 17 l 182 654 z "},"?":{"ha":640,"x_min":56,"x_max":581,"o":"m 263 278 q 244 296 244 278 l 244 374 q 274 471 244 433 q 363 556 303 508 q 426 610 403 588 q 466 665 450 633 q 482 740 482 697 q 438 852 482 810 q 319 894 393 894 q 199 851 244 894 q 154 739 154 808 l 154 700 q 136 683 154 683 l 74 686 q 56 704 56 686 l 56 739 q 129 917 56 849 q 322 985 203 985 q 510 918 439 985 q 581 740 581 851 q 560 635 581 679 q 513 563 540 590 q 439 499 485 535 q 368 435 392 463 q 344 368 344 407 l 344 296 q 326 278 344 278 l 263 278 m 300 3 q 242 26 265 3 q 218 82 218 49 q 242 138 218 114 q 300 161 267 161 q 358 138 333 161 q 383 82 383 114 q 358 26 383 49 q 300 3 333 3 z "},"¿":{"ha":640,"x_min":60,"x_max":585,"o":"m 340 692 q 399 669 375 692 q 422 613 422 646 q 398 557 422 581 q 340 533 374 533 q 282 557 307 533 q 257 613 257 581 q 282 669 257 646 q 340 692 307 692 m 378 417 q 396 399 396 417 l 396 321 q 367 224 396 261 q 278 139 338 186 q 214 84 238 107 q 174 29 190 61 q 158 -46 158 -3 q 203 -158 158 -115 q 321 -200 247 -200 q 441 -157 396 -200 q 486 -44 486 -114 l 486 -6 q 504 11 486 11 l 567 8 q 585 -10 585 8 l 585 -44 q 511 -222 585 -154 q 318 -290 438 -290 q 131 -224 201 -290 q 60 -46 60 -157 q 80 60 60 15 q 128 132 100 104 q 201 196 156 160 q 272 260 249 232 q 296 326 296 288 l 296 399 q 314 417 296 417 l 378 417 z "},"·":{"ha":172,"x_min":-24,"x_max":149,"o":"m 63 4 q 1 28 25 4 q -24 86 -24 51 q 2 144 -24 119 q 63 168 28 168 q 122 144 96 168 q 149 86 149 119 q 124 28 149 51 q 63 4 99 4 z "},"•":{"ha":429,"x_min":54,"x_max":375,"o":"m 215 210 q 101 258 149 210 q 54 371 54 306 q 101 484 54 438 q 215 531 149 531 q 328 484 281 531 q 375 371 375 438 q 328 258 375 306 q 215 210 281 210 z "},"*":{"ha":551,"x_min":42,"x_max":511,"o":"m 261 546 q 243 564 243 546 l 244 728 q 242 734 244 732 q 236 733 239 736 l 88 647 q 78 644 82 644 q 63 654 68 644 l 49 681 q 46 690 46 689 q 56 704 46 699 l 204 788 q 204 796 211 792 l 56 879 q 49 903 42 888 l 63 929 q 74 938 67 936 q 88 936 81 940 l 236 850 q 242 850 239 849 q 244 856 244 851 l 243 1019 q 261 1038 243 1038 l 290 1038 q 308 1019 308 1038 l 307 856 q 310 850 307 851 q 315 850 313 849 l 464 936 q 474 939 469 939 q 489 929 483 939 l 503 903 q 506 893 506 894 q 496 879 506 885 l 346 796 q 346 788 340 792 l 496 704 q 503 681 511 696 l 489 654 q 478 645 485 647 q 464 647 471 643 l 315 733 q 310 734 313 736 q 307 728 307 732 l 308 564 q 290 546 308 546 l 261 546 z "},"#":{"ha":915,"x_min":100,"x_max":815,"o":"m 814 614 q 796 596 814 596 l 696 596 q 688 589 688 596 l 654 371 q 660 364 654 364 l 747 364 q 765 346 765 364 l 764 296 q 746 278 764 278 l 647 278 q 639 271 639 278 l 603 39 q 583 22 601 22 l 521 25 q 508 31 513 25 q 504 44 503 36 l 539 271 q 533 278 539 278 l 315 278 q 307 271 307 278 l 271 39 q 251 22 269 22 l 189 25 q 176 31 181 25 q 172 44 171 36 l 207 271 q 201 278 207 278 l 118 278 q 100 296 100 278 l 101 346 q 119 364 101 364 l 215 364 q 224 371 224 364 l 257 589 q 251 596 257 596 l 169 596 q 151 614 151 596 l 151 665 q 169 683 151 683 l 265 683 q 274 690 274 683 l 310 922 q 329 939 313 939 l 392 936 q 405 931 400 936 q 408 917 410 925 l 374 690 q 379 683 374 683 l 596 683 q 604 690 604 683 l 640 922 q 660 939 643 939 l 722 936 q 735 931 731 936 q 739 917 740 925 l 704 690 q 710 683 704 683 l 797 683 q 815 665 815 683 l 814 614 m 547 364 q 556 371 556 364 l 589 589 q 583 596 589 596 l 365 596 q 357 589 357 596 l 324 371 q 329 364 324 364 l 547 364 z "},"/":{"ha":496,"x_min":44,"x_max":451,"o":"m 63 0 q 49 6 53 0 q 47 21 44 11 l 353 957 q 372 972 357 972 l 433 972 q 447 967 443 972 q 449 951 451 961 l 143 15 q 124 0 139 0 l 63 0 z "},"\\":{"ha":496,"x_min":46,"x_max":450,"o":"m 449 21 q 450 14 450 18 q 445 4 450 8 q 433 0 440 0 l 372 0 q 353 15 357 0 l 47 951 q 46 958 46 954 q 51 968 46 964 q 63 972 56 972 l 124 972 q 143 957 139 972 l 449 21 z "},"(":{"ha":363,"x_min":-7,"x_max":243,"o":"m 164 -144 q 142 -133 149 -144 q 34 125 75 -29 q -7 451 -7 279 q 35 785 -7 626 q 146 1049 76 943 q 167 1060 151 1060 l 225 1060 q 240 1054 236 1060 q 238 1039 243 1049 q 142 776 179 931 q 106 453 106 621 q 142 135 106 288 q 238 -124 179 -17 q 240 -133 240 -132 q 225 -144 240 -144 l 164 -144 z "},")":{"ha":363,"x_min":119,"x_max":369,"o":"m 221 -133 q 199 -144 214 -144 l 138 -144 q 123 -139 126 -144 q 125 -124 119 -133 q 220 135 183 -17 q 257 453 257 288 q 220 776 257 621 q 125 1039 183 931 q 122 1049 122 1047 q 138 1060 122 1060 l 196 1060 q 217 1049 211 1060 q 328 785 286 943 q 369 451 369 626 q 328 125 369 279 q 221 -133 288 -29 z "},"{":{"ha":419,"x_min":44,"x_max":375,"o":"m 274 -168 q 165 -130 200 -168 q 131 -10 131 -92 l 131 292 q 114 379 131 350 q 61 415 97 408 q 44 435 44 419 l 44 482 q 61 501 44 497 q 114 537 97 507 q 131 624 131 567 l 131 918 q 165 1037 131 999 q 274 1075 200 1075 l 357 1075 q 375 1057 375 1075 l 375 1007 q 357 989 375 989 l 308 989 q 249 964 268 989 q 229 886 229 939 l 229 617 q 213 517 229 554 q 163 463 197 481 q 163 454 157 458 q 213 398 197 435 q 229 299 229 361 l 229 22 q 308 -82 229 -82 l 357 -82 q 375 -100 375 -82 l 375 -150 q 357 -168 375 -168 l 274 -168 z "},"}":{"ha":419,"x_min":44,"x_max":375,"o":"m 63 -168 q 44 -150 44 -168 l 44 -100 q 63 -82 44 -82 l 111 -82 q 190 22 190 -82 l 190 299 q 206 398 190 361 q 257 454 222 435 q 257 463 263 458 q 206 517 222 481 q 190 617 190 554 l 190 886 q 171 964 190 939 q 111 989 151 989 l 63 989 q 44 1007 44 989 l 44 1057 q 63 1075 44 1075 l 146 1075 q 254 1037 219 1075 q 289 918 289 999 l 289 624 q 306 537 289 567 q 358 501 322 507 q 375 482 375 497 l 375 435 q 358 415 375 419 q 306 379 322 408 q 289 292 289 350 l 289 -10 q 254 -130 289 -92 q 146 -168 219 -168 l 63 -168 z "},"[":{"ha":528,"x_min":44,"x_max":342,"o":"m 63 -168 q 44 -150 44 -168 l 44 1057 q 63 1075 44 1075 l 322 1075 q 340 1057 340 1075 l 340 1007 q 322 989 340 989 l 150 989 q 143 982 143 989 l 143 -75 q 150 -82 143 -82 l 324 -82 q 342 -100 342 -82 l 342 -150 q 324 -168 342 -168 l 63 -168 z "},"]":{"ha":528,"x_min":186,"x_max":483,"o":"m 483 -150 q 465 -168 483 -168 l 204 -168 q 186 -150 186 -168 l 186 -100 q 204 -82 186 -82 l 378 -82 q 385 -75 385 -82 l 385 982 q 378 989 385 989 l 206 989 q 188 1007 188 989 l 188 1057 q 206 1075 188 1075 l 465 1075 q 483 1057 483 1075 l 483 -150 z "},"-":{"ha":547,"x_min":54,"x_max":493,"o":"m 72 389 q 54 407 54 389 l 54 457 q 72 475 54 475 l 475 475 q 493 457 493 475 l 493 407 q 475 389 493 389 l 72 389 z "},"­":{"ha":547,"x_min":54,"x_max":493,"o":"m 72 389 q 54 407 54 389 l 54 457 q 72 475 54 475 l 475 475 q 493 457 493 475 l 493 407 q 475 389 493 389 l 72 389 z "},"–":{"ha":625,"x_min":54,"x_max":571,"o":"m 72 349 q 54 367 54 349 l 54 418 q 72 436 54 436 l 553 436 q 571 418 571 436 l 571 367 q 553 349 571 349 l 72 349 z "},"—":{"ha":951,"x_min":54,"x_max":897,"o":"m 72 350 q 54 368 54 350 l 54 418 q 72 436 54 436 l 879 436 q 897 418 897 436 l 897 368 q 879 350 897 350 l 72 350 z "},"_":{"ha":672,"x_min":40,"x_max":632,"o":"m 58 0 q 40 18 40 0 l 40 61 q 58 79 40 79 l 614 79 q 632 61 632 79 l 632 18 q 614 0 632 0 l 58 0 z "},"‚":{"ha":833,"x_min":94,"x_max":243,"o":"m 111 -110 q 97 -105 101 -110 q 94 -90 93 -100 l 154 199 q 174 215 158 215 l 226 215 q 242 196 246 215 l 167 -94 q 146 -110 163 -110 l 111 -110 z "},"„":{"ha":382,"x_min":4,"x_max":364,"o":"m 164 178 q 177 172 174 178 q 178 157 181 167 l 83 -93 q 63 -107 78 -107 l 21 -107 q 7 -101 11 -107 q 6 -86 3 -96 l 82 163 q 101 178 86 178 l 164 178 m 349 178 q 362 172 358 178 q 363 157 365 167 l 268 -93 q 247 -107 263 -107 l 206 -107 q 192 -101 196 -107 q 190 -86 188 -96 l 267 163 q 286 178 271 178 l 349 178 z "},"“":{"ha":371,"x_min":6,"x_max":368,"o":"m 22 688 q 9 693 13 688 q 8 708 6 699 l 103 958 q 124 972 108 972 l 165 972 q 179 967 175 972 q 181 951 183 961 l 104 703 q 85 688 100 688 l 22 688 m 207 688 q 194 693 197 688 q 193 708 190 699 l 288 958 q 308 972 293 972 l 350 972 q 364 967 360 972 q 365 951 368 961 l 289 703 q 269 688 285 688 l 207 688 z "},"”":{"ha":371,"x_min":3,"x_max":365,"o":"m 164 972 q 177 967 174 972 q 178 951 181 961 l 83 701 q 63 688 78 688 l 21 688 q 7 693 11 688 q 6 708 3 699 l 82 957 q 101 972 86 972 l 164 972 m 349 972 q 362 967 358 972 q 363 951 365 961 l 268 701 q 247 688 263 688 l 206 688 q 192 693 196 688 q 190 708 188 699 l 267 957 q 286 972 271 972 l 349 972 z "},"‘":{"ha":194,"x_min":6,"x_max":190,"o":"m 22 688 q 9 693 13 688 q 8 708 6 699 l 108 958 q 129 972 114 972 l 172 972 q 186 967 182 972 q 188 951 190 961 l 107 703 q 88 688 103 688 l 22 688 z "},"’":{"ha":194,"x_min":4,"x_max":189,"o":"m 172 972 q 185 967 182 972 q 186 951 189 961 l 86 701 q 65 688 81 688 l 22 688 q 8 693 13 688 q 7 708 4 699 l 88 957 q 107 972 92 972 l 172 972 z "},"«":{"ha":750,"x_min":119,"x_max":611,"o":"m 388 171 q 392 160 392 165 q 376 149 392 149 l 318 149 q 296 160 303 149 l 125 378 q 119 390 119 386 q 125 403 119 394 l 296 621 q 318 632 303 632 l 376 632 q 392 621 392 632 q 388 610 392 617 l 219 396 q 219 385 215 390 l 388 171 m 607 171 q 611 160 611 165 q 596 149 611 149 l 538 149 q 515 160 522 149 l 344 378 q 339 390 339 386 q 344 403 339 394 l 515 621 q 538 632 522 632 l 596 632 q 611 621 611 632 q 607 610 611 617 l 439 396 q 439 385 435 390 l 607 171 z "},"»":{"ha":750,"x_min":143,"x_max":635,"o":"m 158 149 q 143 160 143 149 q 147 171 143 165 l 315 385 q 315 396 319 390 l 147 610 q 143 621 143 617 q 158 632 143 632 l 217 632 q 239 621 232 632 l 410 403 q 415 390 415 397 q 410 378 415 383 l 239 160 q 217 149 232 149 l 158 149 m 378 149 q 363 160 363 149 q 367 171 363 165 l 535 385 q 535 396 539 390 l 367 610 q 363 621 363 617 q 378 632 363 632 l 436 632 q 458 621 451 632 l 629 403 q 635 390 635 397 q 629 378 635 383 l 458 160 q 436 149 451 149 l 378 149 z "},"‹":{"ha":504,"x_min":89,"x_max":361,"o":"m 357 171 q 361 160 361 165 q 346 149 361 149 l 288 149 q 265 160 272 149 l 94 378 q 89 390 89 386 q 94 403 89 394 l 265 621 q 288 632 272 632 l 346 632 q 361 621 361 632 q 357 610 361 617 l 189 396 q 189 385 185 390 l 357 171 z "},"›":{"ha":546,"x_min":143,"x_max":415,"o":"m 158 149 q 143 160 143 149 q 147 171 143 165 l 315 385 q 315 396 319 390 l 147 610 q 143 621 143 617 q 158 632 143 632 l 217 632 q 239 621 232 632 l 410 403 q 415 390 415 397 q 410 378 415 383 l 239 160 q 217 149 232 149 l 158 149 z "},"\"":{"ha":365,"x_min":42,"x_max":325,"o":"m 69 678 q 51 696 51 678 l 42 946 q 58 964 42 964 l 122 964 q 139 946 139 964 l 129 696 q 111 678 129 678 l 69 678 m 257 678 q 239 696 239 678 l 229 946 q 246 964 229 964 l 308 964 q 325 946 325 964 l 315 696 q 297 678 315 678 l 257 678 z "},"'":{"ha":183,"x_min":42,"x_max":142,"o":"m 69 685 q 51 703 51 685 l 42 951 q 58 969 42 969 l 125 969 q 142 951 142 969 l 132 703 q 114 685 132 685 l 69 685 z "}," ":{"ha":278,"x_min":0,"x_max":0,"o":""},"¢":{"ha":722,"x_min":89,"x_max":657,"o":"m 554 325 q 556 332 556 328 l 557 333 q 578 349 558 351 l 638 339 q 654 318 656 336 l 649 294 q 565 172 629 221 q 408 115 500 124 q 401 108 401 115 l 404 19 q 386 1 404 1 l 336 1 q 318 19 318 1 l 321 111 q 314 119 321 117 q 183 183 238 133 q 107 307 129 232 q 89 479 89 368 q 107 649 89 579 q 183 770 129 721 q 314 833 238 819 q 321 842 321 836 l 318 933 q 336 951 318 951 l 386 951 q 404 933 404 951 l 401 844 q 408 838 401 838 q 563 780 499 829 q 649 660 628 731 q 657 622 654 640 l 657 619 q 640 601 657 604 l 579 594 l 575 594 q 558 610 563 594 q 556 626 558 615 q 494 716 543 679 q 376 753 446 753 q 260 716 307 753 q 200 618 214 679 q 188 478 188 565 q 200 336 188 386 q 260 237 214 274 q 376 200 307 200 q 494 235 444 200 q 554 325 543 271 z "},"¤":{"ha":724,"x_min":38,"x_max":688,"o":"m 633 418 q 585 264 633 332 q 585 254 581 258 l 671 168 q 678 154 678 161 q 671 142 678 149 l 632 108 q 619 103 626 103 q 607 110 614 103 l 524 193 q 514 193 519 197 q 357 144 443 144 q 206 189 275 144 q 196 189 200 193 l 117 110 q 104 103 110 103 q 92 108 97 103 l 53 142 q 47 154 47 147 q 53 168 47 163 l 133 247 q 133 257 138 251 q 81 418 81 328 q 129 575 81 507 q 129 585 133 581 l 43 671 q 38 682 38 676 q 44 696 38 689 l 82 729 q 94 735 90 735 q 107 728 100 735 l 189 646 q 199 646 193 642 q 357 694 269 694 q 519 640 447 694 q 529 640 525 636 l 617 728 q 629 735 624 735 q 642 729 636 735 l 681 696 q 688 683 688 692 q 681 669 688 676 l 589 579 q 588 569 586 576 q 633 418 633 501 m 167 418 q 192 325 167 368 q 262 256 218 282 q 357 231 306 231 q 451 256 408 231 q 521 324 494 281 q 547 418 547 367 q 521 513 547 469 q 451 583 494 557 q 357 608 407 608 q 262 583 306 608 q 192 513 218 557 q 167 418 167 469 z "},"$":{"ha":757,"x_min":82,"x_max":682,"o":"m 682 247 q 613 67 682 136 q 414 -11 543 -1 q 407 -18 407 -11 l 408 -96 q 390 -114 408 -114 l 356 -114 q 338 -96 338 -114 l 339 -17 q 332 -10 339 -10 q 149 68 215 3 q 82 235 82 133 l 82 288 q 100 306 82 306 l 158 306 q 176 288 176 306 l 176 254 q 233 124 176 174 q 389 75 289 75 q 533 120 483 75 q 583 242 583 165 q 558 319 583 286 q 490 378 532 351 q 367 447 449 404 l 297 483 q 180 554 222 522 q 114 629 138 586 q 90 736 90 672 q 151 906 90 843 q 326 982 211 969 q 333 989 333 982 l 332 1076 q 350 1094 332 1094 l 383 1094 q 401 1076 401 1094 l 400 990 q 407 983 400 983 q 605 908 535 975 q 675 732 675 840 l 675 693 q 657 675 675 675 l 596 675 q 578 693 578 675 l 578 714 q 524 847 578 796 q 371 897 471 897 q 236 857 283 897 q 189 742 189 817 q 212 664 189 694 q 272 612 235 633 q 385 557 310 590 q 413 544 400 550 q 438 533 426 539 q 624 408 565 474 q 682 247 682 343 z "},"€":{"ha":883,"x_min":100,"x_max":793,"o":"m 506 75 q 632 117 582 75 q 693 229 682 158 q 713 244 696 249 l 775 233 q 789 213 793 229 q 697 49 774 110 q 506 -12 621 -12 q 353 22 419 -12 q 252 121 288 57 q 217 268 217 185 l 217 368 q 210 375 217 375 l 118 375 q 100 393 100 375 l 100 417 q 118 435 100 435 l 210 435 q 217 442 217 435 l 217 528 q 210 535 217 535 l 118 535 q 100 553 100 535 l 100 576 q 118 594 100 594 l 210 594 q 217 601 217 594 l 217 706 q 296 908 217 832 q 506 983 375 983 q 699 922 622 983 q 792 756 776 860 l 792 753 q 775 735 792 738 l 713 726 l 710 726 q 693 742 696 726 q 632 855 682 813 q 506 897 582 897 q 367 845 419 897 q 315 708 315 793 l 315 601 q 322 594 315 594 l 651 594 q 665 589 661 594 q 667 574 669 583 l 658 549 q 638 535 654 535 l 322 535 q 315 528 315 535 l 315 442 q 322 435 315 435 l 604 435 q 618 429 614 435 q 619 414 622 424 l 611 389 q 590 375 607 375 l 322 375 q 315 368 315 375 l 315 264 q 367 127 315 179 q 506 75 419 75 z "},"ƒ":{"ha":760,"x_min":47,"x_max":700,"o":"m 388 742 q 431 885 401 838 q 518 952 461 933 q 682 972 575 971 q 700 954 700 972 l 700 904 q 682 886 700 886 l 640 886 q 531 852 564 886 q 485 736 497 818 l 458 569 q 464 563 458 563 l 586 563 q 604 544 604 563 l 604 490 q 586 472 604 472 l 450 472 q 442 465 442 472 l 360 -47 q 315 -191 344 -143 q 228 -258 285 -239 q 65 -278 172 -276 q 47 -260 47 -278 l 47 -210 q 65 -192 47 -192 l 107 -192 q 217 -158 183 -192 q 263 -42 250 -124 l 343 465 q 338 472 343 472 l 238 472 q 219 490 219 472 l 219 544 q 238 563 219 563 l 351 563 q 360 569 360 563 l 388 742 z "},"₣":{"ha":901,"x_min":131,"x_max":871,"o":"m 871 904 q 853 886 871 886 l 349 886 q 342 879 342 886 l 342 539 q 349 532 342 532 l 700 532 q 718 514 718 532 l 718 464 q 700 446 718 446 l 349 446 q 342 439 342 446 l 342 265 q 349 258 342 258 l 553 258 q 571 240 571 258 l 571 211 q 553 193 571 193 l 349 193 q 342 186 342 193 l 342 18 q 324 0 342 0 l 261 0 q 243 18 243 0 l 243 186 q 236 193 243 193 l 149 193 q 131 211 131 193 l 131 240 q 149 258 131 258 l 236 258 q 243 265 243 258 l 243 954 q 261 972 243 972 l 853 972 q 871 954 871 972 l 871 904 z "},"£":{"ha":842,"x_min":131,"x_max":794,"o":"m 293 94 q 292 89 290 92 q 297 86 293 86 l 776 86 q 794 68 794 86 l 794 18 q 776 0 794 0 l 190 0 q 172 18 172 0 l 172 72 q 185 93 172 85 q 237 159 218 115 q 256 260 256 203 l 256 421 q 249 428 256 428 l 149 428 q 131 446 131 428 l 131 492 q 149 510 131 510 l 249 510 q 256 517 256 510 l 256 711 q 331 911 256 839 q 538 983 406 983 q 690 937 628 983 q 782 803 753 890 q 783 796 783 800 q 768 781 783 786 l 710 769 l 704 768 q 688 783 692 768 q 629 870 667 843 q 535 897 592 897 q 401 850 449 897 q 354 713 354 803 l 354 517 q 361 510 354 510 l 622 510 q 640 492 640 510 l 640 446 q 622 428 640 428 l 361 428 q 354 421 354 428 l 354 263 q 293 94 354 153 z "},"₺":{"ha":885,"x_min":104,"x_max":794,"o":"m 696 354 q 714 372 696 372 l 776 372 q 794 354 794 372 q 745 193 789 268 q 621 68 701 118 q 431 7 540 18 q 292 0 358 -1 q 274 18 274 0 l 274 428 q 271 433 274 431 q 265 433 268 435 l 135 397 l 128 396 q 113 408 117 396 l 106 433 l 104 440 q 118 457 104 453 l 268 499 q 274 506 274 501 l 274 586 q 271 591 274 589 q 265 592 268 593 l 135 556 l 128 554 q 113 567 117 554 l 106 593 l 104 600 q 118 617 104 613 l 268 658 q 274 665 274 661 l 274 954 q 292 972 274 972 l 354 972 q 372 954 372 972 l 372 696 q 375 691 372 693 q 381 690 378 689 l 567 742 l 574 743 q 589 731 585 743 l 596 704 l 597 697 q 583 682 597 686 l 378 624 q 372 617 372 621 l 372 536 q 375 531 372 533 q 381 531 378 529 l 567 582 l 574 583 q 589 571 585 583 l 596 546 l 597 539 q 583 522 597 526 l 378 465 q 372 458 372 463 l 372 93 q 382 86 372 86 q 543 128 474 92 q 651 224 613 165 q 696 354 690 283 z "},"₽":{"ha":971,"x_min":131,"x_max":921,"o":"m 375 438 q 368 431 368 438 l 368 318 q 375 311 368 311 l 704 311 q 722 293 722 311 l 722 265 q 704 247 722 247 l 375 247 q 368 240 368 247 l 368 18 q 350 0 368 0 l 288 0 q 269 18 269 0 l 269 240 q 263 247 269 247 l 149 247 q 131 265 131 247 l 131 293 q 149 311 131 311 l 263 311 q 269 318 269 311 l 269 431 q 263 438 269 438 l 149 438 q 131 456 131 438 l 131 501 q 149 519 131 519 l 263 519 q 269 526 269 519 l 269 956 q 288 974 269 974 l 649 974 q 791 940 729 974 q 887 844 853 906 q 921 704 921 783 q 885 565 921 625 q 788 471 850 504 q 644 438 725 438 l 375 438 m 375 888 q 368 881 368 888 l 368 526 q 375 519 368 519 l 638 519 q 772 569 722 519 q 822 703 822 619 q 772 838 822 788 q 638 888 722 888 l 375 888 z "},"¥":{"ha":956,"x_min":140,"x_max":822,"o":"m 804 972 q 819 966 815 972 q 817 950 822 960 l 556 479 q 561 471 551 471 l 717 471 q 735 453 735 471 l 735 429 q 717 411 735 411 l 536 411 q 529 404 529 411 l 529 293 q 536 286 529 286 l 717 286 q 735 268 735 286 l 735 243 q 717 225 735 225 l 536 225 q 529 218 529 225 l 529 19 q 511 1 529 1 l 449 1 q 431 19 431 1 l 431 218 q 424 225 431 225 l 236 225 q 218 243 218 225 l 218 268 q 236 286 218 286 l 424 286 q 431 293 431 286 l 431 404 q 424 411 431 411 l 236 411 q 218 429 218 411 l 218 453 q 236 471 218 471 l 399 471 q 404 479 408 471 l 143 950 q 140 960 140 958 q 144 969 140 965 q 156 972 149 972 l 222 972 q 243 960 238 972 l 475 540 q 483 540 479 535 l 717 960 q 738 972 724 972 l 804 972 z "},"∙":{"ha":429,"x_min":54,"x_max":375,"o":"m 215 271 q 101 319 149 271 q 54 432 54 367 q 101 545 54 499 q 215 592 149 592 q 328 545 281 592 q 375 432 375 499 q 328 319 375 367 q 215 271 281 271 z "},"∕":{"ha":672,"x_min":47,"x_max":625,"o":"m 64 0 q 51 6 54 0 q 51 21 47 11 l 533 960 q 556 972 540 972 l 608 972 q 622 967 618 972 q 621 951 625 961 l 140 13 q 118 0 135 0 l 64 0 z "},"+":{"ha":694,"x_min":54,"x_max":640,"o":"m 622 478 q 640 460 640 478 l 640 410 q 622 392 640 392 l 397 392 q 390 385 390 392 l 390 165 q 372 147 390 147 l 322 147 q 304 165 304 147 l 304 385 q 297 392 304 392 l 72 392 q 54 410 54 392 l 54 460 q 72 478 54 478 l 297 478 q 304 485 304 478 l 304 715 q 322 733 304 733 l 372 733 q 390 715 390 733 l 390 485 q 397 478 390 478 l 622 478 z "},"−":{"ha":694,"x_min":54,"x_max":640,"o":"m 72 392 q 54 410 54 392 l 54 460 q 72 478 54 478 l 622 478 q 640 460 640 478 l 640 410 q 622 392 640 392 l 72 392 z "},"×":{"ha":586,"x_min":61,"x_max":528,"o":"m 521 631 q 528 618 528 624 q 521 606 528 613 l 363 447 q 360 442 360 444 q 363 436 360 439 l 517 282 q 524 269 524 275 q 517 257 524 264 l 481 221 q 468 215 475 215 q 456 221 461 215 l 301 375 q 290 375 296 381 l 131 217 q 118 211 125 211 q 106 217 111 211 l 69 253 q 64 265 64 258 q 69 278 64 272 l 229 436 q 229 447 235 442 l 67 610 q 61 622 61 615 q 67 635 61 629 l 101 671 q 114 678 108 678 q 126 671 119 678 l 290 508 q 301 508 296 503 l 460 667 q 472 674 467 674 q 485 667 478 674 l 521 631 z "},"÷":{"ha":694,"x_min":54,"x_max":640,"o":"m 346 611 q 294 633 315 611 q 274 685 274 654 q 295 735 274 714 q 346 756 317 756 q 397 735 375 756 q 419 685 419 714 q 397 633 419 654 q 346 611 375 611 m 72 408 q 54 426 54 408 l 54 476 q 72 494 54 494 l 622 494 q 640 476 640 494 l 640 426 q 622 408 640 408 l 72 408 m 346 171 q 294 192 315 171 q 274 243 274 213 q 295 294 274 272 q 346 315 317 315 q 397 294 375 315 q 419 243 419 272 q 397 192 419 214 q 346 171 375 171 z "},"=":{"ha":694,"x_min":54,"x_max":640,"o":"m 72 542 q 54 560 54 542 l 54 610 q 72 628 54 628 l 622 628 q 640 610 640 628 l 640 560 q 622 542 640 542 l 72 542 m 72 251 q 54 269 54 251 l 54 319 q 72 338 54 338 l 622 338 q 640 319 640 338 l 640 269 q 622 251 640 251 l 72 251 z "},"≠":{"ha":694,"x_min":54,"x_max":640,"o":"m 640 568 q 622 550 640 550 l 421 550 q 413 544 415 550 l 322 354 q 323 349 321 351 q 328 346 325 346 l 622 346 q 640 328 640 346 l 640 278 q 622 260 640 260 l 283 260 q 275 254 278 260 l 224 146 q 201 132 217 132 l 174 132 q 160 138 164 132 q 160 153 156 143 l 207 251 q 206 257 208 254 q 201 260 204 260 l 72 260 q 54 278 54 260 l 54 328 q 72 346 54 346 l 246 346 q 254 351 251 346 l 344 542 q 344 547 346 544 q 339 550 342 550 l 72 550 q 54 568 54 550 l 54 618 q 72 636 54 636 l 383 636 q 392 642 389 636 l 451 768 q 474 782 458 782 l 501 782 q 516 776 513 782 q 515 761 519 771 l 460 644 q 460 639 458 642 q 465 636 463 636 l 622 636 q 640 618 640 636 l 640 568 z "},">":{"ha":694,"x_min":54,"x_max":640,"o":"m 75 68 q 67 65 69 65 q 54 82 54 65 l 54 140 q 68 161 54 154 l 532 371 q 532 379 540 375 l 68 589 q 54 610 54 596 l 54 668 q 60 683 54 679 q 75 682 65 686 l 626 426 q 640 404 640 419 l 640 346 q 626 324 640 331 l 75 68 z "},"<":{"ha":694,"x_min":54,"x_max":640,"o":"m 640 82 q 635 68 640 72 q 619 68 629 64 l 68 324 q 54 346 54 331 l 54 404 q 68 426 54 419 l 619 682 q 628 685 625 685 q 640 668 640 685 l 640 610 q 626 589 640 596 l 163 379 q 163 371 154 375 l 626 161 q 640 140 640 154 l 640 82 z "},"≥":{"ha":694,"x_min":54,"x_max":640,"o":"m 72 0 q 54 18 54 0 l 54 68 q 72 86 54 86 l 622 86 q 640 68 640 86 l 640 18 q 622 0 640 0 l 72 0 m 75 167 q 67 164 69 164 q 54 181 54 164 l 54 239 q 68 260 54 253 l 532 469 q 532 478 540 474 l 68 688 q 54 708 54 694 l 54 767 q 60 781 54 778 q 75 781 65 785 l 626 525 q 640 503 640 518 l 640 444 q 626 422 640 429 l 75 167 z "},"≤":{"ha":694,"x_min":54,"x_max":640,"o":"m 640 181 q 635 167 640 171 q 619 167 629 163 l 68 422 q 54 444 54 429 l 54 503 q 68 525 54 518 l 619 781 q 628 783 625 783 q 640 767 640 783 l 640 708 q 626 688 640 694 l 163 478 q 163 469 154 474 l 626 260 q 640 239 640 253 l 640 181 m 640 18 q 622 0 640 0 l 72 0 q 54 18 54 0 l 54 68 q 72 86 54 86 l 622 86 q 640 68 640 86 l 640 18 z "},"±":{"ha":694,"x_min":54,"x_max":640,"o":"m 622 532 q 640 514 640 532 l 640 464 q 622 446 640 446 l 397 446 q 390 439 390 446 l 390 219 q 372 201 390 201 l 322 201 q 304 219 304 201 l 304 439 q 297 446 304 446 l 72 446 q 54 464 54 446 l 54 514 q 72 532 54 532 l 297 532 q 304 539 304 532 l 304 769 q 322 788 304 788 l 372 788 q 390 769 390 788 l 390 539 q 397 532 390 532 l 622 532 m 72 0 q 54 18 54 0 l 54 68 q 72 86 54 86 l 622 86 q 640 68 640 86 l 640 18 q 622 0 640 0 l 72 0 z "},"≈":{"ha":696,"x_min":58,"x_max":636,"o":"m 479 504 q 408 516 438 504 q 338 551 379 528 q 281 578 306 568 q 228 588 257 588 q 125 533 160 588 q 111 525 119 525 q 100 529 107 525 l 68 550 q 61 575 53 561 q 127 648 83 621 q 225 675 171 675 q 285 666 260 675 q 344 639 311 657 q 376 621 351 635 q 425 599 400 607 q 475 592 450 592 q 523 605 503 592 q 564 644 543 618 q 578 653 569 653 q 589 649 582 653 l 626 625 q 633 600 642 614 q 569 530 608 556 q 479 504 529 504 m 479 203 q 408 215 438 203 q 338 250 379 226 q 281 276 306 267 q 228 286 257 286 q 125 232 160 286 q 111 224 119 224 q 100 228 107 224 l 68 249 q 61 274 53 260 q 127 347 83 319 q 225 374 171 374 q 285 365 260 374 q 344 338 311 356 q 376 319 351 333 q 425 298 400 306 q 475 290 450 290 q 523 303 503 290 q 564 343 543 317 q 578 351 569 351 q 589 347 582 351 l 626 324 q 633 299 642 313 q 569 228 608 254 q 479 203 529 203 z "},"~":{"ha":696,"x_min":53,"x_max":642,"o":"m 479 321 q 408 333 438 321 q 338 368 379 344 q 281 394 306 385 q 228 404 257 404 q 125 350 160 404 q 111 342 119 342 q 100 346 107 342 l 68 367 q 61 392 53 378 q 127 465 83 438 q 225 492 171 492 q 285 483 260 492 q 344 456 311 474 q 376 438 351 451 q 425 416 400 424 q 475 408 450 408 q 523 422 503 408 q 564 461 543 435 q 578 469 569 469 q 589 465 582 469 l 626 442 q 633 417 642 431 q 569 347 608 372 q 479 321 529 321 z "},"¬":{"ha":694,"x_min":54,"x_max":640,"o":"m 54 460 q 72 478 54 478 l 622 478 q 640 460 640 478 l 640 243 q 622 225 640 225 l 571 225 q 553 243 553 225 l 553 385 q 546 392 553 392 l 72 392 q 54 410 54 392 l 54 460 z "},"∞":{"ha":1022,"x_min":54,"x_max":968,"o":"m 747 664 q 861 635 811 664 q 940 555 911 606 q 968 442 968 504 q 940 331 968 381 q 860 251 911 281 q 743 222 810 222 q 615 259 669 222 q 507 367 560 296 q 497 367 503 372 q 393 260 446 299 q 271 222 340 222 q 162 251 211 222 q 83 332 113 281 q 54 444 54 383 q 83 556 54 506 q 162 635 111 606 q 275 664 213 664 q 399 627 347 664 q 500 521 450 590 q 511 522 504 514 q 626 630 571 596 q 747 664 681 664 m 271 301 q 363 336 324 301 q 451 440 401 371 q 451 450 453 444 q 366 553 403 521 q 275 585 329 585 q 174 545 213 585 q 135 444 135 506 q 174 342 135 383 q 271 301 214 301 m 743 301 q 848 341 808 301 q 888 442 888 381 q 849 544 888 504 q 749 585 810 585 q 649 551 693 585 q 556 449 604 518 q 556 438 551 443 q 644 334 604 367 q 743 301 685 301 z "},"∫":{"ha":576,"x_min":47,"x_max":517,"o":"m 67 -278 q 49 -260 49 -278 l 47 -210 q 65 -192 47 -192 l 96 -192 q 200 -158 172 -192 q 228 -42 228 -124 l 238 742 q 261 885 239 838 q 338 952 283 933 q 497 972 392 971 q 515 954 515 972 l 517 904 q 499 886 517 886 l 469 886 q 365 852 393 886 q 336 736 336 818 l 326 -47 q 302 -191 325 -143 q 226 -258 279 -239 q 67 -278 172 -276 z "},"Ω":{"ha":890,"x_min":100,"x_max":790,"o":"m 118 0 q 100 18 100 0 l 100 68 q 118 86 100 86 l 226 86 q 232 89 231 86 q 229 94 233 92 q 144 194 174 132 q 114 333 114 256 l 114 661 q 155 830 114 757 q 271 943 196 903 q 444 983 346 983 q 619 943 543 983 q 735 830 694 903 q 776 661 776 757 l 776 333 q 746 194 776 256 q 660 94 715 132 q 657 89 656 92 q 663 86 658 86 l 772 86 q 790 68 790 86 l 790 18 q 772 0 790 0 l 521 0 q 503 18 503 0 l 503 71 q 518 90 503 86 q 631 169 583 107 q 678 319 678 232 l 678 664 q 614 833 678 769 q 444 897 550 897 q 276 833 340 897 q 213 664 213 769 l 213 319 q 260 169 213 232 q 371 90 307 107 q 386 71 386 86 l 386 18 q 368 0 386 0 l 118 0 z "},"∆":{"ha":886,"x_min":44,"x_max":842,"o":"m 63 0 q 44 18 44 0 l 44 75 q 49 97 44 88 l 399 958 q 419 972 404 972 l 467 972 q 488 958 482 972 l 838 96 q 842 74 842 86 l 842 18 q 824 0 842 0 l 63 0 m 144 94 q 145 89 143 92 q 150 86 147 86 l 736 86 q 741 89 739 86 q 742 94 743 92 l 447 836 q 439 836 443 847 l 144 94 z "},"∏":{"ha":907,"x_min":131,"x_max":779,"o":"m 761 1111 q 779 1093 779 1111 l 779 -260 q 761 -278 779 -278 l 699 -278 q 681 -260 681 -278 l 681 1018 q 674 1025 681 1025 l 236 1025 q 229 1018 229 1025 l 229 -260 q 211 -278 229 -278 l 149 -278 q 131 -260 131 -278 l 131 1093 q 149 1111 131 1111 l 761 1111 z "},"∑":{"ha":850,"x_min":131,"x_max":769,"o":"m 149 -276 q 131 -258 131 -276 l 131 -204 q 136 -181 131 -192 l 468 414 q 468 424 471 419 l 139 917 q 132 939 132 928 l 132 994 q 150 1013 132 1013 l 751 1013 q 769 994 769 1013 l 769 944 q 751 926 769 926 l 243 926 q 238 924 239 926 q 239 918 236 921 l 569 432 q 574 418 574 426 l 571 407 l 238 -183 q 243 -192 233 -192 l 751 -192 q 769 -210 769 -192 l 769 -258 q 751 -276 769 -276 l 149 -276 z "},"√":{"ha":1024,"x_min":46,"x_max":913,"o":"m 244 -278 q 224 -264 228 -278 l 47 222 q 46 231 46 225 q 58 244 46 240 l 115 263 l 122 264 q 138 251 133 264 l 267 -107 q 272 -111 269 -111 q 276 -107 275 -111 l 596 1082 q 615 1097 600 1097 l 894 1097 q 913 1079 913 1097 l 913 1031 q 894 1013 913 1013 l 682 1013 q 675 1007 678 1013 l 333 -262 q 314 -278 329 -278 l 244 -278 z "},"µ":{"ha":758,"x_min":110,"x_max":644,"o":"m 546 685 q 564 703 546 703 l 626 703 q 644 685 644 703 l 644 18 q 626 0 644 0 l 564 0 q 546 18 546 0 l 546 71 q 543 76 546 75 q 538 74 540 78 q 354 -10 478 -10 q 218 24 276 -10 q 213 25 215 26 q 210 19 210 24 l 210 -260 q 192 -278 210 -278 l 129 -278 q 111 -260 111 -278 l 111 188 l 111 196 q 110 219 110 203 l 110 685 q 128 703 110 703 l 192 703 q 210 685 210 703 l 210 222 q 260 115 217 154 q 374 76 304 76 q 499 124 453 76 q 546 249 546 171 l 546 685 z "},"∂":{"ha":814,"x_min":82,"x_max":701,"o":"m 594 867 q 676 688 651 793 q 701 467 701 582 q 630 126 701 263 q 372 -11 558 -11 q 162 70 242 -11 q 82 290 82 151 q 123 456 82 385 q 232 564 164 526 q 382 601 300 601 q 495 581 442 601 q 592 524 549 560 q 597 522 594 521 q 600 526 600 522 q 521 803 588 711 q 351 889 460 889 q 215 849 285 889 q 204 844 208 844 q 192 857 196 844 l 171 908 q 169 917 169 911 q 179 932 169 926 q 351 982 258 982 q 594 867 506 982 m 378 75 q 539 153 485 75 q 601 383 593 232 q 599 392 601 389 q 516 482 569 447 q 396 517 463 517 q 288 489 336 517 q 210 410 239 461 q 181 293 181 360 q 235 135 181 196 q 378 75 290 75 z "},"%":{"ha":1178,"x_min":131,"x_max":1050,"o":"m 331 590 q 231 617 276 590 q 158 688 185 643 q 131 788 131 733 q 158 887 131 842 q 231 958 185 932 q 331 985 276 985 q 431 958 385 985 q 503 887 476 932 q 529 788 529 842 q 503 688 529 733 q 431 617 476 643 q 331 590 385 590 m 304 0 q 290 6 293 0 q 292 22 286 13 l 814 960 q 835 972 821 972 l 871 972 q 885 966 882 972 q 883 950 889 960 l 363 13 q 342 0 357 0 l 304 0 m 331 649 q 428 690 388 649 q 468 788 468 731 q 428 886 468 846 q 331 926 388 926 q 232 886 272 926 q 192 788 192 846 q 232 689 192 729 q 331 649 272 649 m 853 -12 q 753 14 799 -12 q 680 86 707 40 q 653 186 653 132 q 680 284 653 239 q 753 356 707 329 q 853 382 799 382 q 951 356 906 382 q 1024 284 997 329 q 1050 186 1050 239 q 1024 86 1050 132 q 952 14 997 40 q 853 -12 907 -12 m 853 46 q 950 87 910 46 q 990 186 990 128 q 950 283 990 243 q 853 324 910 324 q 753 283 794 324 q 713 186 713 243 q 753 86 713 126 q 853 46 794 46 z "},"‰":{"ha":1583,"x_min":44,"x_max":1547,"o":"m 224 385 q 93 432 142 385 q 44 558 44 479 l 44 813 q 93 937 44 890 q 224 983 142 983 q 356 937 306 983 q 406 813 406 890 l 406 558 q 356 432 406 479 q 224 385 306 385 m 224 447 q 305 476 275 447 q 335 553 335 504 l 335 815 q 305 893 335 864 q 224 922 275 922 q 144 892 175 922 q 114 815 114 863 l 114 553 q 144 476 114 506 q 224 447 175 447 m 265 0 q 251 11 251 0 q 254 22 251 18 l 842 960 q 863 972 850 972 l 900 972 q 914 961 914 972 q 911 950 914 954 l 325 13 q 304 0 317 0 l 265 0 m 924 -11 q 793 36 842 -11 q 744 163 744 83 l 744 417 q 793 541 744 494 q 924 588 842 588 q 1056 541 1006 588 q 1106 417 1106 494 l 1106 163 q 1056 36 1106 83 q 924 -11 1006 -11 m 924 51 q 1005 80 975 51 q 1035 157 1035 108 l 1035 419 q 1005 497 1035 468 q 924 526 975 526 q 844 497 875 526 q 814 419 814 467 l 814 157 q 844 81 814 110 q 924 51 875 51 m 1365 -11 q 1235 36 1283 -11 q 1186 163 1186 83 l 1186 417 q 1235 541 1186 494 q 1365 588 1283 588 q 1497 541 1447 588 q 1547 417 1547 494 l 1547 163 q 1497 36 1547 83 q 1365 -11 1447 -11 m 1365 51 q 1447 80 1417 51 q 1476 157 1476 108 l 1476 419 q 1447 497 1476 468 q 1365 526 1417 526 q 1286 497 1317 526 q 1256 419 1256 467 l 1256 157 q 1286 81 1256 110 q 1365 51 1317 51 z "},"◊":{"ha":681,"x_min":57,"x_max":624,"o":"m 317 -64 q 296 -50 303 -64 l 60 474 q 57 486 57 485 q 60 499 57 490 l 297 1022 q 318 1036 304 1036 l 361 1036 q 382 1022 375 1036 l 621 499 q 624 486 624 494 q 621 474 624 479 l 383 -50 q 363 -64 376 -64 l 317 -64 m 336 49 q 344 49 340 40 l 532 482 q 532 490 533 486 l 344 924 q 336 924 340 932 l 149 490 q 149 482 147 486 l 336 49 z "}}}
